<svg width="106" height="106" viewBox="0 0 106 106" fill="none" xmlns="http://www.w3.org/2000/svg">
<path d="M49.8032 80.3747C49.8032 76.158 49.8488 64.8872 49.7447 63.4984C49.8356 46.7268 37.6261 34.896 29.9128 35.8182C24.5754 36.281 20.1023 38.4547 17.7005 44.7077C15.4744 50.5353 17.4646 58.2868 24.8657 60.1057C32.7796 62.059 37.4006 63.6844 40.7451 65.9772C44.843 68.7842 48.1882 74.1473 48.2771 80.3814" fill="#0060AF"/>
<path d="M52.9622 105.869C39.0082 105.869 24.6671 102.436 10.3453 95.6466L9.99388 95.4741L9.82579 95.1166C3.39879 81.5669 0 66.7468 0 52.2474C0 37.7696 3.25935 23.5839 9.69114 10.0525L9.86781 9.69288L10.2259 9.51355C23.4744 3.24524 37.7265 0.0700684 52.5992 0.0700684C66.4542 0.0700684 81.2508 3.60483 95.3826 10.31L95.7452 10.4712L95.9126 10.8374C102.463 24.6369 105.917 39.4531 105.917 53.7125C105.917 67.9161 102.6 82.1144 96.0423 95.9052L95.8696 96.2678L95.5046 96.4355C82.4588 102.604 67.7463 105.869 52.9622 105.869ZM11.6708 93.7889C25.5839 100.325 39.4598 103.626 52.9622 103.626C67.2792 103.626 81.5182 100.501 94.1925 94.5758C100.489 81.212 103.68 67.4584 103.68 53.7125C103.68 39.9109 100.349 25.5545 94.0485 12.1613C80.3338 5.72223 66.0111 2.30766 52.5992 2.30766C38.2001 2.30766 24.3988 5.35788 11.5505 11.3754C5.38322 24.4909 2.24421 38.2341 2.24421 52.2474C2.24421 66.287 5.50642 80.6493 11.6708 93.7889Z" fill="#0060AF"/>
<path d="M46.4966 80.3812C46.5226 74.9762 43.5019 70.1968 39.5541 67.6282C36.052 65.3579 31.3507 63.8662 23.7663 61.9453C21.4218 61.3465 18.9694 60.0157 18.2102 58.3201C16.2019 60.3412 15.8371 64.885 16.1904 67.5404C16.601 70.6134 20.1966 75.6781 25.6103 75.8766C28.9165 76.0089 33.0964 75.166 35.1009 74.7406C38.559 73.9946 44.0298 76.1578 44.9009 80.3745" fill="#0060AF"/>
<path d="M52.5994 9.67944C43.4204 9.67944 35.4912 15.7255 35.5196 26.1877C35.5483 34.9855 42.6325 39.6954 45.1604 43.0594C48.9801 48.1288 51.0477 54.129 51.2626 63.3101C51.4296 70.6174 51.4212 77.8328 51.4583 80.3899H53.485C53.4495 77.7143 53.3579 70.0546 53.4627 63.0843C53.6002 53.9001 55.7425 48.1288 59.5642 43.0594C62.1141 39.6954 69.1922 34.9855 69.2077 26.1877C69.2419 15.7255 61.3175 9.67944 52.1458 9.67944" fill="#0060AF"/>
<path d="M54.9291 80.3747C54.9291 76.158 54.8814 64.8872 54.9835 63.4984C54.8939 46.7268 67.0957 34.896 74.8156 35.8182C80.153 36.281 84.6214 38.4547 87.03 44.7077C89.254 50.5353 87.2524 58.2868 79.86 60.1057C71.9423 62.059 67.3266 63.6844 63.974 65.9772C59.8808 68.7842 56.7695 74.1473 56.6738 80.3814" fill="#0060AF"/>
<path d="M58.2346 80.3812C58.2058 74.9762 61.2255 70.1968 65.1619 67.6282C68.6781 65.3579 73.3854 63.8662 80.963 61.9453C83.3125 61.3465 85.762 60.0157 86.5076 58.3201C88.5255 60.3412 88.8895 64.885 88.5363 67.5404C88.1168 70.6134 84.531 75.6781 79.1267 75.8766C75.8214 76.0089 71.6197 75.166 69.6238 74.7406C66.1789 73.9946 60.6929 76.1578 59.8181 80.3745" fill="#0060AF"/>
<path d="M61.0662 97.8309L59.8916 89.2706L62.7271 88.8415C63.4173 88.747 64.2579 88.8672 64.5939 89.2993C64.9653 89.7503 65.0792 90.1233 65.1505 90.7144C65.2577 91.4463 65.0458 92.2923 64.2207 92.7139V92.7396C65.1421 92.7396 65.6988 93.4005 65.8603 94.5162C65.884 94.7519 65.954 95.3214 65.884 95.7963C65.6971 96.9265 65.0218 97.2898 63.8824 97.4491L61.0662 97.8309ZM62.8914 96.298C63.2273 96.25 63.5684 96.2322 63.8347 96.0624C64.2427 95.7963 64.2052 95.2268 64.149 94.8045C64.0067 93.8755 63.7641 93.5227 62.7774 93.6686L62.1579 93.7638L62.5503 96.3459L62.8914 96.298ZM62.2971 92.3426C62.6727 92.2818 63.1814 92.2369 63.3936 91.8811C63.5041 91.6434 63.6464 91.4547 63.5532 90.9264C63.4376 90.2995 63.2294 89.9116 62.4327 90.0622L61.6908 90.1814L61.9831 92.3753" fill="#0060AF"/>
<path d="M73.3484 92.6822C73.3703 92.8416 73.396 93.0188 73.4055 93.1781C73.6346 94.7395 73.3484 96.032 71.5911 96.3879C68.9936 96.8875 68.496 95.2755 68.0384 93.0188L67.795 91.7981C67.4367 89.6386 67.2833 88.0041 69.8156 87.5004C71.2433 87.2398 72.187 87.8072 72.5794 89.2268C72.6406 89.4384 72.717 89.6484 72.7457 89.8611L71.1919 90.1814C71.0124 89.6484 70.7745 88.6954 70.0755 88.7754C68.8205 88.9263 69.2352 90.4856 69.364 91.1371L69.8311 93.4806C69.9714 94.1892 70.2502 95.3214 71.3359 95.103C72.2174 94.9265 71.8334 93.5549 71.7554 92.9932" fill="#0060AF"/>
<path d="M75.8415 95.2729L75.3037 86.4142L77.3912 85.7778L81.768 93.4828L80.1246 93.9739L79.0873 92.0156L77.2624 92.5632L77.4983 94.7892L75.8415 95.2729ZM77.1096 91.1325L78.4285 90.7511L76.677 87.1666" fill="#0060AF"/>
<path d="M24.2799 88.5753C24.9331 86.4864 25.5185 84.9491 28.011 85.632C29.3451 86.004 30.1721 86.5914 30.133 88.1392C30.1265 88.4839 30.0127 88.8346 29.9382 89.1752L28.3863 88.7468C28.5897 87.8924 28.7187 87.2142 27.6644 86.8898C26.4458 86.5559 26.1488 88.0315 25.9807 88.6689L25.3495 90.9911C25.1489 91.6808 24.9083 92.8204 25.9807 93.1145C26.867 93.3528 27.4046 92.4839 27.7255 91.2152L26.6396 90.9283L27.015 89.5844L29.5676 90.4047L28.3558 94.8807L27.1811 94.5623L27.4457 93.6161H27.4122C26.8717 94.3895 26.2118 94.4705 25.634 94.3601C23.0814 93.6705 23.3478 92.0042 23.9571 89.7782" fill="#0060AF"/>
<path d="M33.7814 92.3564L33.0127 95.9978L31.2822 95.6241L33.1263 87.1208L36.0764 87.7866C37.8029 88.1586 38.3244 88.9266 38.0797 90.5068C37.9405 91.4138 37.4926 92.3915 36.3992 92.3125L36.3877 92.2976C37.3121 92.621 37.3902 93.0862 37.229 93.8913C37.1593 94.2337 36.6787 96.3121 37.0103 96.6477L37.0218 96.9025L35.231 96.436C35.1567 95.8601 35.4095 94.8241 35.5099 94.2509C35.6113 93.7435 35.7725 93.0282 35.2567 92.7591C34.8528 92.5447 34.7031 92.5552 34.2465 92.4502L33.7814 92.3564ZM34.0764 91.0391L35.2415 91.3531C35.9493 91.455 36.3427 91.0888 36.482 90.235C36.6081 89.4518 36.4448 89.146 35.8097 88.9941L34.5608 88.7416" fill="#0060AF"/>
<path d="M44.8802 89.0209L46.5915 89.2191L45.8543 95.1966C45.4961 97.0918 44.7626 97.9206 42.6751 97.6613C40.5511 97.3933 40.0472 96.4271 40.176 94.5167L40.9179 88.5439L42.6427 88.7414L41.9025 94.5805C41.8244 95.2149 41.677 96.1543 42.8069 96.2678C43.8088 96.3441 44.0359 95.681 44.1488 94.857" fill="#0060AF"/>
<path d="M48.4785 97.9885L48.9933 89.4407L52.2814 89.5828C53.8348 89.6591 54.2418 90.9267 54.1931 92.1359C54.1481 92.8715 53.918 93.6925 53.2764 94.1381C52.7502 94.5165 52.0738 94.6063 51.4465 94.5759L50.375 94.5165L50.1611 98.0989L48.4785 97.9885ZM50.4237 93.2128L51.2947 93.2614C52.0025 93.287 52.4713 93.0079 52.5325 91.9701C52.5666 90.9733 52.1894 90.8045 51.2728 90.7643L50.5822 90.7407" fill="#0060AF"/>
</svg>
