<svg width="720" height="126" viewBox="0 0 720 126" fill="none" xmlns="http://www.w3.org/2000/svg">
<path d="M49.8032 80.3046C49.8032 76.0879 49.8488 64.8171 49.7447 63.4283C49.8356 46.6567 37.6261 34.8259 29.9128 35.7482C24.5754 36.211 20.1023 38.3846 17.7005 44.6376C15.4744 50.4653 17.4646 58.2168 24.8657 60.0357C32.7796 61.9889 37.4006 63.6143 40.7451 65.9072C44.843 68.7141 48.1882 74.0773 48.2771 80.3114" fill="#0060AF"/>
<path d="M52.9622 105.798C39.0082 105.798 24.6671 102.366 10.3453 95.5765L9.99388 95.404L9.82579 95.0466C3.39879 81.4968 0 66.6767 0 52.1773C0 37.6995 3.25935 23.5138 9.69114 9.9824L9.86781 9.62281L10.2259 9.44349C23.4744 3.17518 37.7265 0 52.5992 0C66.4542 0 81.2508 3.53476 95.3826 10.2399L95.7452 10.4011L95.9126 10.7674C102.463 24.5668 105.917 39.383 105.917 53.6424C105.917 67.8461 102.6 82.0443 96.0424 95.8351L95.8696 96.1977L95.5046 96.3655C82.4588 102.534 67.7463 105.798 52.9622 105.798ZM11.6708 93.7188C25.5839 100.255 39.4598 103.556 52.9622 103.556C67.2792 103.556 81.5182 100.431 94.1925 94.5057C100.489 81.142 103.68 67.3883 103.68 53.6424C103.68 39.8408 100.349 25.4844 94.0485 12.0912C80.3338 5.65216 66.0111 2.2376 52.5992 2.2376C38.2001 2.2376 24.3988 5.28781 11.5505 11.3053C5.38322 24.4209 2.24421 38.1641 2.24421 52.1773C2.24421 66.2169 5.50642 80.5792 11.6708 93.7188Z" fill="#0060AF"/>
<path d="M46.4966 80.3112C46.5226 74.9062 43.5019 70.1267 39.5541 67.5581C36.052 65.2879 31.3507 63.7961 23.7663 61.8753C21.4218 61.2764 18.9694 59.9457 18.2102 58.25C16.2019 60.2711 15.8371 64.8149 16.1904 67.4703C16.601 70.5433 20.1966 75.608 25.6103 75.8065C28.9165 75.9388 33.0964 75.0959 35.1009 74.6705C38.559 73.9245 44.0298 76.0877 44.9009 80.3044" fill="#0060AF"/>
<path d="M52.5994 9.60938C43.4204 9.60938 35.4912 15.6555 35.5196 26.1176C35.5483 34.9154 42.6325 39.6253 45.1604 42.9893C48.9801 48.0588 51.0477 54.0589 51.2626 63.24C51.4296 70.5473 51.4212 77.7627 51.4583 80.3199H53.485C53.4495 77.6442 53.3579 69.9845 53.4627 63.0142C53.6002 53.83 55.7425 48.0588 59.5642 42.9893C62.1141 39.6253 69.1922 34.9154 69.2077 26.1176C69.2419 15.6555 61.3175 9.60938 52.1458 9.60938" fill="#0060AF"/>
<path d="M54.9291 80.3046C54.9291 76.0879 54.8814 64.8171 54.9835 63.4283C54.8939 46.6567 67.0957 34.8259 74.8156 35.7482C80.153 36.211 84.6214 38.3846 87.03 44.6376C89.254 50.4653 87.2524 58.2168 79.86 60.0357C71.9423 61.9889 67.3266 63.6143 63.974 65.9072C59.8808 68.7141 56.7695 74.0773 56.6738 80.3114" fill="#0060AF"/>
<path d="M58.2346 80.3112C58.2058 74.9062 61.2255 70.1267 65.1619 67.5581C68.6781 65.2879 73.3854 63.7961 80.963 61.8753C83.3125 61.2764 85.762 59.9457 86.5076 58.25C88.5255 60.2711 88.8895 64.8149 88.5363 67.4703C88.1168 70.5433 84.531 75.608 79.1267 75.8065C75.8214 75.9388 71.6197 75.0959 69.6238 74.6705C66.1789 73.9245 60.6929 76.0877 59.8181 80.3044" fill="#0060AF"/>
<path d="M61.0662 97.7609L59.8916 89.2005L62.7271 88.7715C63.4173 88.6769 64.2579 88.7971 64.5939 89.2292C64.9653 89.6802 65.0792 90.0532 65.1505 90.6443C65.2577 91.3762 65.0458 92.2222 64.2207 92.6438V92.6695C65.1421 92.6695 65.6988 93.3305 65.8603 94.4462C65.884 94.6818 65.954 95.2513 65.884 95.7263C65.6971 96.8565 65.0218 97.2197 63.8824 97.3791L61.0662 97.7609ZM62.8914 96.2279C63.2273 96.18 63.5684 96.1621 63.8347 95.9923C64.2427 95.7263 64.2052 95.1568 64.149 94.7345C64.0067 93.8054 63.7641 93.4527 62.7774 93.5985L62.1579 93.6937L62.5503 96.2758L62.8914 96.2279ZM62.2971 92.2725C62.6727 92.2117 63.1814 92.1668 63.3936 91.811C63.5041 91.5734 63.6464 91.3847 63.5532 90.8563C63.4376 90.2295 63.2294 89.8416 62.4327 89.9921L61.6908 90.1113L61.9831 92.3052" fill="#0060AF"/>
<path d="M73.3484 92.6122C73.3703 92.7715 73.396 92.9487 73.4055 93.1081C73.6346 94.6694 73.3484 95.962 71.5911 96.3178C68.9936 96.8174 68.496 95.2055 68.0384 92.9487L67.795 91.728C67.4367 89.5685 67.2833 87.934 69.8156 87.4303C71.2433 87.1697 72.187 87.7372 72.5794 89.1567C72.6406 89.3684 72.717 89.5783 72.7457 89.791L71.1919 90.1114C71.0124 89.5783 70.7745 88.6254 70.0755 88.7054C68.8205 88.8563 69.2352 90.4155 69.364 91.0671L69.8311 93.4105C69.9714 94.1191 70.2502 95.2514 71.3359 95.033C72.2174 94.8564 71.8334 93.4848 71.7554 92.9231" fill="#0060AF"/>
<path d="M75.8415 95.2029L75.3037 86.3441L77.3912 85.7078L81.768 93.4127L80.1246 93.9039L79.0873 91.9456L77.2624 92.4931L77.4983 94.7191L75.8415 95.2029ZM77.1096 91.0625L78.4285 90.681L76.677 87.0966" fill="#0060AF"/>
<path d="M24.2799 88.5053C24.9331 86.4163 25.5185 84.879 28.011 85.5619C29.3451 85.9339 30.1721 86.5213 30.133 88.0691C30.1265 88.4138 30.0127 88.7645 29.9382 89.1052L28.3863 88.6768C28.5897 87.8224 28.7187 87.1442 27.6644 86.8197C26.4458 86.4859 26.1488 87.9614 25.9807 88.5988L25.3495 90.921C25.1489 91.6107 24.9083 92.7504 25.9807 93.0444C26.867 93.2827 27.4046 92.4138 27.7255 91.1452L26.6396 90.8582L27.015 89.5143L29.5676 90.3346L28.3558 94.8106L27.1811 94.4923L27.4457 93.546H27.4122C26.8717 94.3194 26.2118 94.4005 25.634 94.2901C23.0814 93.6004 23.3478 91.9341 23.9571 89.7081" fill="#0060AF"/>
<path d="M33.7814 92.2863L33.0127 95.9278L31.2822 95.5541L33.1263 87.0508L36.0764 87.7165C37.8029 88.0885 38.3244 88.8565 38.0797 90.4367C37.9405 91.3438 37.4926 92.3214 36.3992 92.2424L36.3877 92.2276C37.3121 92.551 37.3902 93.0161 37.229 93.8213C37.1593 94.1636 36.6787 96.2421 37.0103 96.5776L37.0218 96.8325L35.231 96.366C35.1567 95.79 35.4095 94.754 35.5099 94.1808C35.6113 93.6734 35.7725 92.9581 35.2567 92.689C34.8528 92.4747 34.7031 92.4851 34.2465 92.3801L33.7814 92.2863ZM34.0764 90.9691L35.2415 91.283C35.9493 91.385 36.3427 91.0187 36.482 90.165C36.6081 89.3818 36.4448 89.0759 35.8097 88.924L34.5608 88.6715" fill="#0060AF"/>
<path d="M44.8802 88.9509L46.5915 89.149L45.8543 95.1266C45.4961 97.0217 44.7626 97.8505 42.6751 97.5912C40.5511 97.3232 40.0472 96.357 40.176 94.4467L40.9179 88.4739L42.6427 88.6714L41.9025 94.5105C41.8244 95.1448 41.677 96.0843 42.8069 96.1977C43.8088 96.274 44.0359 95.611 44.1488 94.7869" fill="#0060AF"/>
<path d="M48.4785 97.9184L48.9933 89.3706L52.2814 89.5127C53.8348 89.589 54.2418 90.8566 54.1931 92.0658C54.1481 92.8014 53.918 93.6224 53.2764 94.068C52.7502 94.4464 52.0738 94.5362 51.4465 94.5059L50.375 94.4464L50.1611 98.0288L48.4785 97.9184ZM50.4237 93.1427L51.2947 93.1913C52.0025 93.217 52.4713 92.9378 52.5325 91.9001C52.5666 90.9032 52.1894 90.7344 51.2728 90.6943L50.5822 90.6706" fill="#0060AF"/>
<path d="M280.378 17.8712L267.31 41.5605C262.378 37.5601 256.355 34.6161 248.67 34.6161C230.484 34.6161 223.097 48.1551 223.097 57.692C223.097 64.7711 227.739 75.2161 243.92 75.2161C250.711 75.2161 260.367 70.4968 263.146 68.3498L250.222 95.8331C244.061 97.0609 242.037 97.8218 236.822 97.9832C207.86 98.8464 196.157 81.0772 196.166 62.9198C196.185 38.9165 217.553 9.72485 252.975 9.72485C255.146 9.72485 257.8 10.4746 260.07 11.3053L262.364 8.37524" fill="#0060AF"/>
<path d="M334.299 9.11816L338 95.2189H310.46L310.443 80.4522H291.665L285.484 95.2189H255.617L286.842 33.7356L279.801 33.6898L293.179 9.11816H334.299ZM310.265 35.4583L299.648 60.5019H310.585" fill="#0060AF"/>
<path d="M178.78 9.11814C192.418 9.19443 200.125 16.5882 200.125 27.2688C200.125 37.1148 191.997 45.8307 183.075 50.3374C192.261 53.7098 193.055 61.9886 193.055 67.846C193.055 81.9966 178.839 95.219 160.359 95.219H120.057L135.778 34.592L129.32 34.5549L142.521 9.11814C142.521 9.11814 167.69 9.04184 178.78 9.11814ZM165.4 44.027C168.221 44.027 173.202 43.3134 174.448 37.8608C175.812 31.9415 171.138 31.7822 168.895 31.7822L160.883 31.7471L158.089 44.0274L165.4 44.027ZM154.072 59.2418L150.383 73.3924H159.817C163.529 73.3924 168.588 71.5526 169.827 66.9477C171.052 62.3293 167.516 59.2418 163.817 59.2418" fill="#0060AF"/>
<path fill-rule="evenodd" clip-rule="evenodd" d="M668.095 18.4532C667.876 19.1438 654.81 93.5238 654.816 94.0423C654.821 94.3939 657.133 94.4955 665.15 94.4955C674.671 94.4955 675.491 94.4461 675.664 93.861C675.768 93.5119 677.013 86.9456 678.432 79.2689C679.851 71.5921 681.332 64.3323 681.722 63.1359C683.372 58.0869 685.822 55.4081 689.552 54.575C692.941 53.818 696.267 55.2866 697.294 57.9933C698.144 60.2331 697.736 63.3415 694.062 82.6017C692.857 88.9211 691.87 94.1848 691.87 94.299C691.87 94.4131 696.649 94.4632 702.489 94.4102L713.107 94.3142L716.329 76.1873C719.253 59.7346 719.555 57.6083 719.596 53.1662C719.636 48.8784 719.541 48.0214 718.828 46.2493C717.275 42.3832 713.993 39.7646 709.108 38.4946C706.413 37.7942 700.676 37.7822 698.045 38.4714C694.803 39.3208 689.75 42.1037 686.15 45.0217C684.302 46.5194 682.79 47.6694 682.79 47.5773C682.79 47.2702 687.504 19.6452 687.698 18.8157L687.889 18H678.064C670.522 18 668.205 18.1055 668.095 18.4532ZM369.46 36.3005C361.203 37.7964 355.45 41.4624 352.674 46.9969C349.034 54.2556 349.929 62.2093 354.935 67.0872C358.307 70.3736 362.882 72.2548 373.149 74.5762C382.5 76.6901 384.298 77.8822 382.084 80.4982C380.892 81.906 378.797 82.5154 375.122 82.5237C369.513 82.5364 366.032 81.1109 363.813 77.8927C362.772 76.3823 362.63 76.3011 361.39 76.5042C360.666 76.6227 356.682 77.2463 352.537 77.8901C346.439 78.8371 345 79.1692 345 79.6281C345 80.6229 347.385 85.1851 348.902 87.0917C356.188 96.2505 379.245 99.075 392.864 92.4768C400.495 88.7793 404.166 82.7532 403.774 74.5671C403.653 72.037 403.413 71.0092 402.479 69.0177C399.475 62.6099 394.014 59.5581 380.599 56.7908C377.505 56.1527 374.37 55.3229 373.631 54.9469C371.089 53.6523 370.354 51.3071 372.069 49.961C373.48 48.853 377.553 48.2918 380.485 48.8016C383.598 49.3425 384.498 49.8348 386.56 52.1239L388.26 54.0116L394.87 52.6543C398.506 51.9078 402.256 51.133 403.205 50.9326C404.154 50.7324 404.929 50.3779 404.927 50.1451C404.916 48.869 402.862 45.5826 400.836 43.601C397.019 39.8657 391.362 37.4549 383.78 36.331C379.245 35.6589 373.075 35.6458 369.46 36.3005ZM563.292 36.9756C558.459 38.0915 554.109 41.7981 551.163 47.3115C549.635 50.1701 549.604 49.8906 550.703 43.1057L551.539 37.9396C549.555 37.9396 532.782 37.8875 532.782 38.0302C532.782 38.0802 530.576 50.6012 527.879 65.855C525.182 81.1087 522.975 93.7932 522.975 94.0423C522.975 94.8453 541.712 94.4955 544.26 94.4955L546.551 82.0785C549.033 68.623 550.282 64.0361 552.155 61.5045C554.291 58.6158 558.629 56.8847 564.368 56.6298L567.441 56.4935L569.14 46.7634C570.073 41.412 570.763 36.9542 570.672 36.8578C570.302 36.4637 565.153 36.546 563.292 36.9756ZM622.315 37.0938C615.346 37.6695 610.863 38.954 606.532 41.6175C602.517 44.0864 599.303 47.3605 597.642 50.6748C596.929 52.0985 596.345 53.5414 596.345 53.8807C596.345 54.4151 597.452 54.629 604.608 55.4762C609.153 56.0146 613.61 56.5465 614.512 56.6588C616.098 56.8557 616.184 56.8162 617.055 55.4817C619.244 52.1275 623.899 50.065 628.66 50.3398C632.844 50.5816 635.005 52.1927 634.924 55.0107C634.845 57.7936 632.456 58.7014 617.392 61.6727C611.709 62.7941 605.915 64.0463 604.517 64.4563C596.248 66.8795 590.731 72.7312 589.817 80.0498C589.167 85.2529 590.213 88.424 593.6 91.5128C597.6 95.1622 601 96.1367 608.694 95.8383C616.742 95.5265 622.704 93.6409 627.659 89.8401C629 88.8116 630.161 87.9698 630.24 87.9698C630.318 87.9698 630.478 88.9947 630.595 90.2476C630.712 91.5002 630.977 92.9684 631.183 93.5104L631.558 94.4955H641.556C647.055 94.4955 651.553 94.424 651.553 94.3367C651.553 94.2493 651.293 93.0667 650.975 91.7083C650.262 88.6655 650.433 86.5562 652.127 77.4562C652.814 73.7674 653.876 67.8942 654.486 64.4048C656.493 52.9436 655.938 46.8062 652.566 43.155C650.777 41.218 647.038 39.3111 643.018 38.2854C638.749 37.196 628.333 36.5967 622.315 37.0938ZM486.502 37.5966C479.185 38.7266 473.42 41.6157 469.023 46.3573C466.49 49.0883 463.677 54.5623 464.77 54.6344C464.92 54.6442 469.38 55.1793 474.682 55.8236L484.322 56.9949L485.317 55.4701C487.754 51.7359 494.506 49.3758 499.104 50.6501C500.851 51.1345 502.86 52.8845 503.099 54.1312C503.2 54.6616 503.114 55.5792 502.908 56.1709C502.246 58.0644 499.279 59.0581 486.938 61.519C480.888 62.7255 474.748 64.0325 473.293 64.4237C465.941 66.3991 460.794 70.8489 458.707 77.0327C457.594 80.33 457.661 85.32 458.853 87.8744C460.035 90.4089 462.529 92.7524 465.704 94.312C468.976 95.9188 473.965 96.5177 479.175 95.9293C487.015 95.0436 492.274 93.0326 496.951 89.1324L498.437 87.8936L498.86 90.7414C499.54 95.3141 498.321 94.858 509.874 94.858H519.941L519.256 92.2296C518.415 89.0023 518.549 87.1153 520.28 77.8187C520.967 74.1299 522.029 68.2568 522.641 64.7674C524.624 53.4555 524.142 47.1658 521.011 43.5147C519.337 41.5631 515.46 39.5703 511.076 38.4083C507.772 37.5328 506.916 37.4639 498.095 37.3679C492.901 37.3113 487.685 37.4143 486.502 37.5966ZM573.295 38.3927C573.144 38.8709 563.655 93.8588 563.655 94.2612C563.655 94.6381 584.359 94.5571 584.359 94.3294C584.359 94.0698 593.781 39.2864 593.949 38.574C594.088 37.9813 593.42 37.9396 583.768 37.9396C575.824 37.9396 573.406 38.0443 573.295 38.3927ZM403.859 38.7553C403.869 39.0047 408.58 53.0755 414.328 70.0242L424.778 100.84L424.29 102.471C423.365 105.562 422.273 107.282 420.73 108.072C419.475 108.715 418.606 108.816 414.324 108.816H409.37L407.275 116.536C406.034 121.108 405.314 124.383 405.509 124.57C406.039 125.077 412.028 125.672 416.553 125.668C428.442 125.657 436.998 121.079 441.27 112.441C442.332 110.294 466.677 39.4035 466.677 38.4584C466.677 38.3724 462.036 38.3021 456.364 38.3021H446.051L443.431 46.006C441.991 50.2434 439.585 57.3538 438.085 61.8076C436.585 66.261 435.237 69.7686 435.091 69.6022C434.945 69.4354 432.471 62.326 429.593 53.8035L424.362 38.3075L414.102 38.305C406.124 38.3028 403.845 38.4029 403.859 38.7553ZM500.814 69.2084C500.803 70.8352 499.688 74.7154 498.721 76.4897C497.544 78.6497 494.191 81.5507 491.376 82.8449C489.784 83.5765 488.787 83.7669 486.472 83.7817C482.708 83.806 480.901 82.9686 480.153 80.8524C479.05 77.7364 480.768 74.8423 484.807 73.0122C486.604 72.1979 499.129 68.541 500.547 68.4167C500.696 68.4036 500.817 68.7596 500.814 69.2084ZM632.494 70.0898C631.893 74.0871 630.911 76.2765 628.627 78.7145C624.998 82.5864 620.245 84.4698 616.211 83.6338C612.612 82.8884 611.148 80.88 611.774 77.5501C612.349 74.4888 615.603 72.7131 625.583 70.0144C633.123 67.9758 632.812 67.9726 632.494 70.0898Z" fill="#00A6B4"/>
</svg>
