<svg width="219" height="91" viewBox="0 0 219 91" fill="none" xmlns="http://www.w3.org/2000/svg">
<path d="M160.967 10.1788L147.899 33.8681C142.966 29.8678 136.944 26.9237 129.259 26.9237C111.073 26.9237 103.686 40.4627 103.686 49.9997C103.686 57.0787 108.327 67.5238 124.509 67.5238C131.3 67.5238 140.956 62.8044 143.735 60.6574L130.811 88.1408C124.65 89.3685 122.626 90.1294 117.411 90.2908C88.4493 91.154 76.7461 73.3848 76.7549 55.2274C76.7738 31.2242 98.1415 2.03247 133.564 2.03247C135.735 2.03247 138.389 2.78217 140.659 3.61292L142.953 0.682861" fill="#0060AF"/>
<path d="M214.888 1.42578L218.588 87.5266H191.049L191.032 72.7598H172.254L166.073 87.5266H136.206L167.431 26.0432L160.39 25.9974L173.768 1.42578H214.888ZM190.854 27.7659L180.237 52.8095H191.174" fill="#0060AF"/>
<path d="M59.3693 1.42575C73.0072 1.50205 80.714 8.89585 80.714 19.5765C80.714 29.4224 72.5861 38.1383 63.6639 42.645C72.8497 46.0175 73.6444 54.2963 73.6444 60.1536C73.6444 74.3043 59.4274 87.5266 40.9476 87.5266H0.645508L16.3666 26.8996L9.90872 26.8625L23.1096 1.42575C23.1096 1.42575 48.2791 1.34946 59.3693 1.42575ZM45.9889 36.3347C48.8098 36.3347 53.7913 35.621 55.0365 30.1684C56.401 24.2491 51.7264 24.0898 49.4841 24.0898L41.4718 24.0547L38.6776 36.335L45.9889 36.3347ZM34.6611 51.5494L30.9719 65.7H40.4061C44.118 65.7 49.1765 63.8602 50.4163 59.2553C51.6406 54.6369 48.1044 51.5494 44.4057 51.5494" fill="#0060AF"/>
</svg>
