<svg width="338" height="106" viewBox="0 0 338 106" fill="none" xmlns="http://www.w3.org/2000/svg">
<path d="M49.8032 80.3046C49.8032 76.0879 49.8488 64.8171 49.7447 63.4283C49.8356 46.6567 37.6261 34.8259 29.9128 35.7482C24.5754 36.211 20.1023 38.3846 17.7005 44.6376C15.4744 50.4653 17.4646 58.2168 24.8657 60.0357C32.7796 61.9889 37.4006 63.6143 40.7451 65.9072C44.843 68.7141 48.1882 74.0773 48.2771 80.3114" fill="#0060AF"/>
<path d="M52.9622 105.798C39.0082 105.798 24.6671 102.366 10.3453 95.5765L9.99388 95.404L9.82579 95.0466C3.39879 81.4968 0 66.6767 0 52.1773C0 37.6995 3.25935 23.5138 9.69114 9.9824L9.86781 9.62281L10.2259 9.44349C23.4744 3.17518 37.7265 0 52.5992 0C66.4542 0 81.2508 3.53476 95.3826 10.2399L95.7452 10.4011L95.9126 10.7674C102.463 24.5668 105.917 39.383 105.917 53.6424C105.917 67.8461 102.6 82.0443 96.0424 95.8351L95.8696 96.1977L95.5046 96.3655C82.4588 102.534 67.7463 105.798 52.9622 105.798ZM11.6708 93.7188C25.5839 100.255 39.4598 103.556 52.9622 103.556C67.2792 103.556 81.5182 100.431 94.1925 94.5057C100.489 81.142 103.68 67.3883 103.68 53.6424C103.68 39.8408 100.349 25.4844 94.0485 12.0912C80.3338 5.65216 66.0111 2.2376 52.5992 2.2376C38.2001 2.2376 24.3988 5.28781 11.5505 11.3053C5.38322 24.4209 2.24421 38.1641 2.24421 52.1773C2.24421 66.2169 5.50642 80.5792 11.6708 93.7188Z" fill="#0060AF"/>
<path d="M46.4966 80.3112C46.5226 74.9062 43.5019 70.1267 39.5541 67.5581C36.052 65.2879 31.3507 63.7961 23.7663 61.8753C21.4218 61.2764 18.9694 59.9457 18.2102 58.25C16.2019 60.2711 15.8371 64.8149 16.1904 67.4703C16.601 70.5433 20.1966 75.608 25.6103 75.8065C28.9165 75.9388 33.0964 75.0959 35.1009 74.6705C38.559 73.9245 44.0298 76.0877 44.9009 80.3044" fill="#0060AF"/>
<path d="M52.5994 9.60938C43.4204 9.60938 35.4912 15.6555 35.5196 26.1176C35.5483 34.9154 42.6325 39.6253 45.1604 42.9893C48.9801 48.0588 51.0477 54.0589 51.2626 63.24C51.4296 70.5473 51.4212 77.7627 51.4583 80.3199H53.485C53.4495 77.6442 53.3579 69.9845 53.4627 63.0142C53.6002 53.83 55.7425 48.0588 59.5642 42.9893C62.1141 39.6253 69.1922 34.9154 69.2077 26.1176C69.2419 15.6555 61.3175 9.60938 52.1458 9.60938" fill="#0060AF"/>
<path d="M54.9291 80.3046C54.9291 76.0879 54.8814 64.8171 54.9835 63.4283C54.8939 46.6567 67.0957 34.8259 74.8156 35.7482C80.153 36.211 84.6214 38.3846 87.03 44.6376C89.254 50.4653 87.2524 58.2168 79.86 60.0357C71.9423 61.9889 67.3266 63.6143 63.974 65.9072C59.8808 68.7141 56.7695 74.0773 56.6738 80.3114" fill="#0060AF"/>
<path d="M58.2346 80.3112C58.2058 74.9062 61.2255 70.1267 65.1619 67.5581C68.6781 65.2879 73.3854 63.7961 80.963 61.8753C83.3125 61.2764 85.762 59.9457 86.5076 58.25C88.5255 60.2711 88.8895 64.8149 88.5363 67.4703C88.1168 70.5433 84.531 75.608 79.1267 75.8065C75.8214 75.9388 71.6197 75.0959 69.6238 74.6705C66.1789 73.9245 60.6929 76.0877 59.8181 80.3044" fill="#0060AF"/>
<path d="M61.0662 97.7609L59.8916 89.2005L62.7271 88.7715C63.4173 88.6769 64.2579 88.7971 64.5939 89.2292C64.9653 89.6802 65.0792 90.0532 65.1505 90.6443C65.2577 91.3762 65.0458 92.2222 64.2207 92.6438V92.6695C65.1421 92.6695 65.6988 93.3305 65.8603 94.4462C65.884 94.6818 65.954 95.2513 65.884 95.7263C65.6971 96.8565 65.0218 97.2197 63.8824 97.3791L61.0662 97.7609ZM62.8914 96.2279C63.2273 96.18 63.5684 96.1621 63.8347 95.9923C64.2427 95.7263 64.2052 95.1568 64.149 94.7345C64.0067 93.8054 63.7641 93.4527 62.7774 93.5985L62.1579 93.6937L62.5503 96.2758L62.8914 96.2279ZM62.2971 92.2725C62.6727 92.2117 63.1814 92.1668 63.3936 91.811C63.5041 91.5734 63.6464 91.3847 63.5532 90.8563C63.4376 90.2295 63.2294 89.8416 62.4327 89.9921L61.6908 90.1113L61.9831 92.3052" fill="#0060AF"/>
<path d="M73.3484 92.6122C73.3703 92.7715 73.396 92.9487 73.4055 93.1081C73.6346 94.6694 73.3484 95.962 71.5911 96.3178C68.9936 96.8174 68.496 95.2055 68.0384 92.9487L67.795 91.728C67.4367 89.5685 67.2833 87.934 69.8156 87.4303C71.2433 87.1697 72.187 87.7372 72.5794 89.1567C72.6406 89.3684 72.717 89.5783 72.7457 89.791L71.1919 90.1114C71.0124 89.5783 70.7745 88.6254 70.0755 88.7054C68.8205 88.8563 69.2352 90.4155 69.364 91.0671L69.8311 93.4105C69.9714 94.1191 70.2502 95.2514 71.3359 95.033C72.2174 94.8564 71.8334 93.4848 71.7554 92.9231" fill="#0060AF"/>
<path d="M75.8415 95.2029L75.3037 86.3441L77.3912 85.7078L81.768 93.4127L80.1246 93.9039L79.0873 91.9456L77.2624 92.4931L77.4983 94.7191L75.8415 95.2029ZM77.1096 91.0625L78.4285 90.681L76.677 87.0966" fill="#0060AF"/>
<path d="M24.2799 88.5053C24.9331 86.4163 25.5185 84.879 28.011 85.5619C29.3451 85.9339 30.1721 86.5213 30.133 88.0691C30.1265 88.4138 30.0127 88.7645 29.9382 89.1052L28.3863 88.6768C28.5897 87.8224 28.7187 87.1442 27.6644 86.8197C26.4458 86.4859 26.1488 87.9614 25.9807 88.5988L25.3495 90.921C25.1489 91.6107 24.9083 92.7504 25.9807 93.0444C26.867 93.2827 27.4046 92.4138 27.7255 91.1452L26.6396 90.8582L27.015 89.5143L29.5676 90.3346L28.3558 94.8106L27.1811 94.4923L27.4457 93.546H27.4122C26.8717 94.3194 26.2118 94.4005 25.634 94.2901C23.0814 93.6004 23.3478 91.9341 23.9571 89.7081" fill="#0060AF"/>
<path d="M33.7814 92.2863L33.0127 95.9278L31.2822 95.5541L33.1263 87.0508L36.0764 87.7165C37.8029 88.0885 38.3244 88.8565 38.0797 90.4367C37.9405 91.3438 37.4926 92.3214 36.3992 92.2424L36.3877 92.2276C37.3121 92.551 37.3902 93.0161 37.229 93.8213C37.1593 94.1636 36.6787 96.2421 37.0103 96.5776L37.0218 96.8325L35.231 96.366C35.1567 95.79 35.4095 94.754 35.5099 94.1808C35.6113 93.6734 35.7725 92.9581 35.2567 92.689C34.8528 92.4747 34.7031 92.4851 34.2465 92.3801L33.7814 92.2863ZM34.0764 90.9691L35.2415 91.283C35.9493 91.385 36.3427 91.0187 36.482 90.165C36.6081 89.3818 36.4448 89.0759 35.8097 88.924L34.5608 88.6715" fill="#0060AF"/>
<path d="M44.8802 88.9509L46.5915 89.149L45.8543 95.1266C45.4961 97.0217 44.7626 97.8505 42.6751 97.5912C40.5511 97.3232 40.0472 96.357 40.176 94.4467L40.9179 88.4739L42.6427 88.6714L41.9025 94.5105C41.8244 95.1448 41.677 96.0843 42.8069 96.1977C43.8088 96.274 44.0359 95.611 44.1488 94.7869" fill="#0060AF"/>
<path d="M48.4785 97.9184L48.9933 89.3706L52.2814 89.5127C53.8348 89.589 54.2418 90.8566 54.1931 92.0658C54.1481 92.8014 53.918 93.6224 53.2764 94.068C52.7502 94.4464 52.0738 94.5362 51.4465 94.5059L50.375 94.4464L50.1611 98.0288L48.4785 97.9184ZM50.4237 93.1427L51.2947 93.1913C52.0025 93.217 52.4713 92.9378 52.5325 91.9001C52.5666 90.9032 52.1894 90.7344 51.2728 90.6943L50.5822 90.6706" fill="#0060AF"/>
<path d="M280.378 17.8712L267.31 41.5605C262.378 37.5601 256.355 34.6161 248.67 34.6161C230.484 34.6161 223.097 48.1551 223.097 57.692C223.097 64.7711 227.739 75.2161 243.92 75.2161C250.711 75.2161 260.367 70.4968 263.146 68.3498L250.222 95.8331C244.061 97.0609 242.037 97.8218 236.822 97.9832C207.86 98.8464 196.157 81.0772 196.166 62.9198C196.185 38.9165 217.553 9.72485 252.975 9.72485C255.146 9.72485 257.8 10.4746 260.07 11.3053L262.364 8.37524" fill="#0060AF"/>
<path d="M334.299 9.11816L338 95.2189H310.46L310.443 80.4522H291.665L285.484 95.2189H255.617L286.842 33.7356L279.801 33.6898L293.179 9.11816H334.299ZM310.265 35.4583L299.648 60.5019H310.585" fill="#0060AF"/>
<path d="M178.78 9.11814C192.418 9.19443 200.125 16.5882 200.125 27.2688C200.125 37.1148 191.997 45.8307 183.075 50.3374C192.261 53.7098 193.055 61.9886 193.055 67.846C193.055 81.9966 178.839 95.219 160.359 95.219H120.057L135.778 34.592L129.32 34.5549L142.521 9.11814C142.521 9.11814 167.69 9.04184 178.78 9.11814ZM165.4 44.027C168.221 44.027 173.202 43.3134 174.448 37.8608C175.812 31.9415 171.138 31.7822 168.895 31.7822L160.883 31.7471L158.089 44.0274L165.4 44.027ZM154.072 59.2418L150.383 73.3924H159.817C163.529 73.3924 168.588 71.5526 169.827 66.9477C171.052 62.3293 167.516 59.2418 163.817 59.2418" fill="#0060AF"/>
</svg>
