<svg width="423" height="226" viewBox="0 0 423 226" fill="none" xmlns="http://www.w3.org/2000/svg">
<path fill-rule="evenodd" clip-rule="evenodd" d="M0 43.9104L35.6854 88.9841L0 118.593V43.9104Z" fill="#F15A23"/>
<path fill-rule="evenodd" clip-rule="evenodd" d="M14.3623 118.593L41.2138 96.1011L59.7729 118.593H14.3623Z" fill="#F15A23"/>
<path fill-rule="evenodd" clip-rule="evenodd" d="M0 19.7924L9.31256 31.5876L47.6023 79.4953L60.0096 69.6024C60.0096 69.6024 49.7093 57.4602 42.7931 43.9108C29.2712 17.4201 38.8444 0.927002 38.8444 0.927002H0V19.7924Z" fill="#F15A23"/>
<path fill-rule="evenodd" clip-rule="evenodd" d="M53.0596 86.8908L65.6956 76.4402C65.6956 76.4402 77.7638 92.3468 91.7573 96.1011C110.095 101.021 118.214 88.9842 118.214 88.9842V118.593H77.9367L87.0188 110.73C87.0188 110.73 82.2803 113.893 70.6914 105.856C63.8514 101.112 53.0596 86.8908 53.0596 86.8908Z" fill="#F15A23"/>
<path fill-rule="evenodd" clip-rule="evenodd" d="M54.2219 0.840576C54.2219 0.840576 50.1908 6.33899 53.0602 19.7923C56.1272 34.172 68.3246 49.3914 68.2962 49.0507C68.2962 49.0507 69.0804 33.9385 77.9373 25.0702C96.8159 6.16726 118.215 17.42 118.215 17.42V0.92685L54.2219 0.840576Z" fill="#F15A23"/>
<path fill-rule="evenodd" clip-rule="evenodd" d="M118.214 37.3475C118.214 37.3475 106.275 27.1082 95.8955 27.1082C82.6177 27.1082 75.3701 38.5862 75.3701 46.9122C75.3701 59.0397 81.1837 65.7784 87.0189 71.6211C95.4045 80.0175 105.606 89.0732 118.214 81.7846C118.214 67.9901 118.214 37.3475 118.214 37.3475Z" fill="#F15A23"/>
<path fill-rule="evenodd" clip-rule="evenodd" d="M254.18 2.07397H282.352C282.352 2.07397 307.31 39.9118 319.575 55.5448C331.841 71.1778 345.043 88.9842 345.043 88.9842C345.043 88.9842 345.043 37.3474 345.043 10.5477C345.043 7.1601 336.16 2.07397 336.16 2.07397H368.647C368.647 2.07397 357.987 6.45921 357.987 10.5477C357.987 43.9105 357.987 124.654 357.987 124.654C357.987 124.654 347.759 118.975 336.16 105.48C323.127 90.3166 276.769 29.0996 276.769 29.0996C276.769 29.0996 276.769 86.8908 276.769 108.39C276.769 112.45 285.652 118.593 285.652 118.593H254.18C254.18 118.593 262.809 112.401 262.809 108.39C262.809 79.495 262.809 37.3474 262.809 10.5477C262.809 6.94692 254.18 2.07397 254.18 2.07397Z" fill="#005E6A"/>
<path fill-rule="evenodd" clip-rule="evenodd" d="M386.843 2.07397H423C423 2.07397 413.292 6.67885 413.292 10.5477C413.292 37.3474 413.292 81.7845 413.292 108.39C413.292 112.618 423 118.593 423 118.593H386.843C386.843 118.593 395.882 112.481 395.882 108.39C395.882 76.4401 395.882 37.3474 395.882 10.5477C395.882 6.82812 386.843 2.07397 386.843 2.07397Z" fill="#005E6A"/>
<path fill-rule="evenodd" clip-rule="evenodd" d="M147.8 2.07397C147.8 2.07397 157.174 6.75409 157.174 10.5477C157.174 37.3474 157.174 76.4401 157.174 108.39C157.174 112.549 147.8 118.593 147.8 118.593C147.8 118.593 194.631 118.593 201.367 118.593C204.715 118.593 242.212 112.453 242.212 83.5076C242.212 54.5618 213.085 51.8514 213.085 51.8514C213.085 51.8514 230.829 46.9121 230.829 27.1081C230.829 5.76145 204.715 2.07397 201.367 2.07397C194.409 2.07397 147.8 2.07397 147.8 2.07397ZM176.257 49.9332V13.5058C176.257 13.5058 191.784 13.5058 198.019 13.5058C201.367 13.5058 213.085 17.4198 213.085 31.9413C213.085 43.9105 201.367 49.9332 198.019 49.9332C190.429 49.9332 176.257 49.9332 176.257 49.9332ZM176.257 59.4872C176.257 59.4872 198.019 59.4872 201.367 59.4872C204.715 59.4872 224.468 64.6246 224.468 81.7845C224.468 99.2797 204.715 105.48 201.367 105.48C198.019 105.48 176.257 105.48 176.257 105.48V59.4872Z" fill="#005E6A"/>
<path fill-rule="evenodd" clip-rule="evenodd" d="M384.668 176.846V206.011H389.827H394.985L395.076 192.865C395.164 180.007 395.18 179.684 395.813 178.116C397.183 174.718 399.93 172.725 403.602 172.462C406.554 172.251 408.441 172.897 410.031 174.664C412.261 177.144 412.265 177.181 412.265 192.539V206.011H417.602H422.939L422.821 191.285C422.734 180.6 422.601 176.165 422.333 175.122C421.047 170.1 417.898 166.903 413.128 165.777C410.943 165.261 406.208 165.321 403.929 165.894C401.434 166.522 398.295 168.087 396.678 169.509C395.953 170.147 395.283 170.668 395.189 170.668C395.094 170.668 395.017 165.496 395.017 159.175V147.682H389.843H384.668V176.846ZM324.049 149.01C321.884 150.088 321.031 151.48 320.896 154.15C320.782 156.411 321.147 157.49 322.536 158.986C324.915 161.549 329.365 161.527 331.542 158.94C334.343 155.612 333.53 151.009 329.796 149.059C327.784 148.009 326.089 147.994 324.049 149.01ZM179.281 149.706C169.772 151.199 164.05 157.944 165.602 165.829C166.533 170.558 169.065 173.458 178.274 180.338C185.183 185.5 187.397 188.519 187.099 192.371C186.76 196.759 183.455 199.402 178.306 199.402C175.015 199.402 172.009 198.352 168.495 195.975C166.98 194.951 167.23 194.772 164.808 198.604L163.042 201.397L164.366 202.407C169.372 206.228 178.93 207.914 185.595 206.153C194.226 203.872 199.518 197.124 198.426 189.789C197.971 186.732 197.121 184.722 195.209 182.186C193.128 179.426 190.994 177.416 185.531 173.07C178.138 167.189 176.588 165.211 176.893 162.042C177.297 157.835 182.256 155.798 187.813 157.556C189.123 157.97 190.833 158.688 191.614 159.151L193.033 159.993L195.03 157.111L197.027 154.229L196.198 153.538C194.926 152.477 190.993 150.664 188.815 150.134C186.437 149.556 181.613 149.339 179.281 149.706ZM261.492 165.527C257.433 165.954 253.865 167.334 250.503 169.776L249.293 170.655L250.912 173.033C251.802 174.34 252.563 175.453 252.603 175.507C252.643 175.561 253.486 175.054 254.477 174.382C259.441 171.012 264.981 170.707 268.166 173.628C269.505 174.856 270.794 177.166 270.354 177.549C270.221 177.665 267.589 178.502 264.506 179.409C255.86 181.952 252.757 183.366 250.045 186.001C247.009 188.95 245.818 193.101 246.687 197.711C247.352 201.241 249.718 204.284 253.007 205.838C254.659 206.619 255.175 206.722 257.463 206.725C259.305 206.728 260.415 206.579 261.319 206.21C262.891 205.566 266.081 203.524 268.458 201.639C269.447 200.856 270.259 200.322 270.264 200.455C270.269 200.587 270.395 201.635 270.544 202.784C270.992 206.231 270.56 206.011 276.877 206.011C279.876 206.011 282.327 205.914 282.325 205.795C282.323 205.676 282.041 204.739 281.698 203.712C281.109 201.951 281.062 201.116 280.872 189.058C280.668 176.146 280.586 175.175 279.471 172.577C277.303 167.52 269.948 164.636 261.492 165.527ZM308.498 165.561C307.48 165.784 306.854 166.212 305.479 167.624C304.526 168.603 303.163 170.273 302.452 171.334L301.158 173.264L301.077 169.811L300.997 166.358H295.687H290.378V186.184V206.011H295.696H301.014L301.019 194.876C301.025 183.089 301.19 181.185 302.419 178.778C304.232 175.227 307.358 174.008 311.279 175.323L313.351 176.018L315.267 172.462L317.184 168.906L316.36 168.047C315.341 166.984 312.47 165.59 310.932 165.412C310.3 165.34 309.204 165.406 308.498 165.561ZM355.528 165.52C351.712 165.929 348.413 167.162 345.299 169.342C344.595 169.834 343.892 170.324 343.738 170.43C343.481 170.606 346.182 175.076 346.762 175.434C346.896 175.517 347.491 175.195 348.085 174.719C350.596 172.709 355.51 171.231 358.295 171.649C360.98 172.051 364.184 174.795 364.339 176.825L364.402 177.653L357.997 179.575C347.933 182.595 343.872 185.003 341.844 189.156C339.474 194.007 340.476 200.407 344.142 203.834C346.828 206.345 350.722 207.418 354.159 206.594C355.922 206.171 359.517 204.068 362.253 201.858C363.339 200.981 364.28 200.264 364.345 200.264C364.409 200.264 364.535 201.201 364.624 202.347C364.712 203.493 364.922 204.786 365.089 205.22L365.393 206.011H370.991H376.588L376.044 204.429C375.098 201.681 374.894 198.78 374.889 187.96C374.884 176.23 374.726 174.781 373.132 171.79C372.097 169.85 370.992 168.821 368.541 167.515C365.328 165.804 360.202 165.017 355.528 165.52ZM207.501 166.463C203.008 167.297 202.683 167.399 202.824 167.936C202.908 168.254 206.267 176.389 210.288 186.014L217.6 203.516L216.732 205.984C215.467 209.586 214.096 212.43 212.65 214.455C210.513 217.449 208.346 218.604 204.383 218.861L201.837 219.026V222.472V225.918L205.646 225.757C211.13 225.525 213.616 224.665 216.395 222.038C218.228 220.305 219.774 218.331 221.409 215.636C222.491 213.852 242.847 168.546 243.02 167.536C243.072 167.234 242.012 166.93 238.777 166.32C236.406 165.873 234.442 165.505 234.413 165.502C234.127 165.471 226.41 186.026 224.518 191.859C223.993 193.479 223.493 194.8 223.408 194.796C223.323 194.791 222.43 192.237 221.423 189.121C219.72 183.846 216.008 173.352 213.907 167.867C213.407 166.563 212.848 165.512 212.664 165.532C212.48 165.552 210.157 165.971 207.501 166.463ZM321.712 186.184V206.011H327.031H332.349V186.184V166.358H327.031H321.712V186.184ZM270.47 186.4C270.147 193.604 267.138 198.665 262.557 199.71C259.501 200.407 256.744 197.625 256.744 193.844C256.744 190.89 258.106 188.332 260.582 186.639C261.903 185.736 269.104 183.038 270.223 183.028C270.549 183.024 270.594 183.639 270.47 186.4ZM364.681 183.848C364.781 184.301 364.731 185.95 364.57 187.511C364.092 192.159 362.602 195.639 360.144 197.847C355.851 201.705 350.904 199.536 350.91 193.799C350.914 190.338 352.693 187.548 355.965 185.872C357.125 185.278 363.404 183.119 364.163 183.053C364.348 183.037 364.581 183.395 364.681 183.848Z" fill="#33A643"/>
</svg>
