<svg width="423" height="124" viewBox="0 0 423 124" fill="none" xmlns="http://www.w3.org/2000/svg">
<path fill-rule="evenodd" clip-rule="evenodd" d="M0.279297 42.9929L35.9411 87.9859L0.279297 117.541V42.9929Z" fill="#F15A23"/>
<path fill-rule="evenodd" clip-rule="evenodd" d="M14.6318 117.541L41.4656 95.0901L60.0125 117.541H14.6318Z" fill="#F15A23"/>
<path fill-rule="evenodd" clip-rule="evenodd" d="M0.279297 18.9179L9.58571 30.6919L47.8502 78.5139L60.2493 68.6387C60.2493 68.6387 49.9558 56.5182 43.0442 42.9931C29.5311 16.5498 39.098 0.0861816 39.098 0.0861816H0.279297V18.9179Z" fill="#F15A23"/>
<path fill-rule="evenodd" clip-rule="evenodd" d="M53.3037 85.8963L65.9314 75.4644C65.9314 75.4644 77.9917 91.3425 91.9759 95.0901C110.301 100.001 118.415 87.986 118.415 87.986V117.542H78.1644L87.2405 109.693C87.2405 109.693 82.5052 112.851 70.9239 104.827C64.0884 100.092 53.3037 85.8963 53.3037 85.8963Z" fill="#F15A23"/>
<path fill-rule="evenodd" clip-rule="evenodd" d="M54.4656 0C54.4656 0 50.4372 5.48857 53.3046 18.9178C56.3696 33.2718 68.5589 48.4639 68.5306 48.1238C68.5306 48.1238 69.3143 33.0387 78.1653 24.1863C97.0315 5.31715 118.416 16.5497 118.416 16.5497V0.086119L54.4656 0Z" fill="#F15A23"/>
<path fill-rule="evenodd" clip-rule="evenodd" d="M118.415 36.4417C118.415 36.4417 106.484 26.2207 96.1115 26.2207C82.8424 26.2207 75.5996 37.6782 75.5996 45.9893C75.5996 58.0951 81.4094 64.8217 87.2407 70.654C95.6207 79.0353 105.816 88.0748 118.415 80.7993C118.415 67.0295 118.415 36.4417 118.415 36.4417Z" fill="#F15A23"/>
<path fill-rule="evenodd" clip-rule="evenodd" d="M254.291 1.23145H282.445C282.445 1.23145 307.386 39.0015 319.643 54.6065C331.901 70.2115 345.094 87.9861 345.094 87.9861C345.094 87.9861 345.094 36.4417 345.094 9.69002C345.094 6.30847 336.217 1.23145 336.217 1.23145H368.683C368.683 1.23145 358.03 5.60883 358.03 9.69002C358.03 42.9931 358.03 123.592 358.03 123.592C358.03 123.592 347.808 117.923 336.217 104.452C323.193 89.3161 276.865 28.2087 276.865 28.2087C276.865 28.2087 276.865 85.8964 276.865 107.357C276.865 111.41 285.742 117.542 285.742 117.542H254.291C254.291 117.542 262.915 111.361 262.915 107.357C262.915 78.5139 262.915 36.4417 262.915 9.69002C262.915 6.09567 254.291 1.23145 254.291 1.23145Z" fill="#005E6A"/>
<path fill-rule="evenodd" clip-rule="evenodd" d="M386.866 1.23145H423C423 1.23145 413.297 5.82808 413.297 9.69002C413.297 36.4417 413.297 80.7993 413.297 107.357C413.297 111.577 423 117.542 423 117.542H386.866C386.866 117.542 395.9 111.441 395.9 107.357C395.9 75.4645 395.9 36.4417 395.9 9.69002C395.9 5.97708 386.866 1.23145 386.866 1.23145Z" fill="#005E6A"/>
<path fill-rule="evenodd" clip-rule="evenodd" d="M147.981 1.23145C147.981 1.23145 157.35 5.90318 157.35 9.69002C157.35 36.4417 157.35 75.4645 157.35 107.357C157.35 111.509 147.981 117.542 147.981 117.542C147.981 117.542 194.782 117.542 201.513 117.542C204.859 117.542 242.331 111.413 242.331 82.5193C242.331 53.6253 213.223 50.9198 213.223 50.9198C213.223 50.9198 230.956 45.9893 230.956 26.2207C230.956 4.91232 204.859 1.23145 201.513 1.23145C194.56 1.23145 147.981 1.23145 147.981 1.23145ZM176.42 49.005V12.6428C176.42 12.6428 191.937 12.6428 198.167 12.6428C201.513 12.6428 213.223 16.5498 213.223 31.0453C213.223 42.9931 201.513 49.005 198.167 49.005C190.582 49.005 176.42 49.005 176.42 49.005ZM176.42 58.5419C176.42 58.5419 198.167 58.5419 201.513 58.5419C204.859 58.5419 224.599 63.6701 224.599 80.7993C224.599 98.2632 204.859 104.452 201.513 104.452C198.167 104.452 176.42 104.452 176.42 104.452V58.5419Z" fill="#005E6A"/>
</svg>
