<svg width="574" height="134" viewBox="0 0 574 134" fill="none" xmlns="http://www.w3.org/2000/svg">
<path d="M302.29 88.1995C302.29 88.1995 307.697 93.7911 316.053 93.7911C320.037 93.7911 324.025 91.7074 324.025 87.8169C324.025 79.0043 299.349 80.8009 299.349 65.1636C299.349 56.4432 307.133 51.5143 316.716 51.5143C327.254 51.5143 332.189 56.8223 332.189 56.8223L328.489 63.7427C328.489 63.7427 324.214 59.4764 316.624 59.4764C312.636 59.4764 308.744 61.1843 308.744 65.3515C308.744 73.9797 333.421 72.0839 333.421 87.8169C333.421 95.7859 326.591 101.753 316.053 101.753C304.281 101.753 297.83 94.7406 297.83 94.7406L302.29 88.1995Z" fill="#F36F21"/>
<path d="M336.938 110.571C336.938 110.571 339.595 112.563 342.537 112.563C346.237 112.563 349.37 109.905 351.176 105.547L353.55 100.051L333.429 52.6539H343.771L355.828 84.0276C356.775 86.4972 357.627 89.8139 357.627 89.8139H357.822C357.822 89.8139 358.581 86.586 359.429 84.1232L371.106 52.6539H381.072L358.581 109.246C355.64 116.641 349.753 120.525 343.012 120.525C337.605 120.525 333.709 117.587 333.709 117.587L336.938 110.571Z" fill="#F36F21"/>
<path d="M410.218 70.6618H412.308V69.8078C412.308 61.9414 407.845 59.2839 401.774 59.2839C394.369 59.2839 388.39 63.9327 388.39 63.9327L384.587 57.2003C384.587 57.2003 391.523 51.5165 402.53 51.5165C414.678 51.5165 421.515 58.1499 421.515 70.2826V100.618H412.975V96.0681C412.975 93.8855 413.163 92.2767 413.163 92.2767H412.975C412.975 92.2767 409.079 101.755 397.594 101.755C389.338 101.755 381.27 96.7308 381.27 87.1564C381.27 71.3278 402.153 70.6618 410.218 70.6618ZM399.592 94.3637C407.373 94.3637 412.404 86.2103 412.404 79.0987V77.5821H410.027C403.101 77.5821 390.569 78.0569 390.569 86.6851C390.569 90.5688 393.61 94.3637 399.592 94.3637Z" fill="#F36F21"/>
<path d="M431.479 52.9347H440.398V61.2794C440.398 63.2673 440.21 64.8762 440.21 64.8762H440.398C442.58 57.8636 448.179 52.3677 455.584 52.3677C456.819 52.3677 457.958 52.5555 457.958 52.5555V61.6585C457.958 61.6585 456.723 61.3716 455.3 61.3716C449.417 61.3716 444.007 65.5422 441.825 72.6504C440.966 75.4035 440.682 78.3411 440.682 81.2786V100.902H431.479V52.9347Z" fill="#F36F21"/>
<path d="M463.177 33.5386H472.48V42.9251H463.177V33.5386ZM463.274 52.496H472.481V100.46H463.274V52.496Z" fill="#F36F21"/>
<path d="M508.27 70.6618H510.36V69.8078C510.36 61.9414 505.897 59.2839 499.826 59.2839C492.421 59.2839 486.439 63.9327 486.439 63.9327L482.643 57.2003C482.643 57.2003 489.572 51.5165 500.582 51.5165C512.734 51.5165 519.564 58.1499 519.564 70.2826V100.618H511.027V96.0681C511.027 93.8855 511.212 92.2767 511.212 92.2767H511.027C511.027 92.2767 507.131 101.755 495.646 101.755C487.39 101.755 479.318 96.7308 479.318 87.1564C479.318 71.3278 500.206 70.6618 508.27 70.6618ZM497.64 94.3637C505.425 94.3637 510.456 86.2103 510.456 79.0987V77.5821H508.079C501.153 77.5821 488.621 78.0569 488.621 86.6851C488.621 90.5688 491.662 94.3637 497.64 94.3637Z" fill="#F36F21"/>
<path d="M529.536 33.5385H538.74V58.0875C538.74 60.3659 538.548 62.0703 538.548 62.0703H538.74C540.83 57.4249 546.904 51.3585 556.487 51.3585C567.784 51.3585 573.004 57.5171 573.004 69.7523V100.46H563.8V71.836C563.8 65.1069 562.374 59.7954 554.688 59.7954C547.472 59.7954 541.493 64.7244 539.499 71.6481C538.928 73.5404 538.74 75.7197 538.74 77.9946V100.46H529.536V33.5385Z" fill="#F36F21"/>
<path d="M153.72 33.6475H184.43C196.862 33.6475 206.141 39.0922 206.141 50.5691C206.141 58.9787 201.842 63.6549 194.369 66.1382V66.326C203.278 68.1432 207.865 72.9218 207.865 81.0479C207.865 97.0063 193.805 100.347 181.841 100.347H153.72V33.6475ZM171.515 60.0274H176.488C182.316 60.0274 188.346 58.5996 188.346 52.9431C188.346 46.8391 182.603 46.2653 176.676 46.2653H171.515V60.0274ZM171.515 87.7394H176.772C183.281 87.7394 190.073 86.7761 190.073 79.9959C190.073 72.7408 183.086 72.0611 176.967 72.0611H171.515V87.7394Z" fill="#00529C"/>
<path d="M211.806 33.6475H243.569C255.43 33.6475 265.096 39.0034 265.096 50.4735C265.096 59.3545 260.886 65.2774 252.284 67.2893V67.4771C258.009 69.0006 258.389 74.0729 261.748 82.1888L268.249 100.347H249.702L245.864 88.3098C242.228 76.8431 239.937 73.9671 233.336 73.9671H229.598V100.347H211.806V33.6475ZM229.598 61.3595H234.29C240.026 61.3595 247.304 61.1648 247.304 53.6194C247.304 47.413 241.079 46.2653 234.29 46.2653H229.598V61.3595Z" fill="#00529C"/>
<path d="M273.156 33.6521H290.958V100.348H273.156V33.6521Z" fill="#00529C"/>
<path d="M113.592 -0.000976562H20.4699C9.16274 -0.000976562 0 9.3821 0 20.9478V21.1699V113.064C0 124.52 8.98489 133.832 20.1519 133.999H113.544C124.855 133.999 134.024 124.63 134.024 113.064L134.069 20.9478C134.069 9.3821 124.902 -0.000976562 113.592 -0.000976562ZM31.5377 123.27L26.4587 123.332C20.2989 123.332 15.3157 118.273 15.3157 112.053L15.2917 111.165V26.0988L15.3191 21.5148C15.5517 15.4895 20.1382 10.6425 26.1372 10.6425H36.4697C45.8308 10.6425 53.4236 18.772 53.4236 28.36C53.4236 33.1011 51.5596 37.4083 48.5464 40.5372L22.2006 67.2381L46.8979 92.361C50.0684 95.6469 52.0042 99.9474 52.0042 104.661C52.0042 114.939 42.8449 123.27 31.5377 123.27ZM107.473 123.185L61.4166 123.157C61.4166 123.157 66.7453 111.66 66.7453 104.552C66.7453 95.8792 63.8518 88.1323 59.2893 83.0121L43.5461 66.9683L59.6244 50.3848C64.4059 45.8897 67.5798 37.9173 67.5798 28.828C67.5798 21.6412 65.5927 15.2709 62.3914 10.6425H73.5447C82.9126 10.6425 90.4952 18.772 90.4952 28.36C90.4952 33.1011 88.638 37.4083 85.6248 40.5372L59.7783 66.9614L113.469 121.644C111.765 122.717 109.624 123.185 107.473 123.185ZM118.712 106.109L80.2414 66.9444L98.5703 48.3456C102.285 43.6933 104.669 36.6774 104.669 28.828C104.669 21.5934 102.647 15.0659 99.4083 10.4342L107.613 10.6869C113.759 10.6869 118.743 15.732 118.743 21.9521L118.712 106.109Z" fill="#00529C"/>
</svg>
