<svg width="574" height="135" viewBox="0 0 574 135" fill="none" xmlns="http://www.w3.org/2000/svg">
<path d="M155.162 33.8816H186.063C198.579 33.8816 207.908 39.3655 207.908 50.9194C207.908 59.39 203.579 64.106 196.07 66.609V66.8024C205.024 68.6342 209.643 73.4469 209.643 81.6273C209.643 97.7038 195.49 101.072 183.458 101.072H155.162V33.8816ZM173.065 60.4538H178.071C183.942 60.4538 190.011 59.0088 190.011 53.3258C190.011 47.1705 184.232 46.5903 178.258 46.5903H173.065V60.4538ZM173.065 88.3685H178.361C184.909 88.3685 191.741 87.4014 191.741 80.5692C191.741 73.2535 184.715 72.5822 178.549 72.5822H173.065V88.3685Z" fill="#00529C"/>
<path d="M233.141 33.8816H255.088L280.984 101.072H261.346L256.34 86.7302H231.122L225.825 101.072H207.633L233.141 33.8816ZM244.115 47.7451H243.921L235.257 74.0272H252.108L244.115 47.7451Z" fill="#00529C"/>
<path d="M283.474 33.8816H306.286L329.006 79.5111H329.194L328.91 33.8816H345.276V101.072H323.033L299.55 55.1519H299.362L299.931 101.072H283.474V33.8816Z" fill="#00529C"/>
<path d="M351.347 33.8816H369.249V61.3185H369.443L389.655 33.8816H411.215L386.384 65.1641L413.144 101.072H390.326L369.443 70.557H369.249V101.072H351.347V33.8816Z" fill="#00529C"/>
<path d="M435.345 33.8813H466.246C478.756 33.8813 488.097 39.3653 488.097 50.9192C488.097 59.3897 483.767 64.1057 476.258 66.6088V66.8022C485.212 68.634 489.826 73.4467 489.826 81.6271C489.826 97.7035 475.678 101.071 463.646 101.071H435.345V33.8813ZM453.247 60.4535H458.253C464.13 60.4535 470.188 59.0086 470.188 53.3255C470.188 47.1703 464.42 46.59 458.447 46.59H453.247V60.4535ZM453.247 88.3683H458.543C465.086 88.3683 471.923 87.4012 471.923 80.569C471.923 73.2532 464.898 72.582 458.737 72.582H453.247V88.3683Z" fill="#00529C"/>
<path d="M493.8 33.8816H525.759C537.694 33.8816 547.416 39.2745 547.416 50.8284C547.416 59.7768 543.184 65.7443 534.52 67.7638V67.9573C540.288 69.4989 540.675 74.6017 544.049 82.7822L550.591 101.072H531.92L528.069 88.9488C524.411 77.3949 522.096 74.4993 515.457 74.4993H511.702V101.072H493.8V33.8816ZM511.702 61.7963H516.418C522.198 61.7963 529.514 61.6029 529.514 53.997C529.514 47.7451 523.256 46.5903 516.418 46.5903H511.702V61.7963Z" fill="#00529C"/>
<path d="M555.531 33.8801H573.434V101.07H555.531V33.8801Z" fill="#00529C"/>
<path d="M114.299 0H20.599C9.22147 0 0 9.44904 0 21.1053V21.3272V113.9C0 125.443 9.05081 134.829 20.2804 135H114.247C125.625 135 134.852 125.557 134.852 113.9L134.892 21.1053C134.892 9.44904 125.676 0 114.299 0ZM31.7319 124.186L26.6234 124.243C20.434 124.243 15.4165 119.157 15.4165 112.882L15.3881 111.989V26.2935L15.4222 21.6742C15.6555 15.6043 20.269 10.7233 26.3048 10.7233H36.6982C46.1188 10.7233 53.7531 18.9151 53.7531 28.569C53.7531 33.3475 51.8815 37.6824 48.8494 40.8339L22.3341 67.7418L47.1883 93.0511C50.391 96.3562 52.3252 100.691 52.3252 105.441C52.3252 115.795 43.1094 124.186 31.7319 124.186ZM108.138 124.1L61.8027 124.083C61.8027 124.083 67.1558 112.507 67.1558 105.339C67.1558 96.5952 64.2375 88.7902 59.6637 83.6248L43.8148 67.4687L59.988 50.7551C64.8064 46.2326 68.0034 38.2 68.0034 29.0468C68.0034 21.7993 66.001 15.3824 62.7755 10.7233H73.9994C83.42 10.7233 91.06 18.9151 91.06 28.569C91.06 33.3475 89.1884 37.6824 86.1563 40.8339L60.1473 67.463L114.168 122.547C112.455 123.622 110.299 124.1 108.138 124.1ZM119.453 106.903L80.7406 67.446L99.1778 48.7072C102.927 44.0139 105.31 36.9485 105.31 29.0468C105.31 21.7538 103.279 15.1719 100.025 10.5128L108.274 10.7631C114.464 10.7631 119.481 15.8489 119.481 22.1236L119.453 106.903Z" fill="#00529C"/>
</svg>
