<svg width="302" height="187" viewBox="0 0 302 187" fill="none" xmlns="http://www.w3.org/2000/svg">
<path d="M218.891 51.8281V185.52H250.328V85.3251C250.328 77.8421 246.335 55.2351 218.891 51.8281Z" fill="#0CA49D"/>
<path d="M51.7868 162.255C55.7848 162.255 59.0528 161.748 61.5918 160.734C64.1278 159.719 66.1128 158.407 67.5478 156.796C68.9788 155.185 69.9628 153.365 70.5008 151.336C71.0378 149.31 71.3058 147.251 71.3058 145.163C71.3058 142.777 70.9928 140.629 70.3648 138.718C69.7408 136.809 68.6648 135.2 67.1418 133.886C65.6218 132.574 63.6058 131.559 61.0988 130.843C58.5918 130.128 55.4278 129.769 51.6068 129.769H30.4788V162.255H51.7868ZM30.4788 77.3261V109.544H46.2368C49.5778 109.544 52.5938 109.306 55.2798 108.828C57.9638 108.35 60.2488 107.516 62.1278 106.321C64.0068 105.129 65.4418 103.489 66.4258 101.4C67.4098 99.3121 67.9038 96.6871 67.9038 93.5251C67.9038 90.4231 67.5148 87.8421 66.7398 85.7841C65.9628 83.7251 64.7688 82.0701 63.1578 80.8161C61.5468 79.5631 59.5008 78.6691 57.0258 78.1311C54.5488 77.5941 51.6068 77.3261 48.2068 77.3261H30.4788ZM48.2068 54.6841C57.2188 54.6841 64.8898 55.5211 71.2168 57.1901C77.5418 58.8621 82.7068 61.2171 86.7068 64.2601C90.7038 67.3031 93.6128 71.0031 95.4358 75.3571C97.2548 79.7131 98.1658 84.5751 98.1658 89.9451C98.1658 92.8681 97.7478 95.6881 96.9148 98.4021C96.0778 101.118 94.7628 103.652 92.9728 106.008C91.1818 108.366 88.8838 110.528 86.0788 112.498C83.2718 114.466 79.9018 116.167 75.9628 117.597C84.5558 119.686 90.9138 123.056 95.0318 127.711C99.1498 132.364 101.212 138.391 101.212 145.788C101.212 151.336 100.137 156.499 97.9868 161.271C95.8388 166.045 92.6878 170.206 88.5398 173.755C84.3928 177.305 79.2738 180.079 73.1848 182.078C67.0988 184.078 60.1438 185.076 52.3258 185.076H0.216797V54.6841H48.2068Z" fill="#0CA49D"/>
<path d="M192.177 81.174C191.281 82.607 190.343 83.68 189.356 84.396C188.372 85.112 187.104 85.47 185.552 85.47C184.179 85.47 182.702 85.037 181.12 84.172C179.539 83.307 177.747 82.338 175.749 81.264C173.749 80.19 171.465 79.2199 168.899 78.3549C166.334 77.4899 163.408 77.058 160.123 77.058C154.453 77.058 150.23 78.266 147.455 80.683C144.68 83.098 143.291 86.365 143.291 90.482C143.291 93.108 144.128 95.2849 145.798 97.0139C147.468 98.7449 149.664 100.237 152.381 101.49C155.096 102.742 158.201 103.892 161.692 104.935C165.183 105.98 168.749 107.143 172.39 108.425C176.031 109.709 179.6 111.215 183.09 112.944C186.582 114.675 189.687 116.882 192.402 119.567C195.118 122.252 197.311 125.518 198.982 129.366C200.652 133.214 201.489 137.854 201.489 143.282C201.489 149.31 200.446 154.948 198.357 160.196C196.266 165.447 193.236 170.027 189.268 173.934C185.297 177.843 180.404 180.914 174.586 183.151C168.765 185.39 162.153 186.508 154.753 186.508C150.694 186.508 146.559 186.09 142.353 185.256C138.144 184.42 134.071 183.241 130.132 181.719C126.191 180.198 122.49 178.394 119.029 176.306C115.564 174.218 112.551 171.891 109.985 169.324L118.938 155.185C119.656 154.17 120.594 153.321 121.758 152.635C122.922 151.949 124.19 151.606 125.566 151.606C127.354 151.606 129.158 152.172 130.982 153.306C132.802 154.44 134.861 155.692 137.16 157.065C139.457 158.438 142.098 159.69 145.083 160.824C148.066 161.957 151.589 162.524 155.649 162.524C161.139 162.524 165.408 161.315 168.452 158.9C171.495 156.483 173.017 152.65 173.017 147.4C173.017 144.356 172.18 141.882 170.511 139.971C168.84 138.063 166.644 136.481 163.931 135.227C161.211 133.975 158.123 132.871 154.662 131.917C151.201 130.964 147.648 129.904 144.009 128.739C140.366 127.576 136.815 126.145 133.354 124.445C129.89 122.744 126.801 120.507 124.089 117.733C121.37 114.958 119.176 111.498 117.506 107.351C115.836 103.205 114.999 98.089 114.999 92.003C114.999 87.112 115.983 82.338 117.954 77.683C119.925 73.03 122.818 68.8839 126.638 65.2449C130.459 61.6069 135.146 58.697 140.695 56.518C146.246 54.341 152.603 53.252 159.767 53.252C163.765 53.252 167.66 53.566 171.452 54.193C175.24 54.818 178.838 55.7439 182.24 56.9669C185.644 58.1899 188.82 59.652 191.775 61.352C194.73 63.053 197.37 64.976 199.698 67.124L192.177 81.174Z" fill="#0CA49D"/>
<path d="M253.775 3.64211C253.706 2.54911 253.581 1.47311 253.417 0.412109C260.451 7.66911 270.496 11.9231 281.375 11.2361C286.578 10.9061 291.445 9.47412 295.776 7.19112C292.412 13.0591 290.667 19.9421 291.127 27.1961C291.695 36.1761 295.539 44.1641 301.413 50.0901C298.408 49.4851 295.278 49.2521 292.074 49.4561C279.345 50.2601 268.603 57.6281 262.914 68.0491C260.667 52.6451 248.715 40.6701 233.769 38.0351C246.397 31.8661 254.717 18.5331 253.775 3.64211Z" fill="#F9AD3C"/>
</svg>
