<svg width="655" height="187" viewBox="0 0 655 187" fill="none" xmlns="http://www.w3.org/2000/svg">
<path d="M218.891 52.2017V185.894H250.328V85.6987C250.328 78.2157 246.335 55.6087 218.891 52.2017Z" fill="#0CA49D"/>
<path d="M51.7868 162.629C55.7848 162.629 59.0528 162.122 61.5918 161.108C64.1278 160.093 66.1128 158.781 67.5478 157.17C68.9788 155.559 69.9628 153.739 70.5008 151.71C71.0378 149.684 71.3058 147.625 71.3058 145.537C71.3058 143.151 70.9928 141.003 70.3648 139.092C69.7408 137.183 68.6648 135.574 67.1418 134.26C65.6218 132.948 63.6058 131.933 61.0988 131.217C58.5918 130.502 55.4278 130.143 51.6068 130.143H30.4788V162.629H51.7868ZM30.4788 77.6996V109.918H46.2368C49.5778 109.918 52.5938 109.68 55.2798 109.202C57.9638 108.724 60.2488 107.89 62.1278 106.695C64.0068 105.503 65.4418 103.863 66.4258 101.774C67.4098 99.6856 67.9038 97.0606 67.9038 93.8986C67.9038 90.7966 67.5148 88.2156 66.7398 86.1576C65.9628 84.0986 64.7688 82.4436 63.1578 81.1896C61.5468 79.9366 59.5008 79.0426 57.0258 78.5046C54.5488 77.9676 51.6068 77.6996 48.2068 77.6996H30.4788ZM48.2068 55.0576C57.2188 55.0576 64.8898 55.8946 71.2168 57.5636C77.5418 59.2356 82.7068 61.5906 86.7068 64.6336C90.7038 67.6766 93.6128 71.3766 95.4358 75.7306C97.2548 80.0866 98.1658 84.9486 98.1658 90.3186C98.1658 93.2416 97.7478 96.0616 96.9148 98.7756C96.0778 101.492 94.7628 104.026 92.9728 106.382C91.1818 108.74 88.8838 110.902 86.0788 112.872C83.2718 114.84 79.9018 116.541 75.9628 117.971C84.5558 120.06 90.9138 123.43 95.0318 128.085C99.1498 132.738 101.212 138.765 101.212 146.162C101.212 151.71 100.137 156.873 97.9868 161.645C95.8388 166.419 92.6878 170.58 88.5398 174.129C84.3928 177.679 79.2738 180.453 73.1848 182.452C67.0988 184.452 60.1438 185.45 52.3258 185.45H0.216797V55.0576H48.2068Z" fill="#0CA49D"/>
<path d="M192.177 81.5475C191.281 82.9805 190.343 84.0535 189.356 84.7695C188.372 85.4855 187.104 85.8435 185.552 85.8435C184.179 85.8435 182.702 85.4105 181.12 84.5455C179.539 83.6805 177.747 82.7115 175.749 81.6375C173.749 80.5635 171.465 79.5935 168.899 78.7285C166.334 77.8635 163.408 77.4315 160.123 77.4315C154.453 77.4315 150.23 78.6395 147.455 81.0565C144.68 83.4715 143.291 86.7385 143.291 90.8555C143.291 93.4815 144.128 95.6585 145.798 97.3875C147.468 99.1185 149.664 100.61 152.381 101.863C155.096 103.115 158.201 104.266 161.692 105.309C165.183 106.354 168.749 107.516 172.39 108.798C176.031 110.082 179.6 111.589 183.09 113.318C186.582 115.049 189.687 117.255 192.402 119.94C195.118 122.625 197.311 125.892 198.982 129.74C200.652 133.588 201.489 138.227 201.489 143.655C201.489 149.683 200.446 155.321 198.357 160.569C196.266 165.82 193.236 170.4 189.268 174.307C185.297 178.216 180.404 181.288 174.586 183.525C168.765 185.764 162.153 186.882 154.753 186.882C150.694 186.882 146.559 186.463 142.353 185.629C138.144 184.793 134.071 183.614 130.132 182.092C126.191 180.571 122.49 178.768 119.029 176.68C115.564 174.592 112.551 172.264 109.985 169.697L118.938 155.559C119.656 154.544 120.594 153.694 121.758 153.008C122.922 152.322 124.19 151.979 125.566 151.979C127.354 151.979 129.158 152.546 130.982 153.68C132.802 154.814 134.861 156.066 137.16 157.439C139.457 158.812 142.098 160.063 145.083 161.197C148.066 162.33 151.589 162.897 155.649 162.897C161.139 162.897 165.408 161.688 168.452 159.273C171.495 156.856 173.017 153.023 173.017 147.773C173.017 144.729 172.18 142.255 170.511 140.344C168.84 138.436 166.644 136.854 163.931 135.6C161.211 134.348 158.123 133.244 154.662 132.29C151.201 131.337 147.648 130.277 144.009 129.112C140.366 127.949 136.815 126.518 133.354 124.818C129.89 123.117 126.801 120.881 124.089 118.107C121.37 115.332 119.176 111.871 117.506 107.724C115.836 103.578 114.999 98.4625 114.999 92.3765C114.999 87.4855 115.983 82.7115 117.954 78.0565C119.925 73.4035 122.818 69.2575 126.638 65.6185C130.459 61.9805 135.146 59.0705 140.695 56.8915C146.246 54.7145 152.603 53.6255 159.767 53.6255C163.765 53.6255 167.66 53.9395 171.452 54.5665C175.24 55.1915 178.838 56.1175 182.24 57.3405C185.644 58.5635 188.82 60.0255 191.775 61.7255C194.73 63.4265 197.37 65.3495 199.698 67.4975L192.177 81.5475Z" fill="#0CA49D"/>
<path d="M253.775 4.01564C253.706 2.92264 253.581 1.84664 253.417 0.785645C260.451 8.04264 270.496 12.2966 281.375 11.6096C286.578 11.2796 291.445 9.84765 295.776 7.56465C292.412 13.4327 290.667 20.3156 291.127 27.5696C291.695 36.5496 295.539 44.5376 301.413 50.4636C298.408 49.8586 295.278 49.6257 292.074 49.8297C279.345 50.6337 268.603 58.0016 262.914 68.4226C260.667 53.0186 248.715 41.0436 233.769 38.4086C246.397 32.2396 254.717 18.9066 253.775 4.01564Z" fill="#F9AD3C"/>
<path d="M307.714 132.549C309.155 132.549 310.397 132.384 311.438 132.054C312.48 131.724 313.331 131.264 313.991 130.674C314.668 130.066 315.163 129.354 315.475 128.538C315.788 127.705 315.944 126.794 315.944 125.804C315.944 123.877 315.258 122.358 313.886 121.247C312.515 120.118 310.458 119.554 307.714 119.554H299.641V132.549H307.714ZM299.641 103.225V115.96H306.308C307.732 115.96 308.964 115.804 310.006 115.491C311.065 115.179 311.933 114.745 312.61 114.189C313.305 113.633 313.817 112.965 314.147 112.184C314.477 111.385 314.642 110.517 314.642 109.58C314.642 107.375 313.982 105.769 312.662 104.762C311.343 103.737 309.294 103.225 306.516 103.225H299.641ZM306.516 99.2407C308.808 99.2407 310.779 99.4657 312.428 99.9177C314.095 100.369 315.458 101.012 316.517 101.845C317.593 102.678 318.383 103.703 318.887 104.918C319.39 106.116 319.642 107.47 319.642 108.981C319.642 109.901 319.494 110.786 319.199 111.637C318.921 112.47 318.496 113.252 317.923 113.981C317.35 114.71 316.621 115.37 315.735 115.96C314.867 116.533 313.843 117.002 312.662 117.366C315.406 117.887 317.463 118.868 318.835 120.309C320.223 121.733 320.918 123.608 320.918 125.934C320.918 127.514 320.623 128.955 320.032 130.257C319.46 131.559 318.609 132.679 317.48 133.617C316.369 134.554 314.998 135.283 313.366 135.804C311.734 136.308 309.876 136.559 307.792 136.559H294.615V99.2407H306.516Z" fill="#0CA49D"/>
<path d="M347.597 122.705L341.737 107.522C341.564 107.071 341.381 106.55 341.19 105.96C340.999 105.352 340.817 104.71 340.644 104.033C340.279 105.439 339.906 106.611 339.524 107.548L333.664 122.705H347.597ZM358.118 136.559H354.212C353.76 136.559 353.396 136.447 353.118 136.221C352.84 135.995 352.632 135.709 352.493 135.361L349.003 126.351H332.258L328.768 135.361C328.664 135.674 328.464 135.952 328.169 136.195C327.874 136.438 327.509 136.559 327.075 136.559H323.169L338.091 99.2407H343.196L358.118 136.559Z" fill="#0CA49D"/>
<path d="M393.263 99.2407V136.559H390.737C390.337 136.559 389.999 136.49 389.721 136.351C389.461 136.212 389.2 135.978 388.94 135.648L367.351 107.522C367.385 107.956 367.411 108.382 367.429 108.798C367.446 109.215 367.455 109.606 367.455 109.97V136.559H363.028V99.2407H365.632C365.857 99.2407 366.048 99.2577 366.205 99.2927C366.361 99.3097 366.5 99.3537 366.621 99.4227C366.743 99.4747 366.864 99.5617 366.986 99.6827C367.108 99.7877 367.238 99.9267 367.377 100.1L388.966 128.2C388.931 127.748 388.896 127.314 388.862 126.898C388.844 126.464 388.836 126.056 388.836 125.674V99.2407H393.263Z" fill="#0CA49D"/>
<path d="M407.83 115.595H409.731C410.39 115.595 410.92 115.517 411.319 115.361C411.719 115.187 412.083 114.901 412.413 114.502L424.835 100.439C425.183 99.9868 425.547 99.6747 425.929 99.5007C426.311 99.3277 426.78 99.2407 427.336 99.2407H431.606L417.387 115.309C417.04 115.726 416.701 116.073 416.372 116.351C416.059 116.611 415.721 116.828 415.356 117.002C415.825 117.158 416.25 117.392 416.632 117.705C417.014 118 417.387 118.391 417.752 118.877L432.596 136.559H428.221C427.891 136.559 427.605 136.542 427.362 136.507C427.136 136.455 426.936 136.386 426.763 136.299C426.589 136.195 426.433 136.082 426.294 135.96C426.172 135.822 426.051 135.665 425.929 135.492L413.064 120.674C412.717 120.24 412.344 119.936 411.944 119.762C411.545 119.571 410.937 119.476 410.121 119.476H407.83V136.559H402.803V99.2407H407.83V115.595Z" fill="#0CA49D"/>
<path d="M469.705 105.074C469.549 105.335 469.375 105.534 469.184 105.673C469.011 105.795 468.794 105.856 468.533 105.856C468.238 105.856 467.891 105.708 467.491 105.413C467.092 105.118 466.589 104.796 465.981 104.449C465.391 104.085 464.67 103.755 463.819 103.46C462.986 103.164 461.97 103.017 460.773 103.017C459.644 103.017 458.646 103.173 457.778 103.486C456.927 103.781 456.206 104.189 455.616 104.71C455.043 105.23 454.609 105.847 454.314 106.559C454.019 107.253 453.871 108.008 453.871 108.824C453.871 109.866 454.123 110.734 454.626 111.429C455.147 112.106 455.824 112.687 456.658 113.173C457.509 113.66 458.463 114.085 459.522 114.449C460.599 114.797 461.693 115.161 462.804 115.543C463.932 115.925 465.026 116.359 466.085 116.845C467.162 117.314 468.117 117.913 468.95 118.642C469.801 119.371 470.478 120.266 470.981 121.325C471.502 122.384 471.762 123.686 471.762 125.231C471.762 126.863 471.485 128.399 470.929 129.84C470.374 131.264 469.558 132.505 468.481 133.565C467.422 134.624 466.111 135.457 464.549 136.065C463.003 136.672 461.241 136.976 459.262 136.976C456.831 136.976 454.626 136.542 452.647 135.674C450.668 134.789 448.975 133.599 447.569 132.106L449.027 129.71C449.166 129.519 449.331 129.363 449.522 129.241C449.73 129.103 449.956 129.033 450.199 129.033C450.425 129.033 450.677 129.129 450.954 129.32C451.25 129.493 451.58 129.719 451.944 129.997C452.309 130.275 452.725 130.578 453.194 130.908C453.663 131.238 454.192 131.542 454.783 131.82C455.39 132.097 456.076 132.332 456.84 132.523C457.604 132.696 458.463 132.783 459.418 132.783C460.616 132.783 461.684 132.618 462.622 132.288C463.559 131.959 464.349 131.498 464.991 130.908C465.651 130.301 466.155 129.58 466.502 128.747C466.849 127.913 467.023 126.984 467.023 125.96C467.023 124.832 466.762 123.912 466.241 123.2C465.738 122.47 465.07 121.863 464.236 121.377C463.403 120.891 462.448 120.483 461.371 120.153C460.295 119.806 459.201 119.458 458.09 119.111C456.979 118.746 455.885 118.33 454.809 117.861C453.732 117.392 452.777 116.785 451.944 116.038C451.111 115.292 450.434 114.363 449.913 113.252C449.409 112.123 449.158 110.734 449.158 109.085C449.158 107.765 449.409 106.489 449.913 105.257C450.434 104.024 451.18 102.93 452.152 101.975C453.142 101.02 454.349 100.256 455.772 99.6827C457.213 99.1107 458.863 98.8237 460.72 98.8237C462.804 98.8237 464.696 99.1538 466.398 99.8138C468.117 100.473 469.627 101.428 470.929 102.678L469.705 105.074Z" fill="#0CA49D"/>
<path d="M492.144 121.689V136.559H487.092V121.689L473.42 99.2407H477.847C478.298 99.2407 478.654 99.3537 478.915 99.5787C479.175 99.7877 479.401 100.065 479.592 100.413L488.134 114.918C488.446 115.526 488.733 116.099 488.993 116.637C489.254 117.158 489.479 117.687 489.67 118.226C489.861 117.687 490.078 117.158 490.321 116.637C490.565 116.099 490.834 115.526 491.129 114.918L499.645 100.413C499.801 100.118 500.018 99.8477 500.296 99.6047C500.574 99.3617 500.929 99.2407 501.363 99.2407H505.817L492.144 121.689Z" fill="#0CA49D"/>
<path d="M526.792 122.705L520.932 107.522C520.759 107.071 520.577 106.55 520.386 105.96C520.195 105.352 520.012 104.71 519.839 104.033C519.474 105.439 519.101 106.611 518.719 107.548L512.859 122.705H526.792ZM537.313 136.559H533.407C532.955 136.559 532.591 136.447 532.313 136.221C532.035 135.995 531.827 135.709 531.688 135.361L528.198 126.351H511.453L507.963 135.361C507.859 135.674 507.659 135.952 507.364 136.195C507.069 136.438 506.705 136.559 506.27 136.559H502.364L517.286 99.2407H522.391L537.313 136.559Z" fill="#0CA49D"/>
<path d="M552.562 117.314C554.02 117.314 555.305 117.141 556.416 116.793C557.544 116.429 558.482 115.925 559.228 115.283C559.992 114.623 560.565 113.842 560.947 112.939C561.329 112.036 561.52 111.038 561.52 109.944C561.52 107.722 560.791 106.046 559.333 104.918C557.874 103.789 555.687 103.225 552.77 103.225H547.249V117.314H552.562ZM569.802 136.559H565.322C564.402 136.559 563.725 136.203 563.291 135.492L553.603 122.158C553.308 121.741 552.987 121.446 552.64 121.273C552.31 121.082 551.789 120.986 551.077 120.986H547.249V136.559H542.223V99.2407H552.77C555.131 99.2407 557.171 99.4837 558.89 99.9697C560.609 100.439 562.024 101.124 563.135 102.027C564.263 102.93 565.097 104.024 565.635 105.309C566.173 106.576 566.442 108 566.442 109.58C566.442 110.899 566.234 112.132 565.817 113.278C565.4 114.423 564.793 115.456 563.994 116.377C563.213 117.279 562.249 118.052 561.103 118.694C559.975 119.337 558.69 119.823 557.249 120.153C557.892 120.517 558.447 121.047 558.916 121.741L569.802 136.559Z" fill="#0CA49D"/>
<path d="M579.93 136.559H574.878V99.2407H579.93V136.559Z" fill="#0CA49D"/>
<path d="M609.294 122.705L603.434 107.522C603.261 107.071 603.079 106.55 602.888 105.96C602.697 105.352 602.514 104.71 602.341 104.033C601.976 105.439 601.603 106.611 601.221 107.548L595.361 122.705H609.294ZM619.815 136.559H615.909C615.457 136.559 615.093 136.447 614.815 136.221C614.537 135.995 614.329 135.709 614.19 135.361L610.7 126.351H593.955L590.465 135.361C590.361 135.674 590.161 135.952 589.866 136.195C589.571 136.438 589.206 136.559 588.772 136.559H584.866L599.788 99.2407H604.893L619.815 136.559Z" fill="#0CA49D"/>
<path d="M654.96 99.2407V136.559H649.908V119.58H629.777V136.559H624.725V99.2407H629.777V115.882H649.908V99.2407H654.96Z" fill="#0CA49D"/>
<path d="M299.667 185.753H294.615V148.434H299.667V185.753Z" fill="#0CA49D"/>
<path d="M339.448 148.434V185.753H336.922C336.523 185.753 336.184 185.684 335.907 185.545C335.646 185.406 335.386 185.171 335.125 184.842L313.536 156.716C313.571 157.15 313.597 157.575 313.614 157.992C313.632 158.409 313.64 158.799 313.64 159.164V185.753H309.213V148.434H311.817C312.043 148.434 312.234 148.452 312.39 148.487C312.546 148.504 312.685 148.547 312.807 148.617C312.928 148.669 313.05 148.756 313.171 148.877C313.293 148.981 313.423 149.12 313.562 149.294L335.151 177.393C335.117 176.942 335.082 176.508 335.047 176.091C335.03 175.657 335.021 175.249 335.021 174.867V148.434H339.448Z" fill="#0CA49D"/>
<path d="M381.334 167.107C381.334 169.902 380.891 172.445 380.006 174.737C379.12 177.029 377.87 178.991 376.255 180.623C374.641 182.255 372.696 183.522 370.422 184.425C368.165 185.31 365.665 185.753 362.922 185.753H348.989V148.434H362.922C365.665 148.434 368.165 148.886 370.422 149.789C372.696 150.674 374.641 151.941 376.255 153.591C377.87 155.223 379.12 157.185 380.006 159.476C380.891 161.768 381.334 164.312 381.334 167.107ZM376.151 167.107C376.151 164.815 375.839 162.766 375.214 160.961C374.589 159.155 373.703 157.627 372.557 156.377C371.412 155.127 370.023 154.172 368.391 153.513C366.759 152.853 364.936 152.523 362.922 152.523H354.041V181.664H362.922C364.936 181.664 366.759 181.335 368.391 180.675C370.023 180.015 371.412 179.069 372.557 177.836C373.703 176.586 374.589 175.058 375.214 173.253C375.839 171.447 376.151 169.398 376.151 167.107Z" fill="#0CA49D"/>
<path d="M423.093 167.107C423.093 169.902 422.65 172.471 421.764 174.815C420.879 177.142 419.629 179.147 418.014 180.831C416.4 182.515 414.455 183.826 412.181 184.763C409.924 185.684 407.424 186.144 404.681 186.144C401.937 186.144 399.437 185.684 397.18 184.763C394.923 183.826 392.987 182.515 391.373 180.831C389.758 179.147 388.508 177.142 387.623 174.815C386.737 172.471 386.294 169.902 386.294 167.107C386.294 164.312 386.737 161.751 387.623 159.424C388.508 157.08 389.758 155.067 391.373 153.382C392.987 151.681 394.923 150.362 397.18 149.424C399.437 148.487 401.937 148.018 404.681 148.018C407.424 148.018 409.924 148.487 412.181 149.424C414.455 150.362 416.4 151.681 418.014 153.382C419.629 155.067 420.879 157.08 421.764 159.424C422.65 161.751 423.093 164.312 423.093 167.107ZM417.91 167.107C417.91 164.815 417.598 162.758 416.973 160.935C416.348 159.112 415.462 157.575 414.316 156.325C413.17 155.058 411.781 154.086 410.149 153.409C408.517 152.731 406.694 152.393 404.681 152.393C402.684 152.393 400.87 152.731 399.238 153.409C397.606 154.086 396.208 155.058 395.045 156.325C393.899 157.575 393.013 159.112 392.388 160.935C391.763 162.758 391.451 164.815 391.451 167.107C391.451 169.398 391.763 171.456 392.388 173.279C393.013 175.084 393.899 176.621 395.045 177.888C396.208 179.138 397.606 180.102 399.238 180.779C400.87 181.439 402.684 181.769 404.681 181.769C406.694 181.769 408.517 181.439 410.149 180.779C411.781 180.102 413.17 179.138 414.316 177.888C415.462 176.621 416.348 175.084 416.973 173.279C417.598 171.456 417.91 169.398 417.91 167.107Z" fill="#0CA49D"/>
<path d="M460.556 148.434V185.753H458.03C457.631 185.753 457.292 185.684 457.015 185.545C456.754 185.406 456.494 185.171 456.233 184.842L434.644 156.716C434.679 157.15 434.705 157.575 434.722 157.992C434.74 158.409 434.748 158.799 434.748 159.164V185.753H430.321V148.434H432.925C433.151 148.434 433.342 148.452 433.498 148.487C433.654 148.504 433.793 148.547 433.915 148.617C434.036 148.669 434.158 148.756 434.28 148.877C434.401 148.981 434.531 149.12 434.67 149.294L456.259 177.393C456.225 176.942 456.19 176.508 456.155 176.091C456.138 175.657 456.129 175.249 456.129 174.867V148.434H460.556Z" fill="#0CA49D"/>
<path d="M493.119 181.638L493.093 185.753H470.097V148.434H493.093V152.549H475.149V164.945H489.681V168.904H475.149V181.638H493.119Z" fill="#0CA49D"/>
<path d="M519.247 154.268C519.091 154.528 518.917 154.728 518.726 154.867C518.553 154.988 518.336 155.049 518.075 155.049C517.78 155.049 517.433 154.902 517.033 154.606C516.634 154.311 516.131 153.99 515.523 153.643C514.933 153.278 514.212 152.948 513.361 152.653C512.528 152.358 511.512 152.211 510.314 152.211C509.186 152.211 508.188 152.367 507.32 152.679C506.469 152.974 505.748 153.382 505.158 153.903C504.585 154.424 504.151 155.04 503.856 155.752C503.561 156.447 503.413 157.202 503.413 158.018C503.413 159.06 503.665 159.928 504.168 160.622C504.689 161.299 505.366 161.881 506.2 162.367C507.05 162.853 508.005 163.279 509.064 163.643C510.141 163.99 511.235 164.355 512.346 164.737C513.474 165.119 514.568 165.553 515.627 166.039C516.704 166.508 517.658 167.107 518.492 167.836C519.342 168.565 520.02 169.459 520.523 170.518C521.044 171.577 521.304 172.879 521.304 174.425C521.304 176.057 521.027 177.593 520.471 179.034C519.915 180.458 519.099 181.699 518.023 182.758C516.964 183.817 515.653 184.651 514.091 185.258C512.545 185.866 510.783 186.17 508.804 186.17C506.373 186.17 504.168 185.736 502.189 184.868C500.21 183.982 498.517 182.793 497.111 181.3L498.569 178.904C498.708 178.713 498.873 178.557 499.064 178.435C499.272 178.296 499.498 178.227 499.741 178.227C499.967 178.227 500.219 178.322 500.496 178.513C500.792 178.687 501.121 178.913 501.486 179.19C501.851 179.468 502.267 179.772 502.736 180.102C503.205 180.432 503.734 180.736 504.325 181.013C504.932 181.291 505.618 181.526 506.382 181.716C507.146 181.89 508.005 181.977 508.96 181.977C510.158 181.977 511.226 181.812 512.163 181.482C513.101 181.152 513.891 180.692 514.533 180.102C515.193 179.494 515.697 178.774 516.044 177.94C516.391 177.107 516.565 176.178 516.565 175.154C516.565 174.025 516.304 173.105 515.783 172.393C515.28 171.664 514.611 171.057 513.778 170.57C512.945 170.084 511.99 169.676 510.913 169.346C509.837 168.999 508.743 168.652 507.632 168.305C506.521 167.94 505.427 167.523 504.351 167.055C503.274 166.586 502.319 165.978 501.486 165.232C500.653 164.485 499.976 163.556 499.455 162.445C498.951 161.317 498.699 159.928 498.699 158.278C498.699 156.959 498.951 155.683 499.455 154.45C499.976 153.218 500.722 152.124 501.694 151.169C502.684 150.214 503.891 149.45 505.314 148.877C506.755 148.304 508.405 148.018 510.262 148.018C512.346 148.018 514.238 148.348 515.94 149.007C517.658 149.667 519.169 150.622 520.471 151.872L519.247 154.268Z" fill="#0CA49D"/>
<path d="M533.491 185.753H528.438V148.434H533.491V185.753Z" fill="#0CA49D"/>
<path d="M562.855 171.899L556.995 156.716C556.822 156.264 556.639 155.744 556.448 155.153C556.257 154.546 556.075 153.903 555.901 153.226C555.537 154.632 555.164 155.804 554.782 156.742L548.922 171.899H562.855ZM573.376 185.753H569.47C569.018 185.753 568.654 185.64 568.376 185.414C568.098 185.189 567.89 184.902 567.751 184.555L564.261 175.544H547.516L544.026 184.555C543.922 184.868 543.722 185.145 543.427 185.388C543.132 185.632 542.767 185.753 542.333 185.753H538.427L553.349 148.434H558.454L573.376 185.753Z" fill="#0CA49D"/>
</svg>
