<svg width="316" height="182" viewBox="0 0 316 182" fill="none" xmlns="http://www.w3.org/2000/svg">
<path fill-rule="evenodd" clip-rule="evenodd" d="M1.41326 30.5851C0.797259 30.7421 0.59926 31.4971 0.80726 32.8851C1.01826 34.2971 1.77526 34.6671 4.45326 34.6671C7.41426 34.6671 9.18626 35.7701 10.6143 38.5021L11.4673 40.1331L11.5363 77.8671C11.5763 99.9011 11.7073 115.822 11.8493 116.133C11.9833 116.427 12.3013 117.567 12.5563 118.667C13.0733 120.896 13.5893 122.279 13.9963 122.531C14.1453 122.623 14.2673 122.862 14.2673 123.063C14.2673 125.081 20.8503 132.36 24.1333 133.972C24.3533 134.08 25.1333 134.514 25.8673 134.936C28.0303 136.181 30.4453 137.333 30.8923 137.333C31.1213 137.333 31.5843 137.439 31.9213 137.568C38.0423 139.916 45.4513 140.796 51.3573 139.876C56.0853 139.139 56.5973 139.023 57.7063 138.445C58.3173 138.127 59.0843 137.867 59.4123 137.867C60.5773 137.867 63.5513 136.57 65.3763 135.267C65.8383 134.937 66.3393 134.667 66.4893 134.667C66.6393 134.667 66.9203 134.515 67.1143 134.33C67.3083 134.145 68.3073 133.459 69.3333 132.805C70.3603 132.151 71.6693 131.159 72.2413 130.599C72.8143 130.039 73.4143 129.495 73.5753 129.39C74.7443 128.63 79.2003 122.513 80.2433 120.236C80.4703 119.74 80.7673 119.153 80.9043 118.933C81.0403 118.713 81.5723 117.633 82.0853 116.532C82.9463 114.687 83.2413 113.667 83.8603 110.4C83.9853 109.74 84.2983 108.24 84.5563 107.067C85.4613 102.947 85.2243 91.1491 84.2023 89.4961C84.1023 89.3341 83.9403 88.6621 83.8423 88.0011C83.3963 85.0151 82.9543 83.6491 81.4233 80.5331C80.5233 78.7001 79.5473 76.9341 79.2563 76.6101C78.7283 76.0221 78.2563 75.2801 77.7643 74.2671C76.7383 72.1491 68.4643 65.3191 66.9453 65.3361C66.7923 65.3381 65.5873 64.8031 64.2673 64.1481C60.8193 62.4361 51.7423 61.1921 47.5013 61.8511C44.2143 62.3621 41.1033 63.1831 40.7593 63.6321C40.5893 63.8521 40.1133 64.1231 39.7003 64.2331C38.8133 64.4701 38.5973 65.0661 38.5603 67.3781C38.5173 70.0091 38.9103 70.4341 40.2413 69.2001C40.6373 68.8331 41.1153 68.5331 41.3033 68.5331C41.4913 68.5331 41.7223 68.4561 41.8173 68.3611C42.0823 68.0951 44.6593 67.2261 46.0003 66.9491C52.5283 65.6011 60.0273 71.9751 62.7753 81.2081C63.0823 82.2381 63.3333 83.2141 63.3333 83.3751C63.3333 83.5361 63.4923 83.8001 63.6863 83.9601C63.8973 84.1361 64.2223 85.7201 64.4983 87.9261C64.7513 89.9471 65.0743 92.5001 65.2143 93.6001C65.5573 96.2751 65.5373 106.581 65.1833 110.254C64.8343 113.867 63.9343 118.31 63.0473 120.8C61.5823 124.911 61.1053 126.069 60.6863 126.533C60.4223 126.827 59.8633 127.667 59.4443 128.4C52.3093 140.892 33.6523 137.371 31.1813 123.067C31.0803 122.48 30.9053 121.88 30.7923 121.733C30.2873 121.079 30.2103 115.757 30.1103 74.6671C30.0113 34.4211 29.9693 31.0421 29.5603 30.7401C29.1333 30.4261 2.61526 30.2801 1.41326 30.5851ZM305.951 34.2391C302.798 35.2751 301.678 36.0471 297.665 39.9521C297.261 40.3451 296.863 40.8771 296.78 41.1331C296.698 41.3901 296.519 41.6001 296.382 41.6001C296.245 41.6001 296.133 41.7861 296.133 42.0141C296.133 42.2421 295.833 42.8701 295.467 43.4091C295.1 43.9491 294.8 44.5201 294.8 44.6781C294.8 44.8371 294.549 45.4861 294.242 46.1211C292.881 48.9391 292.368 54.1881 293.29 55.8671C293.532 56.3071 293.731 56.8211 293.732 57.0111C293.735 57.7741 294.854 59.4751 295.936 60.3611C302.574 65.8011 313.944 56.7221 315.592 44.6671C315.97 41.9051 315.123 37.3331 314.234 37.3331C314.105 37.3331 314 37.1781 314 36.9891C314 36.3651 312.169 34.6671 311.496 34.6671C311.145 34.6671 310.335 34.4291 309.696 34.1391C308.288 33.5001 308.191 33.5031 305.951 34.2391ZM110.906 41.5941C110.423 41.7891 110.326 42.1091 110.201 43.9351C110.121 45.0991 109.938 46.2791 109.794 46.5591C109.375 47.3691 108.664 49.6871 108.665 50.2371C108.668 51.3101 105.703 56.7011 104.031 58.6631C102.573 60.3741 98.9483 62.4751 96.8293 62.8371C96.3733 62.9151 95.7003 63.0871 95.3333 63.2201C94.9673 63.3531 93.4733 63.5681 92.0153 63.6991C88.7213 63.9941 88.2763 64.3621 88.4643 66.6371C88.6353 68.6951 88.8593 68.8001 93.0783 68.8001C96.7203 68.8001 98.1053 69.0661 98.5233 69.8471C98.6663 70.1151 98.7783 80.5891 98.7933 95.0861C98.8093 110.371 98.9223 120.531 99.0893 121.6C99.2373 122.553 99.4303 124.083 99.5163 125C99.6023 125.917 99.7813 126.667 99.9133 126.667C100.044 126.667 100.376 127.177 100.649 127.8C101.757 130.329 104.679 133.634 107.381 135.413C108.308 136.023 109.212 136.645 109.389 136.795C109.566 136.944 109.788 137.067 109.882 137.067C109.976 137.067 111.031 137.531 112.226 138.098C114.551 139.201 116.587 139.77 120 140.27C121.173 140.442 122.636 140.692 123.251 140.825C126.623 141.554 136.271 140.475 136.556 139.337C136.863 138.115 136.553 135.061 136.133 135.172C135.913 135.23 134.953 135.509 134 135.791C132.599 136.207 131.755 136.279 129.6 136.165C121.962 135.762 119.441 132.464 118.471 121.6C117.957 115.841 117.906 70.7571 118.412 69.6001L118.821 68.6671H125.232C132.716 68.6671 132.302 68.8371 132.374 65.7321C132.399 64.6331 132.386 63.7141 132.343 63.6911C132.301 63.6681 129.186 63.5781 125.422 63.4911C121.657 63.4041 118.477 63.2331 118.355 63.1111C118.233 62.9891 118.099 58.1341 118.058 52.3221C118.001 44.3841 117.901 41.7021 117.658 41.5481C117.221 41.2701 111.612 41.3081 110.906 41.5941ZM275.333 60.9761C271.619 61.4671 265.757 62.7411 264.933 63.2371C264.713 63.3691 264.173 63.6591 263.733 63.8821C263.293 64.1051 262.393 64.6401 261.733 65.0711C261.073 65.5031 260.293 65.9691 260 66.1071C259.472 66.3561 258.828 66.9821 254.941 71.0181C252.429 73.6281 252.485 73.7361 252.018 65.3921C251.975 64.6181 251.853 63.8981 251.747 63.7921C251.642 63.6861 245.381 63.6001 237.835 63.6001C222.388 63.6001 223.611 63.4131 223.604 65.7711C223.599 67.4001 223.609 67.4051 227.691 67.7351C231.442 68.0381 232.327 68.7841 233.38 72.5331C234.149 75.2711 234.129 126.902 233.358 129.733C232.455 133.05 231.104 134.065 227.146 134.405C223.908 134.682 223.342 135.078 223.342 137.067C223.342 139.238 221.738 139.057 241.79 139.147C264.04 139.247 263.188 139.324 263.109 137.237C263.017 134.81 262.998 134.796 259.356 134.477C252.338 133.863 252.133 133.1 252.133 107.503C252.133 91.8211 252.282 88.6951 253.188 85.3331C254.151 81.7571 254.625 80.3771 255.205 79.4591C255.569 78.8821 255.867 78.2831 255.867 78.1281C255.867 77.9721 256.088 77.5201 256.358 77.1231C256.629 76.7251 257.192 75.8801 257.609 75.2451C259.202 72.8241 263.048 69.7271 265.333 69.0271C269.726 67.6811 273.889 67.7661 276.087 69.2461C276.575 69.5751 277.175 69.9151 277.42 70.0021C279.131 70.6111 281.241 75.1981 282.39 80.8001C283.139 84.4571 282.993 127.222 282.222 129.822C281.168 133.379 279.955 134.224 275.442 134.544C274.108 134.639 272.857 134.816 272.661 134.937C272.22 135.209 272.001 138.105 272.379 138.667C272.693 139.135 310.938 139.435 311.401 138.973C311.535 138.838 311.708 138.024 311.786 137.164C311.985 134.951 311.605 134.658 308.208 134.403C301.019 133.863 301.2 134.605 301.2 105.741C301.2 88.4731 301.129 84.3141 300.795 81.9411C300.21 77.7871 298.927 73.3151 297.95 72.0311C297.684 71.6811 297.467 71.2491 297.467 71.0721C297.467 70.2771 293.893 66.4441 291.867 65.0651C290.913 64.4161 289.893 63.6861 289.6 63.4431C287.895 62.0291 279.002 60.4921 275.333 60.9761ZM186.933 62.9401C183.934 63.0441 182.685 63.1941 181.942 63.5401C181.397 63.7931 180.677 64.0041 180.342 64.0081C180.007 64.0131 179.5 64.1931 179.216 64.4081C178.931 64.6241 178.451 64.8071 178.149 64.8161C177.847 64.8241 177.06 65.1181 176.4 65.4681C175.74 65.8191 174.96 66.2201 174.667 66.3591C174.373 66.4991 173.781 66.9851 173.35 67.4401C172.919 67.8951 172.461 68.2671 172.332 68.2671C172.203 68.2671 171.428 68.8121 170.609 69.4791C168.418 71.2641 168.302 71.1601 168.084 67.2231C167.958 64.9511 167.792 63.8501 167.551 63.6971C166.918 63.2961 140.374 63.4891 139.554 63.9011C138.635 64.3631 138.149 66.6311 138.719 67.7961C139.107 68.5881 139.25 68.6391 142.361 69.0811C144.948 69.4481 147.075 70.5211 147.467 71.6571C147.613 72.0821 147.93 72.7291 148.171 73.0951C149.196 74.6511 149.229 76.2591 149.207 123.67C149.186 170.353 149.13 173.092 148.181 174.4C147.915 174.767 147.623 175.267 147.532 175.513C147.121 176.617 145.017 177.411 142.172 177.536C139.009 177.675 138.8 177.822 138.8 179.908C138.8 181.989 137.525 181.867 159.152 181.867H178.473L178.582 181.122C179.001 178.265 178.702 177.97 175.029 177.622C170.952 177.237 169.367 176.606 168.427 174.997C168.041 174.338 167.993 170.289 167.925 133.333C167.836 85.3421 167.749 87.1291 170.529 80.1331C170.937 79.1071 171.419 77.8771 171.601 77.4001C171.783 76.9231 172.025 76.5331 172.14 76.5331C172.254 76.5331 172.468 76.2031 172.614 75.8001C173.2 74.1881 176.357 70.8841 178.354 69.7941C182.246 67.6681 187.132 67.4101 189.578 69.2011C189.883 69.4241 190.763 70.0431 191.533 70.5751C192.303 71.1071 192.933 71.6411 192.933 71.7621C192.933 71.8831 193.276 72.3761 193.695 72.8571C194.113 73.3391 194.641 74.1531 194.868 74.6671C195.095 75.1801 195.649 76.4401 196.099 77.4671C197.34 80.2971 198.087 83.3991 198.987 89.4671C199.551 93.2681 199.646 109.271 199.126 112.933C198.938 114.253 198.663 116.293 198.513 117.467C198.364 118.64 198.07 120.2 197.86 120.933C197.055 123.744 196.317 126.026 196.006 126.667C193.878 131.042 192.687 132.636 190.389 134.182C188.643 135.356 187.536 135.794 185.112 136.269C183.819 136.523 180.058 136.12 178.694 135.583C177.373 135.062 177.253 135.202 177.037 137.532L176.858 139.453L178.037 139.959C181.371 141.388 188.511 141.408 194.667 140.006C195.4 139.839 196.24 139.601 196.533 139.478C196.827 139.354 197.729 139.059 198.538 138.821C199.348 138.584 200.401 138.152 200.878 137.861C201.356 137.571 201.917 137.333 202.126 137.333C202.335 137.333 203.202 136.755 204.053 136.048C204.904 135.341 205.96 134.536 206.4 134.259C207.703 133.439 211.068 129.818 211.597 128.667C211.867 128.08 212.386 127.32 212.752 126.977C213.117 126.635 213.49 125.957 213.582 125.471C213.673 124.985 213.924 124.44 214.14 124.261C214.357 124.081 214.533 123.758 214.533 123.542C214.533 123.326 214.704 122.83 214.913 122.441C216.081 120.261 216.657 118.491 217.181 115.467C217.295 114.807 217.638 113.247 217.942 112C218.247 110.753 218.569 109.313 218.659 108.8C218.748 108.287 218.907 107.393 219.011 106.813C219.496 104.111 218.937 92.5431 218.16 89.2001C217.751 87.4401 217.353 85.5801 217.276 85.0671C217.2 84.5531 217.045 84.0131 216.932 83.8671C216.819 83.7201 216.638 83.0601 216.529 82.4001C216.421 81.7401 216.107 80.9141 215.833 80.5641C215.558 80.2141 215.333 79.8171 215.333 79.6821C215.333 79.0981 212.879 74.3561 212.142 73.5171C211.697 73.0111 211.333 72.4991 211.333 72.3801C211.333 72.1181 209.878 70.7651 207.502 68.8161C206.529 68.0191 205.733 67.2691 205.733 67.1501C205.733 67.0311 205.559 66.9331 205.345 66.9331C205.132 66.9331 204.515 66.6331 203.975 66.2671C203.434 65.9001 202.736 65.6001 202.422 65.6001C202.109 65.6001 201.593 65.4191 201.277 65.1971C198.681 63.3791 194.266 62.6841 186.933 62.9401Z" fill="#F58220"/>
<path fill-rule="evenodd" clip-rule="evenodd" d="M262.178 0.977937C262.08 1.07594 262 10.4389 262 21.7839V42.4129L262.702 42.6799C264.648 43.4199 264.659 43.3649 264.663 32.0829L264.667 22.6979L265.367 20.7489C266.967 16.2979 269.743 14.3179 274.4 14.3069C278.78 14.2959 280.397 15.2139 282.068 18.6589L282.906 20.3849L282.873 30.8959C282.837 42.6009 282.854 42.7379 284.333 42.6159L285.333 42.5329V30.6669V18.7999L284.422 17.1189C282.486 13.5499 279.494 11.7539 275.104 11.5289C271.076 11.3219 268.707 12.1929 265.841 14.9369C264.664 16.0649 264.667 16.0809 264.667 8.40894C264.667 3.34394 264.579 1.35293 264.347 1.11993C264.006 0.779935 262.476 0.678937 262.178 0.977937ZM224.809 1.49593C224.335 1.96993 224.25 6.49794 224.693 7.66694C224.921 8.26994 225.737 8.45294 226.645 8.10494C227.273 7.86394 227.273 1.46994 226.645 1.22894C225.924 0.951936 225.256 1.04893 224.809 1.49593ZM218.133 11.3839C215.349 11.8109 212.583 13.1889 210.671 15.1009C210.012 15.7589 209.642 15.3929 209.562 14.0019C209.459 12.2299 209.333 11.9989 208.475 12.0039C206.905 12.0129 206.984 11.1799 207.025 27.3289C207.067 43.7579 206.968 42.6669 208.416 42.6669H209.467L209.468 34.0669C209.469 22.2229 209.882 19.9169 212.501 17.1079C213.629 15.8989 215.445 14.6669 216.099 14.6669C216.394 14.6669 216.699 14.5629 216.778 14.4359C216.856 14.3099 217.777 14.1449 218.824 14.0699C220.797 13.9289 221.188 13.6919 221.196 12.6329C221.203 11.6179 219.948 11.1059 218.133 11.3839ZM132.8 11.7869C128.176 12.9789 125.922 15.5919 125.92 19.7629C125.918 24.9309 127.067 25.8219 137.049 28.3999C143.245 29.9999 144.395 30.6349 145.505 33.0669C147.429 37.2799 142.647 41.1509 136.057 40.7149C130.701 40.3599 127.928 38.2119 127.458 34.0539C127.149 31.3209 126.876 30.9699 125.356 31.3509C124.286 31.6199 124.488 35.1509 125.732 37.9299C128.907 45.0209 144.532 45.2949 147.567 38.3119C148.788 35.5049 148.798 33.2809 147.601 30.9349C146.351 28.4849 142.634 26.7349 135.733 25.3469C131.414 24.4779 128.696 22.8129 128.62 20.9879C128.506 18.2499 129.534 15.4669 130.659 15.4669C130.824 15.4669 131.104 15.3219 131.281 15.1459C132.274 14.1529 137.48 13.8119 140.085 14.5699C142.834 15.3689 144.145 16.8619 144.917 20.0749L145.379 21.9999H146.423H147.467L147.402 19.9089C147.321 17.2969 145.318 13.3329 144.079 13.3329C143.956 13.3329 143.407 13.0499 142.858 12.7029C141.282 11.7079 135.241 11.1579 132.8 11.7869ZM184.903 11.8539C181.363 12.8299 178.988 14.9219 177.736 18.1689C176.541 21.2679 176.657 22.5029 178.153 22.6129C179.344 22.6999 179.406 22.6029 180.08 19.5729C181.563 12.9059 193.973 11.9669 196.231 18.3509C197.99 23.3219 195.271 25.3349 186.8 25.3369C178.175 25.3379 173.357 30.5019 175.46 37.4899C177.456 44.1219 189.125 45.5909 194.982 39.9469C196.174 38.7989 196.62 39.0659 196.72 40.9859L196.8 42.5329L197.783 42.6149C199.266 42.7379 199.263 42.7559 199.284 30.6669C199.308 17.1129 199.153 16.2159 196.365 13.7769C193.949 11.6649 188.752 10.7919 184.903 11.8539ZM239.321 12.0849C235.386 13.4019 232.133 17.5409 232.133 21.2319C232.133 23.8189 234.452 23.1609 235.066 20.3999C236.178 15.4029 241.06 13.0369 247.307 14.4669C251.703 15.4729 253.642 22.9859 249.867 24.3829C248.823 24.7689 244.231 25.3169 241.966 25.3249C234.298 25.3529 230.28 28.6099 230.28 34.7999C230.279 37.4469 231.82 40.7579 233.317 41.3269C233.664 41.4589 234.026 41.6929 234.121 41.8469C234.216 41.9999 235.158 42.3949 236.214 42.7239C240.587 44.0869 246.859 43.1209 249.385 40.6949C250.845 39.2929 251.065 39.1419 251.44 39.2859C251.717 39.3919 251.864 39.9149 251.92 40.9859L252 42.5329L252.969 42.6139C254.487 42.7409 254.533 42.3959 254.533 30.9819C254.533 18.3859 254.277 16.5929 252.152 14.3109C249.674 11.6489 243.712 10.6149 239.321 12.0849ZM150.19 12.4319C149.922 12.6999 149.953 14.2429 150.233 14.5469C150.362 14.6859 150.916 15.8799 151.465 17.1999C152.014 18.5199 153.055 20.9559 153.779 22.6139C154.502 24.2709 155.493 26.6709 155.98 27.9469C156.468 29.2229 157.135 30.8669 157.464 31.5999C157.793 32.3329 158.242 33.3529 158.463 33.8669C158.683 34.3799 159.269 35.6669 159.765 36.7259C160.261 37.7849 160.667 38.7429 160.667 38.8539C160.667 38.9649 160.924 39.6769 161.239 40.4359L161.81 41.8159L160.661 44.9159C159.055 49.2519 158.374 49.8669 155.182 49.8669C152.016 49.8669 150.745 50.9179 152.459 52.1179C155.198 54.0359 162.533 50.7309 162.533 47.5789C162.533 47.3799 162.704 46.8239 162.912 46.3419C163.304 45.4359 164.322 42.8229 165.539 39.5999C165.76 39.0129 166.255 37.7529 166.638 36.7999C167.021 35.8469 167.335 34.9269 167.334 34.7549C167.334 34.5839 167.633 33.8469 168 33.1169C168.367 32.3859 168.667 31.6549 168.667 31.4909C168.667 31.3269 168.774 30.9839 168.906 30.7299C169.038 30.4749 169.324 29.7869 169.543 29.1999C169.762 28.6129 170.244 27.3529 170.613 26.3999C170.983 25.4469 171.608 23.7669 172.001 22.6669C172.395 21.5669 173.006 20.0329 173.359 19.2589C173.711 18.4849 174 17.7389 174 17.6019C174 17.4639 174.197 16.8969 174.437 16.3419C175.555 13.7599 175.718 12.9629 175.214 12.5449C174.539 11.9849 173.389 12.3199 172.965 13.1999C172.753 13.6399 172.47 14.2229 172.336 14.4959C172.202 14.7679 171.875 15.6679 171.608 16.4959C171.342 17.3229 170.976 18.3599 170.796 18.7999C170.197 20.2569 170.045 20.6549 169.577 21.9999C169.321 22.7329 169.012 23.4469 168.889 23.5869C168.767 23.7259 168.667 24.0339 168.667 24.2699C168.667 24.5069 168.367 25.3219 168 26.0819C167.633 26.8419 167.333 27.6099 167.333 27.7889C167.333 28.0789 165.988 31.5799 165.033 33.7739C164.831 34.2359 164.667 34.7359 164.667 34.8849C164.667 36.3819 162.991 38.2309 162.629 37.1329C162.545 36.8769 162.269 36.1869 162.016 35.5999C161.762 35.0129 161.214 33.6929 160.796 32.6669C160.379 31.6399 159.939 30.6859 159.819 30.5469C159.698 30.4069 159.6 30.1459 159.6 29.9649C159.6 29.7849 159.24 28.8589 158.8 27.9089C158.36 26.9579 158 26.0479 158 25.8869C158 25.7249 157.884 25.3839 157.743 25.1299C157.601 24.8749 157.237 24.0669 156.933 23.3329C156.63 22.5999 156.272 21.8019 156.138 21.5589C156.004 21.3169 155.479 20.0419 154.971 18.7259C154.463 17.4109 153.926 16.1089 153.779 15.8339C153.632 15.5589 153.316 14.8529 153.076 14.2669C152.837 13.6799 152.545 13.0199 152.427 12.7999C152.202 12.3809 150.519 12.1029 150.19 12.4319ZM224.573 13.5199C224.481 14.0769 224.405 20.8009 224.403 28.4609L224.4 42.3879L225.031 42.8009C225.511 43.1159 225.83 43.1499 226.366 42.9459L227.071 42.6779L227.002 27.6719L226.933 12.6669L225.837 12.5859C224.756 12.5069 224.738 12.5199 224.573 13.5199ZM196.572 27.6579C196.819 28.6409 196.446 32.4039 195.975 33.6859C195.749 34.2979 195.499 35.0079 195.419 35.2629C194.124 39.3739 185.607 42.1979 181.093 40.0129C177.503 38.2749 176.61 33.8769 179.144 30.4189C180.29 28.8549 182.023 28.3179 186.933 28.0069C190.922 27.7529 194.718 27.2719 195.3 26.9469C195.884 26.6199 196.381 26.8979 196.572 27.6579ZM251.867 29.0719C251.867 31.0729 251.504 33.0179 250.908 34.2219C250.702 34.6369 250.533 35.0859 250.533 35.2199C250.533 36.1839 248.129 38.4729 246 39.5349L243.733 40.6659L240.667 40.6539C237.47 40.6409 236.964 40.5119 235.045 39.2169C233.254 38.0099 232.517 35.3809 233.186 32.5909C233.942 29.4389 236.445 28.2019 242.675 27.8999C246.229 27.7269 249.917 27.2729 250.525 26.9329C251.431 26.4259 251.867 27.1209 251.867 29.0719Z" fill="#7C6A55"/>
</svg>
