<svg width="265" height="158" viewBox="0 0 265 158" fill="none" xmlns="http://www.w3.org/2000/svg">
<path d="M261.152 32.8188C257.01 30.4177 250.74 33.5121 247.154 39.7341C243.581 45.9478 244.029 52.9358 248.18 55.3368C252.316 57.7407 258.58 54.6467 262.164 48.4382C265.75 42.2134 265.297 35.2227 261.152 32.8188Z" fill="#F58220"/>
<path d="M250.558 106.162V79.6268C250.558 72.4096 249.72 68.3203 247.478 64.5859C244.222 58.8111 238.562 56.1108 230.632 56.1108C221.584 56.1108 215.102 59.3812 210.028 66.5984L209.972 66.5509V58.2855H199.89H197.542H185.243V62.1428L185.919 62.1456C193.282 62.274 194.093 63.0989 194.093 73.0469V106.164C194.093 116.593 193.391 117.3 185.687 117.415L185.137 117.423V121.663H219.006V117.423L218.327 117.415C210.746 117.3 210.042 116.719 210.042 106.164V82.2599C210.042 78.4361 211.325 73.6675 213.181 70.2936C216.071 65.3238 220.166 62.7551 224.893 62.7551C231.626 62.7551 234.721 67.4342 234.721 80.3424V106.164C234.721 116.481 233.902 117.3 226.436 117.415L225.748 117.423V121.663H259.642V117.423L258.963 117.415C251.246 117.3 250.558 116.593 250.558 106.164" fill="#F58220"/>
<path d="M42.1766 56.6909C38.009 56.6909 34.5234 57.5183 31.485 59.268V65.2022C33.7659 62.9381 36.5303 61.6775 39.3674 61.6775C46.9284 61.6775 54.0645 70.8988 54.0645 90.1912C54.0645 109.45 46.7104 118.59 38.7832 118.59C25.9365 118.59 25.7045 106.264 25.1846 103.211C25.1846 103.211 25.1117 32.1044 25.1846 30.6257H17.4727H0V34.7319H0.684813C8.37158 34.7319 9.03126 36.6047 9.03126 46.701V98.3755C9.03126 118.551 30.1042 122.755 38.0509 122.755C56.0016 122.755 71.0034 109.665 71.0034 88.1982C71.0034 68.4866 58.7241 56.6909 42.1766 56.6909Z" fill="#F58220"/>
<path d="M157.109 57.5571C149.861 57.5571 144.713 59.7624 139.74 64.791V58.3203L114.592 58.3519V63.3721C120.906 63.464 123.117 64.2162 123.43 70.6004V146.372C123.145 152.634 121.725 153.084 115.243 153.262L114.592 153.286V157.44H148.648V153.286L148.003 153.262C142.941 153.07 140.718 152.796 139.765 150.417V81.4261C141.47 69.3202 146.309 62.676 153.369 62.676C160.939 62.676 165.464 71.671 165.464 90.5944C165.464 110.055 160.732 118.87 151.958 118.87C150.124 118.87 148.313 118.314 146.686 117.314V122.384C149.068 123.172 151.606 123.513 154.658 123.513C162.792 123.513 170.387 120.274 174.993 114.58C179.692 108.799 182.409 99.4802 182.409 88.9563C182.409 69.1468 173.327 57.5581 157.109 57.5581" fill="#F58220"/>
<path d="M98.2958 87.3731C98.3267 87.2194 98.3378 87.0856 98.3378 86.9343V63.4127H110.15V58.3088H98.3377V39.7627H91.5734L91.4784 40.3498C90.4302 46.1722 89.2813 49.4678 87.2464 52.6459C84.6721 56.671 80.3423 58.3202 75.3865 58.5494L72.8848 58.5811V63.4166H81.4213V84.3638L81.4522 85.0516C81.4213 104.059 80.868 109.89 84.4486 114.463C87.4171 118.278 93.2674 123.402 106.008 123.402C109.041 123.402 111.604 123.061 113.966 122.281V117.207C112.342 118.197 110.531 118.762 108.7 118.762C98.0975 118.762 98.2932 112.808 98.296 87.3771" fill="#F58220"/>
<path d="M173.672 14.7189C174.312 13.7071 175.061 12.8684 175.911 12.1612C176.822 11.4481 177.845 10.9035 178.997 10.5317C180.162 10.1237 181.431 9.92554 182.826 9.92554C184.291 9.92554 185.644 10.1379 186.868 10.5911C188.156 11.0411 189.247 11.7092 190.144 12.6204C191.103 13.5065 191.815 14.5911 192.305 15.8993C192.833 17.1794 193.082 18.6385 193.082 20.282V38.1628C193.082 38.5067 192.771 38.8228 192.422 38.8228H191.382C191.021 38.8228 190.717 38.5067 190.717 38.1628V20.4357C190.717 18.9235 190.49 17.6797 190.085 16.7042C189.666 15.67 189.087 14.8286 188.369 14.2081C187.67 13.5402 186.823 13.0649 185.873 12.777C184.934 12.4529 183.919 12.2794 182.826 12.2794C181.3 12.2794 179.986 12.5844 178.868 13.1598C177.736 13.7081 176.777 14.4736 175.995 15.4464C175.245 16.3883 174.672 17.4951 174.27 18.7948C173.867 20.0947 173.672 21.4588 173.672 22.9067V38.1628C173.672 38.5067 173.364 38.8228 173.018 38.8228H171.967C171.62 38.8228 171.315 38.5067 171.315 38.1628V11.2032C171.315 10.8681 171.62 10.5542 171.967 10.5542H173.018C173.364 10.5542 173.672 10.8673 173.672 11.2032L173.672 14.7189Z" fill="#7C6A55"/>
<path d="M116.925 33.6252V38.1673C116.925 38.5168 116.617 38.8155 116.271 38.8155H115.222C114.876 38.8155 114.568 38.516 114.568 38.1673V0.722987C114.568 0.364851 114.876 0.0629883 115.222 0.0629883H116.271C116.617 0.0629883 116.925 0.364851 116.925 0.722987V15.585C117.615 14.3412 118.546 13.2427 119.678 12.3231C121.674 10.7158 124.192 9.92476 127.175 9.92476C129.117 9.92476 130.878 10.3241 132.413 11.1491C133.933 11.9681 135.194 13.0554 136.203 14.4362C137.226 15.803 137.995 17.3628 138.504 19.1433C139.049 20.9239 139.325 22.7882 139.325 24.7392C139.325 26.8217 139.049 28.7532 138.504 30.5449C137.956 32.3282 137.153 33.8851 136.075 35.2212C135.035 36.5126 133.757 37.5384 132.237 38.282C130.741 39.0283 129.05 39.3944 127.175 39.3944C124.282 39.3944 121.813 38.6116 119.79 36.999C118.616 36.043 117.657 34.9222 116.925 33.6252ZM117.632 29.5218C118.096 31.0369 118.756 32.3338 119.616 33.4603C120.497 34.5756 121.584 35.4533 122.856 36.1129C124.125 36.7618 125.556 37.0856 127.175 37.0856C128.838 37.0856 130.249 36.756 131.429 36.1184C132.667 35.4616 133.679 34.5811 134.451 33.4853C135.281 32.3281 135.907 30.9949 136.298 29.4939C136.743 27.9845 136.961 26.394 136.961 24.7392C136.961 23.2243 136.757 21.7177 136.348 20.2391C135.977 18.7297 135.401 17.3991 134.607 16.2391C133.827 15.0679 132.804 14.1119 131.558 13.3907C130.389 12.6666 128.933 12.2783 127.175 12.2783C124.058 12.2783 121.607 13.3517 119.753 15.4705C117.889 17.5501 116.925 20.608 116.925 24.7392C116.925 26.4219 117.157 28.0181 117.632 29.5218" fill="#7C6A55"/>
<path d="M162.707 34.5743L162.419 34.9625C161.771 35.8346 160.952 36.5893 159.96 37.2601C158.984 37.9391 157.88 38.4453 156.633 38.8115C155.367 39.2172 154.023 39.4153 152.555 39.4153C149.74 39.4153 147.401 38.7973 145.615 37.5117C143.784 36.1421 142.884 34.1072 142.884 31.5217C142.884 29.7914 143.158 28.3239 143.748 27.1863C144.348 26.0822 145.137 25.1989 146.109 24.5811C147.071 23.9219 148.13 23.505 149.341 23.2814C150.489 23.0215 151.636 22.8622 152.776 22.7894L157.55 22.5382C158.855 22.4289 159.876 22.2585 160.656 22.0382C161.449 21.7839 161.933 21.4455 162.218 21.0682C162.512 20.657 162.707 20.0285 162.707 19.0893C162.707 18.3176 162.643 17.5185 162.512 16.6826C162.386 15.9165 162.067 15.2095 161.575 14.5611C161.134 13.9375 160.449 13.4011 159.484 12.9874C158.545 12.5429 157.234 12.2996 155.496 12.2996C152.762 12.2996 150.741 12.9874 149.321 14.2423C147.907 15.461 147.088 17.2276 146.923 19.6174C146.895 19.9248 146.576 20.2156 146.263 20.2156H145.215C144.843 20.2156 144.536 19.905 144.561 19.5334C144.628 18.2029 144.908 16.9591 145.397 15.8019C145.889 14.6028 146.585 13.5629 147.496 12.688C148.438 11.8187 149.573 11.1507 150.858 10.6671C152.211 10.1806 153.757 9.94604 155.496 9.94604C156.734 9.94604 157.905 10.0745 159.001 10.332C160.175 10.5918 161.195 11.0617 162.078 11.7519C162.978 12.4175 163.677 13.2837 164.211 14.3431C164.751 15.4332 165.03 16.7721 165.069 18.301V38.1804C165.069 38.5267 164.751 38.8348 164.41 38.8348H163.361C163.015 38.8348 162.707 38.5275 162.707 38.1804L162.707 34.5743ZM162.707 23.7094C162.453 23.8631 162.162 24.0057 161.855 24.1206C161.08 24.3694 160.197 24.5818 159.21 24.7268C158.249 24.8718 157.19 24.9614 156.044 24.9954C154.962 25.0271 153.911 25.0794 152.863 25.1547C151.842 25.226 150.828 25.3614 149.852 25.5603C148.955 25.7164 148.15 26.0468 147.465 26.5162C146.805 26.9275 146.263 27.5449 145.852 28.3583C145.461 29.1047 145.24 30.15 145.24 31.5224C145.24 32.2181 145.352 32.9005 145.567 33.616C145.808 34.2507 146.193 34.804 146.764 35.3462C147.32 35.8407 148.027 36.2659 148.955 36.6292C149.877 36.9422 151.035 37.1126 152.455 37.1126C154.123 37.1126 155.591 36.8219 156.857 36.274C158.157 35.7123 159.213 34.9826 160.055 34.1161C160.941 33.1965 161.589 32.1483 162.017 30.9828C162.478 29.792 162.707 28.5732 162.707 27.3294L162.707 23.7094Z" fill="#7C6A55"/>
<path d="M221.505 38.2874L209.284 21.357L218.712 11.4927C218.712 11.4927 219.076 11.1322 219.045 10.9531C219.023 10.8303 218.858 10.7045 218.74 10.7045C218.74 10.7045 216.862 10.7361 216.714 10.7361C216.068 10.7361 215.668 11.2115 215.668 11.2115L201.709 25.1456V0.656855C201.709 0.307434 201.396 0 201.055 0H199.772C199.42 0 199.118 0.307434 199.118 0.656855V38.1683C199.118 38.5177 199.42 38.822 199.772 38.822H201.055C201.402 38.822 201.709 38.5169 201.709 38.1683V28.5807L207.277 23.1916L217.994 38.378C218.167 38.6236 218.349 38.7971 218.872 38.7971C219.389 38.7971 221.144 38.7813 221.144 38.7813C221.262 38.7734 221.468 38.6838 221.524 38.58C221.575 38.4849 221.569 38.3732 221.505 38.2868" fill="#7C6A55"/>
</svg>
