<svg width="100" height="100" viewBox="0 0 100 100" fill="none" xmlns="http://www.w3.org/2000/svg">
<path d="M37.916 0H60.5248V2.1167H37.916V0Z" fill="#98DABD"/>
<path d="M18.6045 8.7785H81.0129V10.8955H18.6045V8.7785Z" fill="#98DABD"/>
<path d="M18.6045 87.0972H81.0129V89.2139H18.6045V87.0972Z" fill="#98DABD"/>
<path d="M9.65576 19.6375H90.6691V21.7542H9.65576V19.6375Z" fill="#98DABD"/>
<path d="M9.89062 76.7009H90.9041V78.8176H9.89062V76.7009Z" fill="#98DABD"/>
<path d="M3.06152 31.8819H96.5562V33.9983H3.06152V31.8819Z" fill="#98DABD"/>
<path d="M3.06152 64.9187H96.5562V67.0354H3.06152V64.9187Z" fill="#98DABD"/>
<path d="M0 42.7397H99.8534V44.8567H0V42.7397Z" fill="#98DABD"/>
<path d="M0 53.8293H99.8534V55.946H0V53.8293Z" fill="#98DABD"/>
<path d="M37.916 97.2845H60.5248V99.3569H37.916V97.2845Z" fill="#98DABD"/>
<path d="M8.07275 43.9167C8.64888 40.9012 9.45934 38.047 10.4806 35.3627H88.8227C89.7775 38.0024 90.5927 40.8506 91.2603 43.9167H8.07275Z" fill="#009900"/>
<path d="M35.4775 10.187C39.6963 8.59489 44.2344 7.61583 48.9842 7.29608C54.7207 7.51683 60.0486 8.44351 64.878 10.187H35.4775Z" fill="#009900"/>
<path d="M19.2734 21.0454C22.6007 17.4472 26.4972 14.4984 30.8228 12.2594H69.6425C73.8258 14.4183 77.5475 17.319 80.7334 21.0454H19.2734Z" fill="#009900"/>
<path d="M11.3262 33.2898C12.9667 29.5267 15.0395 26.1263 17.4785 23.1183H82.3867C84.5682 26.0509 86.4574 29.4305 88.0274 33.2898H11.3262Z" fill="#009900"/>
<path d="M92.9742 55.4687H7.0459C7.0459 52.1642 7.25816 49.0015 7.71729 45.9896H91.683C92.2464 48.954 92.6796 52.1109 92.9742 55.4687ZM33.6768 66.3271V57.5411H64.9982V66.3271H33.6768Z" fill="#009900"/>
<path d="M33.6768 77.8782V68.3992H64.9982V77.8782H33.6768ZM33.6768 88.5054V79.951H64.9982V88.5054H33.6768Z" fill="#009900"/>
</svg>
