<svg width="606" height="100" viewBox="0 0 606 100" fill="none" xmlns="http://www.w3.org/2000/svg">
<path d="M37.916 0.000244141H60.5248V2.11694H37.916V0.000244141Z" fill="#98DABD"/>
<path d="M18.6045 8.77875H81.0129V10.8958H18.6045V8.77875Z" fill="#98DABD"/>
<path d="M18.6045 87.0974H81.0129V89.2141H18.6045V87.0974Z" fill="#98DABD"/>
<path d="M9.65576 19.6377H90.6691V21.7544H9.65576V19.6377Z" fill="#98DABD"/>
<path d="M9.89062 76.7012H90.9041V78.8179H9.89062V76.7012Z" fill="#98DABD"/>
<path d="M3.06152 31.8821H96.5562V33.9985H3.06152V31.8821Z" fill="#98DABD"/>
<path d="M3.06152 64.9189H96.5562V67.0356H3.06152V64.9189Z" fill="#98DABD"/>
<path d="M0 42.7399H99.8534V44.8569H0V42.7399Z" fill="#98DABD"/>
<path d="M0 53.8296H99.8534V55.9463H0V53.8296Z" fill="#98DABD"/>
<path d="M37.916 97.2847H60.5248V99.3572H37.916V97.2847Z" fill="#98DABD"/>
<path d="M8.07275 43.917C8.64888 40.9015 9.45934 38.0473 10.4806 35.3629H88.8227C89.7775 38.0027 90.5927 40.8509 91.2603 43.917H8.07275Z" fill="#009900"/>
<path d="M35.4775 10.1873C39.6963 8.59513 44.2344 7.61608 48.9842 7.29633C54.7207 7.51708 60.0486 8.44376 64.878 10.1873H35.4775Z" fill="#009900"/>
<path d="M19.2734 21.0457C22.6007 17.4474 26.4972 14.4986 30.8228 12.2596H69.6425C73.8258 14.4185 77.5475 17.3193 80.7334 21.0457H19.2734Z" fill="#009900"/>
<path d="M11.3262 33.29C12.9667 29.5269 15.0395 26.1265 17.4785 23.1185H82.3867C84.5682 26.0512 86.4574 29.4308 88.0274 33.29H11.3262Z" fill="#009900"/>
<path d="M92.9742 55.4689H7.0459C7.0459 52.1644 7.25816 49.0017 7.71729 45.9899H91.683C92.2464 48.9542 92.6796 52.1112 92.9742 55.4689ZM33.6768 66.3274V57.5414H64.9982V66.3274H33.6768Z" fill="#009900"/>
<path d="M33.6768 77.8785V68.3994H64.9982V77.8785H33.6768ZM33.6768 88.5056V79.9512H64.9982V88.5056H33.6768Z" fill="#009900"/>
<path fill-rule="evenodd" clip-rule="evenodd" d="M118.976 34.9999V32.6772C118.742 31.9809 118.742 31.2842 118.509 30.5874C118.275 29.8907 118.042 28.962 117.576 28.265C117.109 27.5683 116.642 26.6396 115.941 25.7104H135.313L135.547 34.7677C135.313 34.534 135.313 34.3029 135.08 34.3029C134.38 33.1418 133.213 32.6772 132.046 32.6772H131.112V44.5214C131.579 44.5214 131.579 44.7552 131.812 44.7552H132.512C133.68 44.7552 134.613 44.2902 135.313 43.1292C135.313 42.8955 135.547 42.6647 135.547 42.4325V51.7217C134.846 51.4881 133.913 51.2576 132.979 51.2576H132.512H132.046H131.579C131.345 51.4912 131.345 51.491 131.112 51.491V66.5865C131.812 66.8204 132.279 67.0514 132.746 67.2833C133.446 67.5169 133.913 67.7474 134.38 67.7474C134.846 67.7474 135.08 67.514 135.547 67.514V74.9453H135.08L134.613 74.7119H134.146H115.241C116.642 74.2474 117.576 73.3184 118.042 72.1572C118.509 70.7637 118.742 69.3704 118.742 67.9769C118.976 67.5126 118.976 67.2802 118.976 67.0483V66.119V34.9999ZM175.691 60.313V52.6495H179.892L175.691 39.6444V25.7104H183.86L198.33 67.7447C198.564 68.9062 199.03 70.067 199.731 70.996C200.431 71.9248 201.364 72.8539 202.065 73.5507L202.765 74.2474C202.998 74.2474 203.232 74.4811 203.465 74.7119H181.992C182.693 74.0151 183.393 73.5507 183.86 72.8539C184.327 72.3896 184.793 71.925 185.027 71.2283C185.027 70.9945 185.261 70.9945 185.261 70.7638V70.299V69.6026C185.027 69.6026 185.027 69.3689 185.027 69.1378L182.459 60.313H175.691ZM210 36.1611C210 35.2321 209.766 34.5352 209.533 33.6062C209.533 32.9095 209.299 31.9807 208.833 31.2841C208.366 30.3549 208.133 29.6588 207.433 28.962C206.966 28.033 206.499 27.3359 205.799 26.4071H219.569L239.875 55.4366V34.5352C239.875 32.9094 239.408 31.5162 238.941 30.1232C238.241 28.7297 237.307 27.5682 236.14 26.4071H249.911C248.977 27.5682 248.277 28.9619 247.81 30.5874C247.343 32.2133 247.11 34.0706 246.877 35.6964V36.8578V38.019V75.873H245.943C244.543 75.873 243.142 75.4086 241.275 74.7119C239.641 73.7831 237.774 72.6216 235.907 71.2283C234.973 70.299 233.806 69.1379 232.873 67.9769C231.939 66.8158 230.772 65.6549 229.838 64.2614L216.535 44.5214V64.2614C216.535 66.8159 217.002 69.1378 217.935 70.996C218.635 72.8538 219.569 74.2474 220.736 74.7119H206.265C207.433 73.7831 208.133 72.6214 208.833 70.996C209.533 69.3703 210 67.7445 210 66.119V36.1611ZM256.212 34.5352C256.212 32.677 255.979 31.2842 255.279 29.8907C254.812 28.7297 253.878 27.5682 252.478 26.4071H271.616C271.383 26.641 271.15 26.6409 270.916 26.8719C270.682 27.1054 270.682 27.3358 270.45 27.3358C269.749 28.0329 269.282 28.7298 269.049 29.4265C268.582 30.355 268.582 31.2842 268.582 32.6772V48.005L278.385 33.3737C278.618 32.9094 278.852 32.4452 278.852 31.9808C279.086 31.5162 279.086 31.2841 279.086 30.8193C279.086 30.3548 279.086 29.8908 278.852 29.4265C278.618 28.962 278.385 28.497 277.918 28.0328L277.218 27.3358L276.284 26.4071H293.789L278.852 46.1468L290.755 66.5835C290.755 67.0482 290.988 67.2803 291.222 67.7447C291.455 67.9783 291.689 68.4413 291.689 68.6736C292.389 69.8346 293.089 70.9962 294.022 72.1572C294.723 73.0864 295.423 74.0151 296.356 74.7119H286.554C284.686 74.7119 283.053 74.478 281.886 74.2474C280.485 73.7831 279.318 72.854 278.152 71.4605C277.918 70.9963 277.451 70.5313 277.218 70.0671C276.751 69.6026 276.518 68.9062 276.284 68.4414L268.582 53.8107V67.7447C268.582 69.3706 268.816 70.7637 269.516 71.925C269.983 73.0864 270.683 74.0152 271.383 74.4799L252.478 74.7134C253.412 74.249 254.111 73.5522 254.812 72.6232C255.279 71.4622 255.745 70.3009 255.979 69.3722V67.9788C256.213 67.5143 256.213 67.0498 256.213 66.585V34.537L256.212 34.5352ZM135.547 25.7104C139.748 25.7104 143.015 26.872 145.583 29.4265C147.917 31.7485 149.084 34.303 149.317 37.0898C149.317 40.1092 148.617 42.4313 147.45 43.5928C146.283 44.9859 144.883 45.9148 143.482 46.6116L143.015 46.845C147.217 48.4708 149.784 50.5606 150.484 53.1155C151.418 55.6696 151.885 58.4564 151.885 61.4758C151.651 66.1204 150.017 69.604 146.75 71.6943C143.482 73.7843 139.748 74.9453 135.547 74.9453V67.514C136.714 67.2802 137.414 66.5847 138.114 65.6561C139.281 64.2626 139.748 62.6368 139.982 60.7791V59.6182C139.982 57.528 139.281 55.4378 138.348 53.8119C137.647 52.8834 136.714 51.954 135.547 51.7217V42.4325C136.013 41.5037 136.247 40.5747 136.48 39.4137V38.9492V37.788V37.3235C136.247 36.3945 136.013 35.6975 135.547 34.7689V25.7116V25.7104ZM175.691 25.7104V39.6444L175.224 38.019L171.49 52.6495H175.691V60.313H169.623L167.055 67.7447C166.821 68.2094 166.821 68.4414 166.821 68.4414V68.9062V69.6026C166.821 69.8363 166.821 70.0673 167.055 70.299C167.055 70.9963 167.522 71.9248 167.989 72.6214C168.456 73.3181 169.156 74.0151 170.089 74.7119H154.685C155.619 74.0151 156.552 73.0864 157.252 72.1572C158.186 70.9962 158.653 69.8346 159.12 68.6736C159.353 68.44 159.353 67.9771 159.586 67.7447C159.586 67.2803 159.82 67.0482 159.82 66.5835L167.989 38.7158C167.989 38.251 168.223 37.7868 168.223 37.322C168.456 37.0884 168.689 36.6256 168.689 36.1611C169.156 35.2321 169.39 34.3029 169.623 33.3737C169.857 32.445 170.09 31.5161 170.09 30.8193C170.09 30.5856 170.09 30.1232 169.856 29.8907V28.962C169.622 28.4973 169.156 27.8005 168.689 27.3358C168.456 26.6395 167.756 26.1749 167.055 25.7104H175.691H175.691ZM520.627 74.7119V74.2474C520.86 74.4811 521.094 74.7119 521.56 74.7119H520.627ZM520.627 54.2751V51.7205C520.86 51.7205 520.86 51.4867 521.094 51.256C522.027 50.0945 522.728 48.7018 523.194 47.3083C523.661 46.6117 523.661 45.9149 523.894 45.2181C523.894 44.5214 524.128 43.8245 524.128 43.3602C524.128 40.5734 523.661 38.4833 522.728 37.0898C522.027 36.161 521.327 35.2319 520.627 34.7677V25.7104C525.295 25.7104 529.03 26.872 532.064 29.194C534.864 31.5162 536.498 34.9998 536.498 39.8766C536.498 44.289 535.098 47.5405 532.531 49.6304C529.963 51.7204 527.162 53.1144 524.128 53.5787C522.961 54.0431 521.794 54.0431 520.627 54.2751H520.627ZM542.799 33.3737V31.9808C542.799 31.7472 542.566 31.2841 542.566 30.8193C542.332 29.8906 541.866 29.194 541.399 28.4973C540.932 27.5683 540.465 26.872 539.765 26.4071H557.503C557.27 26.872 557.036 27.3359 556.57 27.5683C556.336 28.033 556.103 28.265 555.87 28.7298C555.636 29.194 555.403 29.8907 555.169 30.5874C554.936 31.0517 554.936 31.7485 554.936 32.6772V66.119V67.5125C554.936 68.2092 554.936 68.6736 555.169 69.3704C555.403 70.5314 555.636 71.4603 556.336 72.6214C556.803 73.5505 557.503 74.2474 558.67 74.7119H539.299C540.232 74.478 541.166 73.5507 541.866 72.1572C542.566 70.5315 542.799 68.4414 542.799 65.4226V33.3737ZM564.972 36.1611C564.972 35.2321 564.972 34.5352 564.738 33.6062C564.505 32.9095 564.271 31.9807 564.038 31.2841C563.571 30.3549 563.105 29.6588 562.637 28.962C562.171 28.033 561.704 27.3359 561.004 26.4071H574.774L594.846 55.4366V34.5352C594.846 32.9094 594.613 31.5162 594.147 30.1232C593.446 28.7297 592.512 27.5682 591.112 26.4071H605.115C603.948 27.5682 603.248 28.9619 602.782 30.5874C602.548 32.2133 602.081 34.0706 602.081 35.6964V36.8578V38.019V75.873H601.148C599.748 75.873 598.114 75.4086 596.48 74.7119C594.613 73.7831 592.979 72.6216 591.112 71.2283C589.945 70.299 589.011 69.1379 588.078 67.9769C586.911 66.8158 585.977 65.6549 585.043 64.2614L571.74 44.5214V64.2614C571.74 66.8159 572.207 69.1378 572.907 70.996C573.841 72.8538 574.774 74.2474 575.708 74.7119H561.471C562.404 73.7831 563.338 72.6214 564.038 70.996C564.738 69.3703 564.972 67.7445 564.972 66.119V36.1611H564.972ZM520.627 25.7104V34.7677C520.393 34.534 519.927 34.3029 519.693 34.3029C519.46 34.069 518.993 34.0692 518.759 34.0692C518.526 33.8355 518.293 33.8357 518.06 33.8357H517.359V53.8076C518.526 53.3434 519.693 52.6464 520.627 51.7172V54.2718H517.359V66.5804V67.9739C517.359 68.4381 517.593 68.9031 517.593 69.3673C518.06 70.2961 518.526 71.4577 518.993 72.6187C519.46 73.3154 520.16 73.7799 520.627 74.2443V74.7088H501.955C502.889 74.2446 503.822 73.5478 504.523 72.6187C505.223 71.9219 505.456 70.2959 505.456 68.438V35.6933V34.2999V32.9064C505.222 31.2809 504.99 29.8877 504.289 28.4942C503.822 27.1007 502.889 26.1716 501.488 25.7073H520.627V25.7104ZM474.648 75.873V68.4414H475.348C479.082 68.4414 481.883 66.8159 483.517 63.7966C485.151 60.7778 486.084 57.0619 486.084 52.882V50.7916V50.0945C486.084 45.9147 484.917 42.1991 482.817 38.4832C480.716 34.9997 477.915 33.3737 474.648 33.3737V25.7104H475.348C481.883 25.7104 487.018 27.1039 490.285 30.1232C493.553 32.9096 495.886 36.161 497.054 39.6444C497.987 41.7344 498.454 43.8246 498.687 45.9149C498.921 47.7726 498.921 49.6303 498.921 50.7916C498.921 52.1851 498.921 53.8106 498.687 55.4366C498.454 57.2943 497.987 59.1523 497.287 61.0101C496.12 64.7257 493.786 67.977 490.285 71.2283C487.018 74.2474 481.883 75.873 475.348 75.873H474.648ZM474.648 25.7104V33.3737C471.147 33.3737 468.346 34.9999 466.479 38.251C464.379 41.7345 463.445 45.9147 463.445 50.7916V52.882C463.445 53.8106 463.678 54.5074 463.912 55.2041C464.379 58.4554 465.779 61.4745 467.879 64.2614C469.746 66.8159 472.081 68.2094 474.648 68.4414V75.873H474.181C467.646 75.6395 462.511 74.0152 459.01 70.7638C455.51 67.2803 453.175 63.7964 451.775 59.8486C451.308 58.4552 451.075 57.2942 450.841 55.9008C450.608 54.5073 450.608 53.3464 450.608 52.1853V51.4883V51.0238V50.5593V50.0945V48.2372C450.608 47.5405 450.608 47.0763 450.841 46.379C451.542 41.2702 453.875 36.6256 457.843 32.2134C461.811 28.033 467.413 25.9429 474.648 25.7104ZM339.978 74.9441V67.5125C340.912 67.2787 341.846 66.5836 342.546 65.6548C343.479 64.2613 344.18 62.6354 344.413 60.7775V59.6166C344.413 57.5265 343.713 55.4367 342.546 53.8107C341.846 52.882 341.145 51.953 339.978 51.7205V42.4313C340.445 41.5025 340.679 40.5735 340.912 39.4125V38.948V37.7868V37.322C340.678 36.3929 340.445 35.6962 339.978 34.7677V25.7104C344.18 25.7104 347.447 26.872 349.781 29.4265C352.349 31.7485 353.516 34.303 353.749 37.0898C353.749 40.1092 353.049 42.4313 351.882 43.5928C350.715 44.9859 349.314 45.9148 347.914 46.6116L347.447 46.845C351.648 48.4708 353.982 50.5606 354.916 53.1155C355.85 55.6696 356.316 58.4564 356.316 61.4758C356.083 66.1204 354.216 69.604 351.181 71.6943C347.914 73.7843 344.18 74.9453 339.978 74.9453V74.9441ZM361.918 34.9999C361.918 32.9097 361.684 31.0518 361.217 29.4265C360.751 27.8006 360.05 26.6396 358.883 25.7104H376.855C375.921 27.1039 374.988 28.265 374.521 29.6588C374.054 31.0518 373.821 33.142 373.821 35.6964V58.4554C373.821 61.2423 374.288 63.1003 375.455 64.4933C376.622 65.8868 378.022 66.5835 379.422 66.8157H379.889C381.523 66.3515 382.924 65.6549 383.857 64.2614C385.024 62.6357 385.724 60.546 385.724 57.991V36.8578C385.724 34.3031 385.49 31.9808 385.257 29.8907C384.79 28.0329 383.857 26.6396 381.99 25.7104H401.128L400.661 26.1749C399.727 27.1039 399.261 28.033 398.794 28.962C398.328 29.8908 398.094 31.5161 398.094 33.8384V66.119V67.5125V68.9062C398.327 70.0673 398.794 70.9962 399.261 72.1572C399.727 73.0864 400.661 74.0151 401.595 74.7119H385.724V68.9062C384.557 70.7638 383.157 72.1573 381.523 73.3184C380.123 74.2474 378.489 74.944 376.855 75.176C376.388 75.4097 376.155 75.4098 375.688 75.4098H374.521C371.487 75.4098 368.453 74.2485 365.885 71.9259C363.318 69.3715 361.918 66.1204 361.918 62.1725V61.4758V61.0116V35.0009V34.9999ZM408.13 34.5352C408.13 32.677 407.897 31.2842 407.43 29.8907C406.963 28.7297 406.03 27.5682 404.629 26.4071H423.535L423.067 26.8719C422.834 27.1054 422.601 27.3358 422.367 27.3358L420.967 29.4265C420.733 30.355 420.5 31.2842 420.5 32.6772V48.005L430.303 33.3737L431.003 31.9808C431.237 31.5162 431.236 31.2841 431.236 30.8193C431.236 30.3548 431.003 29.8908 430.769 29.4265L430.069 28.0328C429.836 27.7992 429.602 27.5681 429.136 27.3358C428.902 26.8719 428.669 26.6396 428.202 26.4071H445.706L430.769 46.1468L442.673 66.5835C442.906 67.0482 443.139 67.2803 443.373 67.7447C443.373 67.9783 443.607 68.4413 443.84 68.6736L445.94 72.1572C446.641 73.0864 447.574 74.0151 448.274 74.7119H438.471C436.838 74.7119 435.204 74.478 433.804 74.2474C432.637 73.7831 431.47 72.854 430.069 71.4605C429.836 70.9963 429.602 70.5313 429.136 70.0671C428.902 69.6026 428.435 68.9062 428.202 68.4414L420.5 53.8107V67.7447C420.5 69.3706 420.967 70.7637 421.434 71.925C422.134 73.0864 422.601 74.0152 423.535 74.4799L404.629 74.7134C405.562 74.249 406.263 73.5522 406.73 72.6232C407.43 71.4622 407.663 70.3009 407.897 69.3722C408.13 68.9078 408.131 68.443 408.131 67.9788V66.585V34.537L408.13 34.5352ZM339.978 25.7104V34.7677C339.745 34.534 339.745 34.3029 339.512 34.3029C338.578 33.1418 337.645 32.6772 336.244 32.6772H335.544V44.5214C336.011 44.5214 336.011 44.7552 336.244 44.7552H336.711C338.111 44.7552 339.045 44.2902 339.512 43.1292C339.745 42.8955 339.745 42.6647 339.978 42.4325V51.7217C339.278 51.4881 338.345 51.2576 337.411 51.2576H336.945H336.478H336.011C335.777 51.4912 335.544 51.491 335.544 51.491V66.5865C336.011 66.8204 336.711 67.0514 337.178 67.2833C337.645 67.5169 338.344 67.7474 338.811 67.7474C339.045 67.7474 339.512 67.514 339.978 67.514V74.9453H339.512L339.045 74.7119H338.578H338.111H319.673C321.073 74.2474 322.007 73.3184 322.474 72.1572C322.941 70.7637 323.174 69.3704 323.174 67.9769V67.0483V66.119V34.9999V32.6772C323.174 31.9809 323.174 31.2842 322.94 30.5874C322.706 29.8907 322.473 28.962 322.007 28.265C321.54 27.5683 321.073 26.6396 320.139 25.7104H339.745H339.978Z" fill="#0089CA"/>
</svg>
