<svg width="1084" height="166" viewBox="0 0 1084 166" fill="none" xmlns="http://www.w3.org/2000/svg">
<path d="M0 0H165.25C165.25 55.08 165.25 110.16 165.24 165.24C110.16 165.25 55.08 165.24 0 165.25V0ZM22.01 31.02C34.87 48.24 47.92 65.31 60.84 82.48C48.03 99.72 34.9 116.72 22.07 133.95C51.4 134.07 80.72 133.95 110.05 134.01C123.25 116.93 135.97 99.48 149.26 82.46L149.01 82.47C136.06 65.3 123.05 48.17 110.12 31C80.75 31.02 51.38 30.97 22.01 31.02Z" fill="#790008"/>
<path d="M221.25 48.29C231.09 36.02 246.22 28.14 261.94 27.25C276.83 26.1 291.98 31.33 303.17 41.18C298.12 46.27 293.06 51.33 287.97 56.38C279.36 49.4 267.4 46.65 256.68 49.71C244.72 52.85 235.12 63.07 232.45 75.11C229.19 88.18 233.9 103.03 244.65 111.31C256.93 121.36 275.98 120.85 288.05 110.7C293.11 115.77 298.28 120.75 303.21 125.96C293.22 134.64 280.23 139.86 266.97 140.02C250.26 140.48 233.52 133.13 222.61 120.46C214.98 111.77 210.12 100.67 209.03 89.15C207.5 74.63 211.97 59.58 221.25 48.29Z" fill="#790008"/>
<path d="M323.25 30.25C330.5 30.25 337.74 30.26 344.99 30.24C345.01 65.83 344.99 101.41 345 137C337.75 137 330.5 137.01 323.25 136.99C323.26 101.41 323.25 65.83 323.25 30.25Z" fill="#790008"/>
<path d="M371 30C378.05 29.98 385.1 30.04 392.16 29.97C404.73 52.58 416.98 75.39 429.71 97.92C442.05 75.24 454.57 52.67 466.91 29.99C474.02 30.01 481.13 29.99 488.25 30C488.21 65.6 488.32 101.19 488.19 136.79C480.95 136.68 473.72 136.81 466.48 136.72C466.53 115.65 466.48 94.59 466.51 73.53C454.04 94.82 442.16 116.47 429.47 137.62C417.35 116.19 404.9 94.95 392.73 73.55C392.77 94.62 392.74 115.68 392.75 136.75C385.5 136.75 378.26 136.74 371.01 136.76C370.98 101.17 371.01 65.59 371 30Z" fill="#790008"/>
<path d="M513.01 30.24C527.69 30.26 542.36 30.24 557.04 30.25C563.83 30.38 570.8 31.81 576.6 35.5C590.61 44.06 593.83 66.29 582.13 78.07C580.63 79.67 578.85 80.99 577.08 82.27C583.75 85.78 588.87 92.29 590.11 99.79C591.92 109.91 589.61 121.53 581.76 128.67C575.5 134.66 566.6 136.82 558.16 136.93C543.11 137.09 528.05 136.96 513 137C513.01 101.41 512.98 65.83 513.01 30.24ZM534.75 49.75C534.74 57.5 534.75 65.25 534.75 73C541.15 72.98 547.56 73.03 553.97 72.99C557.7 72.92 561.73 72.14 564.46 69.39C568.34 65.27 568.44 58.32 564.99 53.9C562.34 50.71 557.96 49.72 553.99 49.74C547.57 49.75 541.16 49.75 534.75 49.75ZM534.75 92.51C534.75 100.75 534.74 109 534.75 117.25C541.82 117.26 548.89 117.24 555.96 117.27C559.27 117.37 562.75 116.44 565.23 114.15C570.17 109.39 570.26 100.52 565.22 95.8C562.5 93.22 558.6 92.55 554.99 92.5C548.24 92.49 541.49 92.5 534.75 92.51Z" fill="#790008"/>
<path d="M635.24 30.01C638.87 30.05 642.5 29.88 646.13 30.06C647.79 31.35 648.72 33.37 650.05 34.99C669.97 62.2 689.73 89.53 709.76 116.66C709.74 87.77 709.76 58.89 709.75 30C713.5 30 717.25 30 721 30C721 65.5 721 101 721 136.5C717.21 136.5 713.42 136.49 709.64 136.52C688.6 107.58 667.57 78.63 646.5 49.71C646.5 78.64 646.5 107.57 646.5 136.49C642.72 136.48 638.94 136.57 635.18 136.41C635.35 100.95 635.21 65.48 635.24 30.01Z" fill="#790008"/>
<path d="M749 30C752.75 30 756.49 30 760.25 30C760.25 65.5 760.24 100.99 760.25 136.48C756.5 136.51 752.75 136.49 749.01 136.5C748.98 101 749.01 65.5 749 30Z" fill="#790008"/>
<path d="M777.57 137.22C790.54 101.71 803.52 66.2 816.58 30.73C821.78 30.78 826.97 30.74 832.17 30.75C844.54 66 856.89 101.27 869.3 136.5C864.88 136.49 860.46 136.51 856.05 136.49C852.76 127.06 849.42 117.64 846.03 108.24C831.34 108.25 816.66 108.25 801.98 108.25C798.7 117.9 795.55 127.61 792.26 137.26C787.36 137.22 782.46 137.28 777.57 137.22ZM806.48 95.48C818.17 95.53 829.87 95.49 841.56 95.5C835.7 78.42 829.92 61.31 824.16 44.2C818.29 61.3 812.3 78.36 806.48 95.48Z" fill="#790008"/>
<path d="M894.27 48.18C903.15 39.04 915.03 32.47 927.84 31.29C943.63 29.7 959.35 35.56 972.12 44.55C969.63 47.78 967.01 50.9 964.54 54.14C960.29 48.09 952.76 45.83 945.97 44C934.16 40.75 920.76 42.51 910.79 49.84C901.78 56.64 895.76 66.97 893.37 77.92C892.02 89.24 893.14 101.6 899.86 111.18C902.17 114.8 905.85 117.13 909 119.94C915.68 125.39 924.44 127.86 932.98 127.78C943.49 127.88 953.89 125.19 963.5 121.06C963.49 110.12 963.52 99.18 963.49 88.24C955.16 88.25 946.83 88.25 938.5 88.24C938.5 84.92 938.5 81.6 938.49 78.28C950.32 78.21 962.15 78.28 973.99 78.24C974.01 95.16 973.99 112.07 974 128.99C962.71 135.29 949.77 137.93 937.03 139.2C923.54 139.48 909.45 136.02 898.95 127.21C888.69 118.78 882.7 105.95 880.94 92.95C879.59 77.13 883.61 60.28 894.27 48.18Z" fill="#790008"/>
<path d="M992.04 137.11C1005.07 101.68 1018.04 66.23 1030.97 30.76C1036.17 30.73 1041.37 30.79 1046.58 30.71C1058.53 64.36 1070.21 98.11 1082.12 131.78C1082.68 133.29 1082.99 134.87 1083.12 136.49C1078.93 136.51 1074.76 136.49 1070.59 136.51C1067.2 127.11 1063.9 117.67 1060.56 108.26C1045.82 108.24 1031.08 108.23 1016.35 108.27C1013.19 117.94 1009.91 127.57 1006.73 137.23C1001.83 137.2 996.93 137.39 992.04 137.11ZM1038.58 44.27C1032.78 61.38 1026.73 78.4 1020.98 95.53C1032.63 95.47 1044.29 95.51 1055.94 95.51C1050.27 78.39 1044.39 61.34 1038.58 44.27Z" fill="#790008"/>
<path d="M22.0098 31.0201C51.3798 30.9701 80.7498 31.0201 110.12 31.0001C123.05 48.1701 136.06 65.3001 149.01 82.4701C119.62 82.5301 90.2298 82.5001 60.8398 82.4801C47.9198 65.3101 34.8698 48.2401 22.0098 31.0201Z" fill="white"/>
<path d="M60.8398 82.48C90.2298 82.5 119.62 82.53 149.01 82.47L149.26 82.46C135.97 99.48 123.25 116.93 110.05 134.01C80.7198 133.95 51.3998 134.07 22.0698 133.95C34.8998 116.72 48.0298 99.72 60.8398 82.48Z" fill="#ED3024"/>
</svg>
