<svg width="166" height="166" viewBox="0 0 166 166" fill="none" xmlns="http://www.w3.org/2000/svg">
<path d="M0 0H165.25C165.25 55.08 165.25 110.16 165.24 165.24C110.16 165.25 55.08 165.24 0 165.25V0ZM22.01 31.02C34.87 48.24 47.92 65.31 60.84 82.48C48.03 99.72 34.9 116.72 22.07 133.95C51.4 134.07 80.72 133.95 110.05 134.01C123.25 116.93 135.97 99.48 149.26 82.46L149.01 82.47C136.06 65.3 123.05 48.17 110.12 31C80.75 31.02 51.38 30.97 22.01 31.02Z" fill="#790008"/>
<path d="M22.0098 31.0201C51.3798 30.9701 80.7498 31.0201 110.12 31.0001C123.05 48.1701 136.06 65.3001 149.01 82.4701C119.62 82.5301 90.2298 82.5001 60.8398 82.4801C47.9198 65.3101 34.8698 48.2401 22.0098 31.0201Z" fill="white"/>
<path d="M60.8398 82.48C90.2298 82.5 119.62 82.53 149.01 82.47L149.26 82.46C135.97 99.48 123.25 116.93 110.05 134.01C80.7198 133.95 51.3998 134.07 22.0698 133.95C34.8998 116.72 48.0298 99.72 60.8398 82.48Z" fill="#ED3024"/>
</svg>
