<svg width="420" height="271" viewBox="0 0 420 271" fill="none" xmlns="http://www.w3.org/2000/svg">
<path d="M127.722 218.3L126.972 219.026C114.878 231.347 100.881 237.877 86.4577 237.877C56.3514 237.877 34.4973 215.292 34.4973 184.129C34.4973 153.022 56.3514 130.405 86.4577 130.405C100.881 130.405 114.878 136.962 126.972 149.316L127.722 150.063L147.084 126.652L146.566 126.016C130.464 106.989 111.144 97.7257 87.3923 97.7257C63.5582 97.7257 41.7708 105.747 26.0686 120.212C9.00783 135.877 0 157.969 0 184.129C0 210.275 9.00783 232.422 26.0686 248.091C41.7708 262.623 63.5582 270.6 87.3923 270.6C111.144 270.6 130.464 261.342 146.566 242.307L147.084 241.716L127.722 218.3Z" fill="#003B70"/>
<path d="M166.649 267.414H200.854V100.439H166.649V267.414V267.414Z" fill="#003B70"/>
<path d="M334.836 231.106C325.711 236.663 317.218 239.456 309.592 239.456C298.541 239.456 293.547 233.624 293.547 220.632V132.034H328.382V100.591H293.547V48.6357L260.021 66.5774V100.591H231.1V132.034H260.021V226.284C260.021 251.962 275.232 269.504 297.937 269.96C313.355 270.262 322.649 265.669 328.294 262.312L328.625 262.066L336.859 229.871L334.836 231.106V231.106Z" fill="#003B70"/>
<path d="M363.165 267.414H397.392V100.439H363.165V267.414V267.414Z" fill="#003B70"/>
<path fill-rule="evenodd" clip-rule="evenodd" d="M417.88 70.8108C386.569 26.4605 334.571 -2.05504e-05 281.666 -2.05504e-05C228.784 -2.05504e-05 176.775 26.4605 145.516 70.8108L143.912 73.0928H183.337L183.774 72.6194C210.607 44.924 245.636 30.2776 281.666 30.2776C317.701 30.2776 352.723 44.924 379.608 72.6194L380.044 73.0928H419.457L417.88 70.8108Z" fill="#D9261C"/>
</svg>
