<svg width="1039" height="271" viewBox="0 0 1039 271" fill="none" xmlns="http://www.w3.org/2000/svg">
<path d="M127.722 218.3L126.972 219.026C114.878 231.347 100.881 237.877 86.4577 237.877C56.3514 237.877 34.4973 215.292 34.4973 184.129C34.4973 153.022 56.3514 130.405 86.4577 130.405C100.881 130.405 114.878 136.962 126.972 149.316L127.722 150.063L147.084 126.652L146.566 126.016C130.464 106.989 111.144 97.7257 87.3923 97.7257C63.5582 97.7257 41.7708 105.747 26.0686 120.212C9.00783 135.877 0 157.969 0 184.129C0 210.275 9.00783 232.422 26.0686 248.091C41.7708 262.623 63.5582 270.6 87.3923 270.6C111.144 270.6 130.464 261.342 146.566 242.307L147.084 241.716L127.722 218.3Z" fill="#003B70"/>
<path d="M166.649 267.414H200.854V100.439H166.649V267.414V267.414Z" fill="#003B70"/>
<path d="M334.836 231.106C325.711 236.663 317.218 239.456 309.592 239.456C298.541 239.456 293.547 233.624 293.547 220.632V132.034H328.382V100.591H293.547V48.6357L260.021 66.5774V100.591H231.1V132.034H260.021V226.284C260.021 251.962 275.232 269.504 297.937 269.96C313.355 270.262 322.649 265.669 328.294 262.312L328.625 262.066L336.859 229.871L334.836 231.106V231.106Z" fill="#003B70"/>
<path d="M363.165 267.414H397.392V100.439H363.165V267.414V267.414Z" fill="#003B70"/>
<path d="M942.923 36.9057V196.183L953.578 179.598C953.57 179.671 1001.45 110.339 1007.58 101.499H1028.92C1024.38 107.601 986.736 159.409 986.736 159.409C986.736 159.409 1035.77 261.593 1038.61 267.414H1017.65C1016.5 265.03 974.373 175.85 974.373 175.85L942.923 219.916V267.414H923.401V48.0543C925.108 47.0738 938.328 39.4958 942.923 36.9057V36.9057ZM782.556 121.279C792.626 106.225 808.404 97.9248 826.863 97.9248C863.671 97.9248 883.177 121.4 883.177 165.822V267.414H863.606V170.028C863.606 132.235 850.483 114.691 822.055 114.691C794.846 114.691 778.599 135.387 778.599 170.028V267.414H759.083V101.499H778.599V127.228L782.556 121.279V121.279ZM662.569 97.9248C700.446 97.9248 718.858 115.245 718.858 150.886V267.414H699.335V243.208L695.536 247.397C681.168 263.249 664.676 271 645.039 271C629.652 271 593.85 265.907 593.85 218.674C593.85 180.067 625.72 166.364 655.575 166.364C670.566 166.364 685.375 169.816 696.122 175.838L699.335 177.619V153.799C699.335 127.391 686.437 114.016 660.95 114.016C645.233 114.016 631.048 117.983 616.504 126.181C615.221 123.233 610.709 113.258 609.454 110.413C624.655 102.401 643.425 97.9248 662.569 97.9248ZM612.994 217.048C612.994 241.851 625.845 255.519 649.193 255.519C669.065 255.519 686.714 246.131 698.967 229.058L699.335 228.472V192.096L698.25 191.468C685.789 184.364 673.026 181.499 654.268 181.499C628.445 181.499 612.994 194.785 612.994 217.048ZM462.248 36.9057V125.661L466.028 121.523C480.405 105.642 496.32 97.9248 514.618 97.9248C551.234 97.9248 572.251 128.445 572.251 181.673C572.251 235.934 548.381 271 511.423 271C493.416 271 478.997 264.014 466.048 249.038L462.248 244.616V267.414H442.766V48.0543C444.425 47.0738 457.668 39.4958 462.248 36.9057ZM462.712 140.117L462.248 140.73V227.096L462.597 227.626C473.365 244.291 490.909 254.256 509.581 254.256C538.417 254.256 553.034 229.951 553.034 182.027C553.034 139.214 536.839 114.691 508.605 114.691C491.491 114.691 476.049 123.242 462.712 140.117" fill="#003B70"/>
<path fill-rule="evenodd" clip-rule="evenodd" d="M417.88 70.8108C386.569 26.4605 334.571 -2.05504e-05 281.666 -2.05504e-05C228.784 -2.05504e-05 176.775 26.4605 145.516 70.8108L143.912 73.0928H183.337L183.774 72.6194C210.607 44.924 245.636 30.2776 281.666 30.2776C317.701 30.2776 352.723 44.924 379.608 72.6194L380.044 73.0928H419.457L417.88 70.8108Z" fill="#D9261C"/>
</svg>
