<svg width="630" height="158" viewBox="0 0 630 158" fill="none" xmlns="http://www.w3.org/2000/svg">
<path d="M14.7651 100.904H21.575C25.462 100.904 28.6016 101.213 32.064 105.211C34.5139 107.974 37.2069 114.081 37.2069 123.96C37.2069 127.507 37.2328 131.018 36.5613 134.626C35.4824 140.317 32.8556 149.44 17.834 149.44C13.8144 149.44 14.7651 149.336 14.7651 149.336V100.91V100.904ZM22.4904 157.859C42.7079 157.859 51.7597 148.838 51.7597 124.199C51.7597 117.685 49.8449 106.767 43.778 100.108C37.5031 93.2713 29.3888 92.4177 22.5346 92.4177H0V157.859H22.4904V157.859Z" fill="#046148"/>
<path d="M86.2985 140.909C86.2985 143.076 86.2364 145.985 83.9372 148.068C82.0089 149.766 79.2941 149.894 78.2593 149.894C75.6946 149.894 73.3862 148.961 72.4133 145.791C72.1702 144.791 72.0725 143.784 72.0725 142.819C72.0725 138.039 75.2432 136.027 78.7675 135.169C80.6148 134.741 81.8584 134.66 86.2983 134.29V140.91L86.2985 140.909ZM86.2985 128.39L78.9316 129.115C70.994 130.025 67.956 130.75 64.5599 133.007C59.0765 136.734 59.0059 142.187 59.0059 143.978C59.0059 148.448 60.3627 151.813 62.2119 153.75C64.6482 156.589 68.5088 157.628 72.2365 157.628C81.3768 157.628 85.7369 153.476 85.7369 153.476L85.7994 156.43H98.1237V125.471C98.1237 121.987 98.2069 117.087 94.2102 113.62C92.1185 111.829 90.2877 111.003 87.4578 110.6C84.6454 110.095 83.6681 109.892 80.9263 109.892C72.613 109.892 66.3425 111.354 62.7696 117.714C61.2361 120.469 61.315 123.233 61.315 125.347H72.6132C72.7172 123.504 72.8001 120.951 74.2402 119.178C74.9696 118.17 76.6768 116.732 79.8385 116.732C80.8691 116.732 83.8626 116.732 85.3882 119.227C86.2381 120.7 86.3087 122.614 86.3087 124.785V128.389L86.2985 128.39Z" fill="#046148"/>
<path d="M184.412 140.909C184.412 143.076 184.35 145.985 182.033 148.068C180.155 149.766 177.43 149.894 176.329 149.894C173.782 149.894 171.509 148.961 170.523 145.791C170.275 144.791 170.205 143.784 170.205 142.819C170.205 138.039 173.358 136.027 176.9 135.169C178.747 134.741 179.977 134.66 184.413 134.29V140.91L184.412 140.909ZM184.412 128.39L177.076 129.115C169.09 130.025 166.096 130.75 162.678 133.007C157.226 136.734 157.142 142.187 157.142 143.978C157.142 148.448 158.459 151.813 160.29 153.75C162.762 156.589 166.644 157.628 170.355 157.628C179.517 157.628 183.868 153.476 183.868 153.476L183.931 156.43H196.211V125.471C196.211 121.987 196.315 117.087 192.341 113.62C190.25 111.829 188.384 111.003 185.589 110.6C182.763 110.095 181.799 109.892 179.04 109.892C170.731 109.892 164.474 111.354 160.879 117.714C159.366 120.469 159.464 123.233 159.464 125.347H170.731C170.835 123.504 170.918 120.951 172.362 119.178C173.083 118.17 174.79 116.732 177.956 116.732C178.987 116.732 181.976 116.732 183.541 119.227C184.349 120.7 184.42 122.614 184.42 124.785V128.389L184.412 128.39Z" fill="#046148"/>
<path d="M370.076 156.429H357.217V128.721C357.217 126.948 357.217 125.471 357.072 123.963C356.947 122.512 356.531 117.807 350.925 117.807C349.44 117.807 348.179 118.175 347.374 118.516C343.585 120.253 343.487 123.331 343.395 125.777V156.43H330.509V111.087H343.395V116.243C346.631 113.346 349.559 110.176 356.789 110.176C362.86 110.176 365.867 112.528 367.11 113.983C369.971 117.198 369.971 121.368 370.081 124.618V156.43L370.076 156.429Z" fill="#046148"/>
<path d="M147.68 156.429H134.83V128.721C134.83 126.948 134.83 125.471 134.618 123.963C134.534 122.512 134.096 117.807 128.458 117.807C127.02 117.807 125.76 118.175 124.956 118.516C121.157 120.253 121.046 123.331 120.941 125.777V156.43H108.063V111.087H120.941V116.243C124.239 113.346 127.131 110.176 134.352 110.176C140.459 110.176 143.413 112.528 144.691 113.983C147.579 117.198 147.579 121.368 147.68 124.618V156.43L147.68 156.429Z" fill="#046148"/>
<path d="M205.659 111.065H218.532V116.34C221.004 114.134 225.364 110.136 233.094 110.136C241.938 110.136 244.396 115.416 244.998 117.158C250.264 112.064 253.727 110.136 258.772 110.136C261.244 110.136 262.938 110.539 264.574 111.136C271.508 113.798 271.658 119.962 271.786 123.959V156.399H258.688V126.851C258.626 123.641 258.522 121.824 257.689 120.4C257.523 120.032 256.243 117.773 252.988 117.773C251.887 117.773 249.787 118.039 248.801 118.581C245.197 120.302 245.059 123.295 244.998 125.723V156.399H232.236V127.041C232.236 123.552 232.277 117.772 226.465 117.772C225.152 117.772 222.865 118.144 221.738 118.767C218.532 120.744 218.443 123.641 218.532 127.673V156.399H205.659V111.064V111.065Z" fill="#046148"/>
<path d="M309.801 132.778C309.801 135.351 309.697 137.823 309.429 140.317C309.159 142.82 308.72 147.852 304.865 149.966C303.756 150.496 302.588 150.774 301.389 150.774C294.089 150.774 293.43 143.115 293.279 140.316C293.113 138.229 292.982 136.186 292.982 134.156C292.982 132.342 293.107 129.823 293.371 126.851C293.633 124.45 294.167 119.856 297.881 117.685C299.151 117.042 300.371 116.778 301.791 116.778C308.72 116.778 309.348 124.048 309.511 126.852C309.698 128.838 309.798 130.836 309.798 132.777L309.801 132.778ZM322.927 133.008C322.927 128.984 322.927 121.453 318.452 116.341C313.053 109.894 305.323 109.894 302.586 109.894C299.411 109.894 292.11 110.019 286.379 115.218C279.896 120.998 279.896 130.226 279.896 134.896C279.896 143.758 281.895 153.128 293.105 156.4C296.368 157.396 298.102 157.572 301.387 157.572C304.461 157.572 312.146 157.572 317.855 151.227C322.927 145.611 322.927 137.191 322.927 133.008" fill="#046148"/>
<path d="M218.748 46.2286L99.5879 0.000976562L99.6064 21.063L218.748 46.2286Z" fill="#FEC02B"/>
<path d="M468.938 99.2064L218.762 46.2615L468.938 133.181V99.2064Z" fill="#FEC02B"/>
<path d="M99.5869 46.2286H218.698L99.5869 21.063V46.2286Z" fill="#EF9826"/>
<path d="M629.37 133.127V46.1993H468.939V99.2061L629.37 133.127Z" fill="#EF9826"/>
<path d="M0 0.000244141V46.2281H99.6016V21.0624L0 0.000244141Z" fill="#EB712D"/>
<path d="M218.709 46.1984V46.2398L468.938 99.1934V46.2089H218.709V46.1984Z" fill="#EB712D"/>
</svg>
