<svg width="710" height="125" viewBox="0 0 710 125" fill="none" xmlns="http://www.w3.org/2000/svg">
<path d="M649.392 122.005H529.377V2.0172H649.392V122.005Z" fill="white"/>
<path d="M469.353 62.0102L529.366 122.018V1.99699L469.353 62.0102Z" fill="#E71D1C"/>
<path d="M529.375 122.014H649.396L589.383 62.0067L529.375 122.014Z" fill="#E71D1C"/>
<path d="M589.385 62.008L649.398 1.99487H529.377L589.385 62.008Z" fill="#E71D1C"/>
<path d="M649.399 1.99699V122.018L709.413 62.0102L649.399 1.99699Z" fill="#E71D1C"/>
<path d="M91.2001 66.988C91.1174 66.988 91.2001 109.862 91.2001 109.862C91.2001 115.256 86.568 119.981 80.5022 119.981H74.69V122.165H123.884V119.981H118.072C112.089 119.981 107.374 115.178 107.374 109.862V66.3152V14.3421C107.374 9.11442 112.006 4.23417 118.072 4.23417H123.884V2.03944H74.69V4.23417H80.5022C86.6507 4.23417 91.2001 9.11442 91.2001 14.3421V60.9222H32.913V14.3421C32.913 9.11442 37.6278 4.23417 43.6109 4.23417H49.4176V2.03944H0.223633V4.23417H6.04132C12.1016 4.23417 16.7392 9.11442 16.7392 14.3421V66.3152V109.862C16.7392 115.178 12.1016 119.981 6.04132 119.981H0.223633V122.165H49.4176V119.981H43.6109C37.6278 119.981 32.913 115.178 32.913 109.862C32.913 109.862 32.9902 66.988 32.913 66.988H91.2001V66.988Z" fill="#1A1818"/>
<path d="M208.19 90.7338C208.614 97.7922 204.236 108.507 198.164 113.977C192.33 119.249 184.014 123.837 172.897 123.837C160.264 123.837 149.395 117.098 145.436 115.582C143.037 114.661 139.894 114.76 138.019 115.918C135.83 117.269 134.484 119.453 133.977 123.5H132.124V81.8832H133.977C135.664 94.6876 141.642 102.209 145.353 106.483C151.419 113.475 162.872 117.434 173.907 115.664C182.674 114.258 192.27 104.746 191.216 92.9616C190.841 88.71 189.909 82.5228 181.07 76.7493C175.522 73.1208 167.642 67.9758 160.176 63.0184C150.752 56.7706 142.199 50.0044 139.795 47.2638C136.64 43.6739 132.714 38.5069 132.714 30.2464C132.714 23.1714 135.411 15.0873 141.14 9.69421C146.87 4.30664 154.617 0.264585 165.734 0.264585C176.857 0.264585 185.283 6.15947 188.145 7.50498C191.007 8.8505 194.172 8.53618 195.975 7.50498C197.745 6.49034 198.925 4.97388 199.433 0.931828H201.286V40.3598H199.433C197.745 27.5498 192.187 17.9548 188.31 14.4145C184.439 10.8743 176.857 5.98853 165.569 8.17775C154.739 10.2787 149.467 15.1755 148.469 23.8441C147.708 30.4504 151.292 34.5145 153.354 36.9849C157.567 42.0361 184.296 57.1842 196.4 67.6505C202.637 73.0381 207.522 79.4458 208.19 90.7338" fill="#1A1818"/>
<path d="M247.35 115.372C255.671 117.947 271.514 119.927 282.554 112.014C295.799 102.534 298.59 79.3683 279.896 67.2973C272.369 62.4336 253.587 62.77 247.35 64.2368V115.372ZM247.35 57.4652C253.245 58.9761 270.604 59.3842 277.337 55.105C287.892 48.405 291.553 37.6519 289.607 28.1451C288.438 22.4322 285.416 17.1604 280.199 13.4934C269.926 6.24744 255.103 7.42201 247.35 9.78217V57.4652V57.4652ZM286.1 60.8289C307.512 68.1796 313.616 83.2946 309.641 98.8672C304.975 117.175 284.33 120.897 277.635 121.785C274.613 122.177 266.899 122.144 259.272 122.144C245.663 122.16 228.447 122.116 214.622 122.116V119.927H221.703C226.202 119.927 231.342 116.133 231.342 110.409V14.5025C231.342 8.77304 226.202 4.90193 221.741 4.90193H214.666V2.70721C226.875 2.70721 244.659 2.70169 257.375 2.70721C267.648 2.70721 273.229 3.69428 276.835 4.39461C282.896 5.56918 300.591 10.7968 304.799 27.3014C308.058 40.0838 301.683 56.1968 286.1 60.8289" fill="#1A1818"/>
<path d="M422.242 4.14213L423.974 44.8273L421.531 44.9156C420.351 34.6312 416.474 27.3908 411.589 22.6705C410.182 21.314 407.514 18.5678 403.664 16.1415C397.251 12.0994 387.711 8.52608 376.379 10.5443C359.362 13.5773 350.599 24.8211 346.221 35.6459C340.828 48.9521 337.415 71.71 346.563 90.9111C353.98 106.495 368.24 112.985 379.241 114.662C388.616 116.09 409.399 115.649 425.237 94.2804L427.762 95.9623C415.46 113.316 399.121 124.433 380.421 124.262C356.5 124.053 341.468 110.868 334.597 103.037C327.351 94.7823 321.792 79.1159 321.721 65.4677C321.665 53.3361 324.34 39.8368 328.696 31.9402C336.196 18.3803 351.862 4.90311 372.497 2.87933C387.954 1.36839 398.111 4.39579 406.791 9.36426C411.125 11.8513 413.563 12.138 415.923 11.1344C418.278 10.1197 420.18 8.10146 420.18 4.14213H422.242V4.14213Z" fill="#1A1818"/>
</svg>
