<svg width="1000" height="228" viewBox="0 0 1000 228" fill="none" xmlns="http://www.w3.org/2000/svg">
<path d="M168.885 201.914C196.186 186.142 213.253 159.164 213.253 129.836C213.253 64.4546 147.237 41.0666 147.237 41.0666C135.092 34.1601 120.116 30.4586 103.543 30.4586C102.317 30.4586 100.114 30.4954 98.8777 30.4954C115.725 18.2739 137.621 10.7405 159.763 10.7405C211.363 10.7405 250.411 58.0667 250.411 102.371C250.411 153.898 212.664 193.903 168.885 201.914ZM135.693 201.723C102.137 195.374 74.5777 170.827 62.7369 141.741C74.5009 152.894 91.2359 160.519 112.609 160.519C146.715 160.519 179.147 135.23 179.147 97.8027C179.147 79.3805 172.401 67.343 172.401 67.343C186.664 81.3106 195.674 100.904 195.674 124.775C195.674 158.333 169.674 189.641 135.693 201.723ZM105.692 207.043C65.6369 207.043 23.3291 169.601 23.3291 123.009C23.3291 100.238 30.7132 77.5218 49.4425 62.2457C46.1081 68.9503 43.8256 76.9675 42.9042 86.613C42.4582 90.0957 42.2026 93.6973 42.2026 97.4745C42.2026 147.796 70.7689 189.521 115.488 206.414C112.257 206.824 108.98 207.043 105.692 207.043ZM109.559 44.1064C138.675 44.1064 161.197 71.7829 161.197 96.4521C161.197 129.836 140.1 152.181 110.623 152.181C84.1948 152.181 60.5806 128.54 60.5806 94.909C60.5806 67.1463 81.9617 44.1064 109.559 44.1064ZM151.067 0C123.87 0 85.2298 11.3148 62.4435 38.8693C26.3606 54.1222 0 88.1014 0 125.305C0 182.984 50.8489 217.44 112.133 217.44C122.215 217.44 131.852 215.281 140.814 213.042C147.408 214.062 154.26 214.605 161.359 214.605C219.203 214.605 270.138 169.321 270.138 110.115C270.138 49.0954 219.887 0 151.067 0V0Z" fill="#00A4E4"/>
<path d="M365.652 169.123C365.652 187.683 353.45 198.159 327.433 198.945V227.207C356.956 227.207 394.38 211.736 394.38 169.123V30.6311H365.652V169.123Z" fill="#00A4E4"/>
<path d="M448.118 87.626C450.028 70.4145 457.612 55.2183 476.57 55.2183C495.558 55.2183 503.13 70.4145 505.061 87.626H448.118ZM535.127 90.263C535.127 68.3023 522.64 27.991 476.57 27.991C432.934 27.991 418.051 63.3439 418.051 99.938C418.051 136.576 433.236 171.908 483.355 171.908C496.926 171.908 514.229 168.779 534.035 155.153L519.409 133.195C506.951 140.795 494.987 144.702 483.355 144.702C461.127 144.702 450.827 130.054 448.395 114.879H508.822C526.709 114.879 535.127 108.091 535.127 90.263Z" fill="#00A4E4"/>
<path d="M613.212 27.991C577.415 27.991 559.065 56.532 559.065 56.532V170.353H587.754V65.6864C587.754 65.6864 596.695 55.2172 613.212 55.2172C631.382 55.2172 641.387 69.6003 641.387 82.4235V170.353H670.154V82.4235C670.154 55.9914 650.882 27.991 613.212 27.991Z" fill="#00A4E4"/>
<path d="M702 170.352H730.706V29.5645H702V170.352Z" fill="#00A4E4"/>
<path d="M947.972 85.0384H948.228C938.43 82.4151 925.764 77.769 925.764 68.0636C925.764 60.9961 933.336 55.2183 947.697 55.2183C962.064 55.2183 978.315 61.5031 984.548 64.3631L993.786 39.4941C984.263 34.7839 965.01 27.991 947.697 27.991C922.779 27.991 896.742 40.2746 896.742 68.0636C896.742 93.6668 920.06 106.518 943.088 112.003C955.584 114.599 971.263 119.601 971.263 129.549C971.263 140.021 958.577 144.731 946.071 144.731C933.889 144.731 917.087 137.115 904.355 130.562L893.235 156.485C905.417 162.526 923.331 171.368 946.071 171.907C972.325 171.907 1000 159.89 1000 129.549C1000 100.185 969.646 90.2556 947.972 85.0384Z" fill="#00A4E4"/>
<path d="M845.747 117.478C845.747 130.26 835.761 144.583 817.706 144.693C799.736 144.583 789.709 130.26 789.709 117.478V29.5645H761.002V117.478C761.002 143.853 780.15 171.725 817.583 171.907H817.915C855.346 171.725 874.457 143.853 874.457 117.478V29.5645H845.747V117.478Z" fill="#00A4E4"/>
</svg>
