<svg width="271" height="218" viewBox="0 0 271 218" fill="none" xmlns="http://www.w3.org/2000/svg">
<path d="M168.885 201.914C196.186 186.142 213.253 159.164 213.253 129.836C213.253 64.4546 147.237 41.0666 147.237 41.0666C135.092 34.1601 120.116 30.4586 103.543 30.4586C102.317 30.4586 100.114 30.4954 98.8777 30.4954C115.725 18.2739 137.621 10.7405 159.763 10.7405C211.363 10.7405 250.411 58.0667 250.411 102.371C250.411 153.898 212.664 193.903 168.885 201.914V201.914ZM135.693 201.723C102.137 195.374 74.5777 170.827 62.7369 141.741C74.5009 152.894 91.2359 160.519 112.609 160.519C146.715 160.519 179.147 135.23 179.147 97.8027C179.147 79.3805 172.401 67.343 172.401 67.343C186.664 81.3106 195.674 100.904 195.674 124.775C195.674 158.333 169.674 189.641 135.693 201.723ZM105.692 207.043C65.6369 207.043 23.3291 169.601 23.3291 123.009C23.3291 100.238 30.7132 77.5218 49.4425 62.2457C46.1081 68.9503 43.8256 76.9675 42.9042 86.613C42.4582 90.0957 42.2026 93.6973 42.2026 97.4745C42.2026 147.796 70.7689 189.521 115.488 206.414C112.257 206.824 108.98 207.043 105.692 207.043V207.043ZM109.559 44.1065C138.675 44.1065 161.197 71.7829 161.197 96.4521C161.197 129.836 140.1 152.181 110.623 152.181C84.1948 152.181 60.5806 128.54 60.5806 94.909C60.5806 67.1463 81.9617 44.1065 109.559 44.1065V44.1065ZM151.067 0C123.87 0 85.2298 11.3148 62.4435 38.8693C26.3606 54.1222 0 88.1014 0 125.305C0 182.984 50.8489 217.44 112.133 217.44C122.215 217.44 131.852 215.281 140.814 213.042C147.408 214.062 154.26 214.605 161.359 214.605C219.203 214.605 270.138 169.321 270.138 110.115C270.138 49.0954 219.887 0 151.067 0V0Z" fill="#00A4E4"/>
</svg>
