<svg width="953" height="481" viewBox="0 0 953 481" fill="none" xmlns="http://www.w3.org/2000/svg">
<path d="M706.931 156.039H740.114V270.146H706.931V156.039V156.039ZM625.258 270.146V191.462C625.258 185.023 625.148 178.845 624.918 172.896C624.698 166.987 624.398 161.378 623.938 156.039H654.362L655.572 176.455C658.451 169.447 663.07 164.148 669.399 160.548C675.687 156.949 683.566 155.17 692.964 155.17H693.944L693.834 185.133C691.824 184.983 690.344 184.873 689.354 184.793C688.335 184.713 687.425 184.673 686.635 184.673C677.957 184.673 671.178 186.803 666.289 191.002C661.36 195.211 658.901 201.08 658.901 208.548V270.146H625.258V270.146ZM575.088 156.039H608.271V270.146H575.088V156.039V156.039ZM521.319 270.146L520.22 253.849C516.131 259.988 511.202 264.617 505.443 267.716C499.684 270.825 493.175 272.385 485.897 272.385C472.07 272.385 460.862 266.966 452.224 256.129C443.626 245.291 439.307 230.934 439.307 213.127C439.307 195.211 443.506 180.854 451.954 170.096C460.402 159.339 471.58 153.96 485.477 153.96C493.015 153.96 499.614 155.43 505.213 158.349C510.862 161.268 515.711 165.737 519.77 171.726V106.45H552.723V247.19C552.723 252.949 552.803 257.638 552.993 261.207C553.183 264.807 553.483 267.796 553.823 270.146H521.319ZM472.94 213.317C472.94 225.105 474.989 234.233 479.038 240.712C483.097 247.19 488.816 250.41 496.125 250.41C503.593 250.41 509.542 247.11 513.891 240.482C518.25 233.853 520.45 224.795 520.45 213.317C520.45 201.8 518.25 192.672 513.891 186.043C509.542 179.375 503.593 176.045 496.125 176.045C488.816 176.045 483.097 179.295 479.038 185.853C474.989 192.412 472.94 201.57 472.94 213.317V213.317ZM316.112 270.146V177.935C316.112 174.675 316.042 171.266 315.852 167.707C315.662 164.148 315.362 160.249 315.013 156.039H346.606L347.296 173.166C351.575 166.267 356.684 161.228 362.563 158.049C368.431 154.87 375.63 153.27 384.148 153.27C396.725 153.27 406.044 156.839 412.142 163.998C418.251 171.116 421.31 182.024 421.31 196.691V270.146H388.697V201.23C388.697 192.712 387.217 186.613 384.298 182.904C381.389 179.225 376.65 177.365 370.061 177.365C363.692 177.365 358.543 179.415 354.674 183.544C350.775 187.633 348.845 193.092 348.845 199.91V270.146H316.112V270.146ZM1.55781 270.146V177.935C1.55781 173.846 1.47782 170.016 1.33785 166.417C1.17789 162.818 0.947934 159.369 0.687988 156.039H32.0914L32.9613 173.166C37.2404 166.267 42.3193 161.228 48.2281 158.049C54.1069 154.87 61.2954 153.27 69.7836 153.27C78.3818 153.27 85.6203 155.17 91.5691 158.999C97.4778 162.818 101.797 168.347 104.526 175.585C108.236 167.897 113.085 162.248 119.063 158.649C125.052 155.05 132.63 153.27 141.839 153.27C154.416 153.27 163.774 156.839 169.913 163.998C176.041 171.116 179.111 182.024 179.111 196.691V270.146H146.158V201.23C146.158 192.712 144.678 186.613 141.759 182.904C138.839 179.225 134.11 177.365 127.522 177.365C121.153 177.365 116.044 179.415 112.245 183.544C108.426 187.633 106.536 193.092 106.536 199.91V270.146H73.5728V201.23C73.5728 192.782 72.1331 186.723 69.2537 182.974C66.3743 179.225 61.7153 177.365 55.2766 177.365C48.9179 177.365 43.869 179.415 40.1198 183.464C36.3706 187.563 34.5109 193.012 34.5109 199.91V270.146H1.55781V270.146ZM268.282 258.228C261.634 264.037 248.626 270.256 239.688 272.265C236.259 273.075 232.52 273.455 228.481 273.455C218.893 273.455 210.864 270.076 204.396 263.347C197.937 256.588 194.718 247.98 194.718 237.522C194.718 229.124 196.377 222.296 199.657 216.997C202.966 211.658 207.615 207.479 213.654 204.409C219.622 201.38 227.071 199.18 235.919 197.891C244.777 196.601 253.965 195.631 263.463 195.031V194.411C263.463 167.127 224.541 170.516 207.905 182.184L202.146 160.688C215.153 154.58 227.951 151.48 243.857 151.48C271.752 151.48 295.317 164.858 295.317 196.831V270.386H268.282V258.228V258.228ZM265.673 235.963V213.967C260.644 214.447 255.155 215.087 249.276 215.897C243.407 216.747 238.948 217.707 235.899 218.796C232.18 220.126 229.32 222.106 227.371 224.635C225.381 227.215 224.391 230.554 224.391 234.743C224.391 263.647 258.144 254.269 265.673 235.963Z" fill="#005440"/>
<path fill-rule="evenodd" clip-rule="evenodd" d="M369.021 83.3545C379.199 94.7321 398.145 125.576 420.571 123.676C473.12 119.207 503.044 62.3889 567.91 66.448C594.565 68.1077 607.112 112.808 633.536 116.658C675.188 122.726 715.089 58.6796 782.975 62.3589C810.889 63.8685 822.417 110.759 850.231 113.468C876.166 115.988 916.787 79.2253 952.49 60.1693C943.402 44.8525 926.505 20.9475 908.529 19.7377C873.126 17.3582 844.812 62.5788 813.679 54.6905C795.553 50.0914 774.917 0.311792 745.063 0.411771C689.805 0.591734 651.673 55.3003 602.813 59.6294C575.099 62.0789 561.771 0.421769 524.639 6.09059C473.84 13.849 421.91 55.7103 369.021 83.3545V83.3545Z" fill="url(#paint0_linear)"/>
<path fill-rule="evenodd" clip-rule="evenodd" d="M4.64716 424.133C10.6959 427.783 19.764 431.682 29.7919 431.682C47.4782 431.682 55.8365 422.304 55.8365 410.876C55.8365 398.769 48.398 392.37 32.3514 385.961C13.9752 379.103 3.95731 369.285 3.95731 356.028C3.95731 340.031 16.7446 326.324 38.4001 326.324C48.638 326.324 57.4862 329.293 63.075 333.192L58.8759 342.08C54.9167 339.331 47.7182 335.472 36.5405 335.472C22.3435 335.472 14.895 344.38 14.895 354.428C14.895 365.865 22.8034 370.644 37.9202 376.833C56.0964 383.892 66.7842 392.82 66.7842 409.506C66.7842 428.242 51.8873 440.81 29.0921 440.81C18.3843 440.81 8.13644 437.86 0.687988 433.281L4.64716 424.133V424.133Z" fill="#005440"/>
<path fill-rule="evenodd" clip-rule="evenodd" d="M89.1398 471.414C96.7382 465.705 106.356 453.168 111.935 440.14C112.875 437.861 113.325 436.461 113.325 435.331C113.325 434.422 112.875 432.822 111.935 430.532L70.5137 328.833H82.3912L111.705 400.599C114.744 408.347 117.754 417.295 119.843 424.134H120.313C122.653 417.505 125.442 408.817 128.922 399.899L156.166 328.833H168.023L134.52 410.636C121.033 444.699 109.176 469.604 93.4089 480.412L89.1398 471.414V471.414Z" fill="#005440"/>
<path fill-rule="evenodd" clip-rule="evenodd" d="M238.318 379.813C213.893 379.103 181.77 382.772 181.77 409.046C181.77 424.823 192.468 431.902 204.106 431.902C222.732 431.902 233.429 420.704 237.159 409.956C238.088 407.667 238.318 405.157 238.318 403.328V379.813V379.813ZM249.496 412.486C249.496 421.154 249.716 430.082 251.126 438.54H240.878L239.248 422.754H238.788C233.209 431.212 220.882 441.03 202.936 441.03C180.36 441.03 170.143 425.513 170.143 410.876C170.143 385.511 192.708 370.195 238.318 370.644V367.675C238.318 356.927 236.239 335.242 209.684 335.472C199.936 335.472 189.679 337.961 181.53 343.68L178.041 335.692C188.289 329.053 200.856 326.324 210.874 326.324C243.187 326.324 249.496 350.069 249.496 369.515V412.486V412.486Z" fill="#005440"/>
<path fill-rule="evenodd" clip-rule="evenodd" d="M276.031 361.736C276.031 350.769 275.791 339.581 275.091 328.833H285.329L285.799 350.999H286.498C291.377 337.061 303.015 326.324 318.142 326.324C319.792 326.324 321.411 326.544 322.821 326.784V337.061C321.181 336.832 319.552 336.832 317.462 336.832C302.105 336.832 291.167 349.859 288.138 367.465C287.418 370.644 287.198 374.314 287.198 377.963V438.54H276.031V361.736V361.736Z" fill="#005440"/>
<path fill-rule="evenodd" clip-rule="evenodd" d="M337.238 328.833H348.405V438.541H337.238V328.833Z" fill="#005440"/>
<path fill-rule="evenodd" clip-rule="evenodd" d="M434.998 379.813C410.573 379.103 378.439 382.772 378.439 409.046C378.439 424.823 389.127 431.902 400.775 431.902C419.401 431.902 430.099 420.704 433.828 409.956C434.748 407.667 434.998 405.157 434.998 403.328V379.813V379.813ZM446.165 412.486C446.165 421.154 446.395 430.082 447.775 438.54H437.557L435.937 422.754H435.457C429.879 431.212 417.541 441.03 399.605 441.03C377.04 441.03 366.802 425.513 366.802 410.876C366.802 385.511 389.377 370.195 434.998 370.644V367.675C434.998 356.927 432.888 335.242 406.364 335.472C396.576 335.472 386.348 337.961 378.199 343.68L374.71 335.692C384.958 329.053 397.515 326.324 407.523 326.324C439.867 326.324 446.165 350.069 446.165 369.515V412.486V412.486Z" fill="#005440"/>
<path fill-rule="evenodd" clip-rule="evenodd" d="M474.389 297.06H484.107V348.489H484.557C487.826 342.311 493.185 336.602 499.684 332.723C506.223 328.833 513.901 326.324 522.269 326.324C532.737 326.324 561.141 331.583 561.141 372.474V438.541H549.974V373.614C549.974 353.988 542.075 335.902 519.26 335.902C503.423 335.902 490.396 347.11 485.497 360.607C484.327 364.036 484.107 367.015 484.107 371.575V438.541H474.239L474.389 297.06V297.06Z" fill="#005440"/>
<defs>
<linearGradient id="paint0_linear" x1="405.854" y1="168.447" x2="915.658" y2="-42.5393" gradientUnits="userSpaceOnUse">
<stop stop-color="#F6AD02"/>
<stop offset="0.2" stop-color="#FFF000"/>
<stop offset="0.411765" stop-color="#F6AD02"/>
<stop offset="0.658824" stop-color="#FFF000"/>
<stop offset="0.788235" stop-color="#F6AD02"/>
<stop offset="1" stop-color="#FFF000"/>
</linearGradient>
</defs>
</svg>
