<svg width="614" height="129" viewBox="0 0 614 129" fill="none" xmlns="http://www.w3.org/2000/svg">
<path d="M587.718 30.5655C571.871 12.4887 555.023 20.671 541.635 27.3248C536.004 30.1058 495.358 53.147 495.358 53.147C473.086 62.329 455.745 52.3081 448.942 43.8731C448.291 43.0731 447.703 42.224 447.184 41.3333L445.598 38.5868C442.917 33.951 439.939 29.4942 436.68 25.2447C434.703 22.669 432.561 20.2238 430.268 17.9244C415.029 2.53678 390.678 -8.23111 349.974 11.3281C330.702 22.4982 267.922 58.3643 267.922 58.3643C244.329 68.0749 226.287 56.2498 220.426 47.5734C220.162 47.2486 219.931 46.8983 219.737 46.5277L218.967 45.2176L214.99 38.7132C213.196 35.8639 211.271 33.0991 209.221 30.4276C207.224 27.8682 205.079 25.4278 202.798 23.1187C187.663 7.82304 163.438 -2.92186 123.09 16.2696C98.6926 30.1977 41.9457 62.6393 41.9457 62.6393L41.9228 62.6623L0.391113 86.393L21.8809 112.778C30.9251 121.397 47.9215 135.532 74.2149 123.615C74.2149 123.615 146.786 81.5894 147.073 81.463C209.118 47.4125 239.732 79.946 253.27 101.631C253.741 102.309 254.12 103.045 254.545 103.7L254.568 103.734C254.741 103.999 254.844 104.24 254.994 104.493L256.522 106.998C263.118 116.996 273.518 123.454 285.918 123.155C292.756 123.018 297.399 120.788 304.156 117.03L374.371 76.3031L374.521 76.2342C437.347 41.77 468.478 76.4295 481.774 98.1147C482.808 99.9879 483.981 101.781 485.187 103.447C491.772 112.376 500.851 118.225 512.389 117.938C520.008 117.789 528.546 113.215 529.822 112.376L614 63.7885C614.023 63.8115 605.427 50.8141 587.718 30.5655V30.5655Z" fill="#FDD213"/>
</svg>
