<svg width="1000" height="292" viewBox="0 0 1000 292" fill="none" xmlns="http://www.w3.org/2000/svg">
<path d="M1.03427 200.165C1.03427 185.697 0.781448 173.584 0 162.748H27.3622L28.6607 181.341H29.4192C35.6133 171.527 46.9673 159.898 68.1353 159.898C84.6606 159.898 97.5545 169.206 102.979 183.134H103.507C107.897 176.17 113.046 170.999 118.975 167.402C125.951 162.483 133.972 159.898 144.28 159.898C165.196 159.898 186.341 174.09 186.341 214.381V288.434H155.37V219C155.37 198.108 148.142 185.697 132.915 185.697C122.078 185.697 114.068 193.465 110.724 202.498C109.794 205.945 109.273 209.49 109.173 213.059V288.446H78.2022V215.633C78.2022 198.119 71.2381 185.708 56.517 185.708C44.6689 185.708 36.6706 195.017 33.7976 203.773C32.522 206.876 31.9934 210.508 31.9934 214.093V288.446H1.03427V200.165ZM307.017 258.256C307.017 269.599 307.534 280.689 308.81 288.446H280.16L278.103 274.517H277.322C269.576 284.332 256.407 291.273 240.18 291.273C214.875 291.273 200.683 272.966 200.683 253.855C200.683 222.08 228.792 206.106 275.276 206.359V204.302C275.276 196.028 271.909 182.353 249.707 182.353C237.307 182.353 224.413 186.237 215.898 191.638L209.704 170.987C219.001 165.299 235.262 159.886 255.12 159.886C295.399 159.886 307.028 185.467 307.028 212.795L307.017 258.256ZM276.035 227.033C253.568 226.504 232.159 231.411 232.159 250.511C232.159 262.899 240.18 268.588 250.236 268.588C262.865 268.588 272.174 260.302 275.012 251.281C275.707 249.025 276.056 246.677 276.046 244.317V227.033H276.035ZM328.943 200.165C328.943 185.697 328.679 173.584 327.932 162.748H355.777L357.317 181.617H358.098C363.511 171.792 377.198 159.898 398.102 159.898C420.051 159.898 442.747 174.09 442.747 213.863V288.434H411.007V217.472C411.007 199.407 404.284 185.685 387 185.685C374.371 185.685 365.568 194.729 362.224 204.291C361.19 207.118 360.937 211.002 360.937 214.587V288.423H328.932L328.943 200.165ZM580.397 112.252V253.085C580.397 265.99 580.926 279.953 581.431 288.446H553.058L551.759 268.588H551.231C543.761 282.516 528.511 291.284 510.205 291.284C480.257 291.284 456.526 265.738 456.526 227.045C456.25 184.961 482.567 159.909 512.79 159.909C530.074 159.909 542.462 167.137 548.139 176.469H548.68V112.264H580.409V112.252H580.397ZM548.668 215.139C548.668 212.576 548.415 209.473 547.887 206.876C545.048 194.511 535.004 184.433 520.536 184.433C500.149 184.433 488.772 202.509 488.772 225.987C488.772 248.937 500.138 265.726 520.283 265.726C533.166 265.726 544.531 256.935 547.622 243.26C548.404 240.433 548.68 237.318 548.68 233.974V215.139H548.668ZM602.852 288.446V162.748H634.88V288.446H602.852ZM657.312 203.279C657.312 186.248 657.071 174.101 656.301 162.759H683.916L684.927 186.743H685.973C692.167 168.942 706.865 162.759 720.322 162.759C723.414 162.759 725.206 162.23 727.78 162.759V190.65C724.735 189.976 721.626 189.629 718.507 189.616C703.245 189.616 692.926 199.43 690.099 213.599C689.473 216.842 689.131 220.134 689.076 223.436V288.457H657.312V203.279ZM742.513 288.446V162.748H774.495V288.446H742.513Z" fill="#0D2B5B"/>
<path d="M973.718 29.8096C957.871 11.7329 941.023 19.9151 927.635 26.5689C922.004 29.3499 881.358 52.3911 881.358 52.3911C859.086 61.5731 841.745 51.5522 834.942 43.1172C834.291 42.3173 833.703 41.4682 833.184 40.5775L831.598 37.8309C828.917 33.1951 825.939 28.7384 822.68 24.4889C820.703 21.9131 818.561 19.4679 816.268 17.1685C801.029 1.78092 776.678 -8.98697 735.974 10.5722C716.702 21.7423 653.922 57.6084 653.922 57.6084C630.329 67.3191 612.287 55.4939 606.426 46.8176C606.162 46.4927 605.931 46.1424 605.737 45.7718L604.967 44.4617L600.99 37.9573C599.196 35.1081 597.271 32.3433 595.221 29.6717C593.224 27.1124 591.079 24.6719 588.798 22.3629C573.663 7.06718 549.438 -3.67772 509.09 15.5137C484.693 29.4419 427.946 61.8834 427.946 61.8834L427.923 61.9064L386.391 85.6371L407.881 112.022C416.925 120.641 433.922 134.776 460.215 122.859C460.215 122.859 532.786 80.8335 533.073 80.7071C595.118 46.6567 625.732 79.1902 639.27 100.875C639.741 101.553 640.12 102.289 640.545 102.944L640.568 102.978C640.741 103.243 640.844 103.484 640.994 103.737L642.522 106.242C649.118 116.24 659.518 122.698 671.918 122.4C678.756 122.262 683.399 120.032 690.156 116.274L760.371 75.5472L760.521 75.4783C823.347 41.0142 854.478 75.6737 867.774 97.3588C868.808 99.232 869.981 101.025 871.187 102.691C877.772 111.62 886.851 117.47 898.389 117.182C906.008 117.033 914.546 112.459 915.822 111.62L1000 63.0326C1000.02 63.0556 991.427 50.0583 973.718 29.8096Z" fill="#FDD213"/>
</svg>
