<svg width="107" height="104" viewBox="0 0 107 104" fill="none" xmlns="http://www.w3.org/2000/svg">
<path d="M20.1103 88.4635C20.0849 90.3431 18.781 90.9908 17.0707 90.9824H15.6186V94.1024H13.5908V85.8641H17.13C18.654 85.8641 19.9622 86.334 20.1019 88.0867L20.1103 88.2349V88.4635ZM18.0275 88.4381L18.0232 88.3746C18.0402 87.6041 17.3501 87.6506 16.7744 87.621H15.6186V89.2255H16.7532C17.2612 89.2001 18.0063 89.2721 18.019 88.5651L18.0232 88.5058L18.0275 88.4381ZM28.3063 94.1024H26.1049L25.5461 92.4472H22.8324L22.2694 94.1024H20.123L23.1626 85.8641H25.3005L28.3063 94.1024ZM24.983 90.7707L24.2041 88.4L23.4167 90.7707H24.983ZM36.769 94.1024H34.902L31.7693 89.0392V94.1024H29.8303V85.8641H31.7735L34.8258 90.9104V85.8641H36.769V94.1024ZM40.9093 94.1024H38.8815V85.8599H40.9093V94.1024ZM49.9604 94.1024H48.0977L44.9649 89.0392V94.1024H43.026V85.8641H44.9692L48.0173 90.9104V85.8641H49.9604V94.1024ZM74.3832 94.1024H72.1861L71.6273 92.4472H68.9136L68.3548 94.1024H66.2084L69.2438 85.8641H71.3859L74.3832 94.1024ZM71.0684 90.7707L70.2852 88.4L69.4978 90.7707H71.0684ZM82.8502 94.1024H80.9832L77.8547 89.0392V94.1024H75.9157V85.8641H77.8547L80.907 90.9104V85.8641H82.8502V94.1024ZM92.8453 94.1024H90.2672L87.6424 90.432L87.0286 91.0247V94.1024H85.0007V85.8641H87.0286V88.7132L90.1105 85.8641H92.748L89.1834 89.0053" fill="#007DC5"/>
<path fill-rule="evenodd" clip-rule="evenodd" d="M57.7019 85.9063H61.8084C62.5831 85.9105 63.1546 86.0629 63.5314 86.3592C63.9082 86.6556 64.1622 86.9816 64.285 87.3372C64.3231 87.4515 64.3527 87.5658 64.3696 87.6801C64.3908 87.7902 64.3993 87.9045 64.3993 88.0103C64.3993 88.3955 64.3358 88.6961 64.2045 88.9205C64.0775 89.1491 63.9336 89.3142 63.7854 89.4285C63.7092 89.4878 63.633 89.5386 63.5653 89.5724C63.4933 89.6105 63.4256 89.6486 63.3705 89.6783C63.8828 89.8688 64.2299 90.144 64.4077 90.508C64.5813 90.8721 64.6744 91.2531 64.6744 91.6511C64.6744 91.9813 64.6067 92.2903 64.4712 92.5824C64.3358 92.8703 64.1622 93.1243 63.942 93.336C63.9336 93.3445 63.9251 93.3487 63.9209 93.3529C63.9166 93.3614 63.9124 93.3656 63.9124 93.3699C63.6753 93.5815 63.3875 93.7509 63.0445 93.8779C62.7101 94.0006 62.1174 94.0641 61.2834 94.0641H57.7019V85.9063ZM59.7128 92.6544H61.4909C61.8422 92.6629 62.1174 92.5697 62.3122 92.3792C62.5111 92.193 62.6043 91.8839 62.6043 91.469C62.6043 91.1177 62.4984 90.8679 62.2868 90.7155C62.0751 90.5631 61.8465 90.4784 61.5967 90.4742H59.7128V92.6544ZM59.7128 89.0983H61.3554C61.6263 89.1068 61.8592 89.039 62.0539 88.8993C62.2444 88.7596 62.3376 88.5268 62.3376 88.2008C62.3376 87.8621 62.2487 87.6293 62.0624 87.5065C61.8803 87.3753 61.6263 87.3118 61.3088 87.3118H59.7128" fill="#007DC5"/>
<path fill-rule="evenodd" clip-rule="evenodd" d="M9.35594 0.0986328H97.0732L97.5304 0.111334L98.0088 0.145199C102.602 0.62358 106.184 4.41252 106.425 9.02276L106.433 9.47997V93.7173C106.433 98.3233 103.025 102.29 98.4744 102.989L98.0088 103.052L97.5304 103.086L97.0732 103.099H9.35594C4.733 103.09 0.817058 99.678 0.105837 95.1228L0.0465687 94.6529L0.00846731 94.1745L0 93.7173V9.47997L0.00846731 9.02276L0.0465687 8.54438L0.105837 8.07447L0.186273 7.61302L0.296342 7.16004L0.423346 6.71129C0.656186 5.96197 0.956761 5.30155 1.36317 4.63266L1.60448 4.24742L1.86695 3.88334L2.14636 3.52773C3.391 2.00792 5.13518 0.886054 7.04024 0.394973L7.49322 0.289139L7.95467 0.208699L8.42458 0.145199L8.90296 0.111334L9.35594 0.0986328ZM9.38981 2.67257H97.0435L97.3991 2.68528L97.7463 2.71068C101.074 3.05359 103.69 5.81803 103.855 9.154L103.868 9.51384V93.6834C103.872 97.0363 101.4 99.9362 98.085 100.444L97.7463 100.491L97.3991 100.516L97.0435 100.525H9.38981C6.03268 100.533 3.15816 98.0397 2.64591 94.7333L2.60358 94.3904L2.57394 94.0433L2.56548 93.6834V9.51384L2.57394 9.154L2.60358 8.80685L2.64591 8.46817L2.70518 8.1295L2.78138 7.80352L2.87452 7.47755C3.03539 6.95683 3.2767 6.43611 3.5561 5.97043L3.73391 5.69526L3.92441 5.42432L4.12762 5.16608C5.02511 4.06962 6.30785 3.23986 7.68372 2.89271L8.0097 2.81228L8.34838 2.75301L8.68705 2.71068L9.02996 2.68528" fill="#007DC5"/>
<path fill-rule="evenodd" clip-rule="evenodd" d="M50.9936 7.04117C41.8874 8.15034 34.7964 15.9568 34.7964 25.3763C34.7964 35.545 43.0728 43.8384 53.2204 43.8384C63.3637 43.8384 71.6401 35.545 71.6401 25.3763C71.6401 15.9568 64.5491 8.15034 55.4429 7.04117C56.7087 7.80319 57.5639 9.196 57.5639 10.7793C57.5639 13.1797 55.608 15.1355 53.2204 15.1355C50.8242 15.1355 48.8726 13.1797 48.8726 10.7793C48.8726 9.196 49.7278 7.80319 50.9936 7.04117Z" fill="#007DC5"/>
<path fill-rule="evenodd" clip-rule="evenodd" d="M49.4551 50.3747C50.6531 52.4491 53.3202 53.1687 55.3904 51.9707C57.4605 50.7684 58.176 48.0971 56.9779 46.0184C55.7799 43.944 53.117 43.2244 51.0468 44.4224C48.9725 45.6247 48.257 48.296 49.4551 50.3747Z" fill="#007DC5"/>
<path fill-rule="evenodd" clip-rule="evenodd" d="M18.7748 70.7044C24.2825 78.0537 34.574 80.3059 42.7107 75.6025C51.4952 70.5139 54.5263 59.1809 49.4546 50.3711C44.3787 41.5613 33.0754 38.5259 24.2867 43.6145C16.1543 48.3221 12.9538 58.385 16.548 66.8392C16.5776 65.3575 17.3523 63.9224 18.7197 63.1307C20.7899 61.9327 23.457 62.6481 24.6551 64.7268C25.8489 66.8011 25.1334 69.4725 23.0633 70.6748C21.6959 71.4664 20.0702 71.4241 18.7748 70.7044Z" fill="#007DC5"/>
<path fill-rule="evenodd" clip-rule="evenodd" d="M87.6545 70.7044C82.1467 78.0537 71.8552 80.3059 63.7185 75.6025C54.9341 70.5139 51.9029 59.1809 56.9746 50.3711C62.0505 41.5613 73.3538 38.5259 82.1425 43.6145C90.275 48.3221 93.4755 58.385 89.877 66.8392C89.8516 65.3575 89.0769 63.9224 87.7095 63.1307C85.6393 61.9327 82.9765 62.6481 81.7784 64.7268C80.5803 66.8011 81.2958 69.4725 83.3617 70.6748C84.7334 71.4664 86.359 71.4241 87.6545 70.7044Z" fill="#007DC5"/>
</svg>
