<svg width="830" height="103" viewBox="0 0 830 103" fill="none" xmlns="http://www.w3.org/2000/svg">
<path d="M20.1103 88.3648C20.0849 90.2445 18.781 90.8922 17.0707 90.8837H15.6186V94.0038H13.5908V85.7655H17.13C18.654 85.7655 19.9622 86.2354 20.1019 87.9881L20.1103 88.1362V88.3648ZM18.0275 88.3394L18.0232 88.2759C18.0402 87.5054 17.3501 87.552 16.7744 87.5224H15.6186V89.1269H16.7532C17.2612 89.1015 18.0063 89.1734 18.019 88.4664L18.0232 88.4072L18.0275 88.3394ZM28.3063 94.0038H26.1049L25.5461 92.3485H22.8324L22.2694 94.0038H20.123L23.1626 85.7655H25.3005L28.3063 94.0038ZM24.983 90.6721L24.2041 88.3013L23.4167 90.6721H24.983ZM36.769 94.0038H34.902L31.7693 88.9406V94.0038H29.8303V85.7655H31.7735L34.8258 90.8118V85.7655H36.769V94.0038ZM40.9093 94.0038H38.8815V85.7613H40.9093V94.0038ZM49.9604 94.0038H48.0977L44.9649 88.9406V94.0038H43.026V85.7655H44.9692L48.0173 90.8118V85.7655H49.9604V94.0038ZM74.3832 94.0038H72.1861L71.6273 92.3485H68.9136L68.3548 94.0038H66.2084L69.2438 85.7655H71.3859L74.3832 94.0038ZM71.0684 90.6721L70.2852 88.3013L69.4978 90.6721H71.0684ZM82.8502 94.0038H80.9832L77.8547 88.9406V94.0038H75.9157V85.7655H77.8547L80.907 90.8118V85.7655H82.8502V94.0038ZM92.8453 94.0038H90.2672L87.6424 90.3334L87.0286 90.9261V94.0038H85.0007V85.7655H87.0286V88.6146L90.1105 85.7655H92.748L89.1834 88.9067" fill="#007DC5"/>
<path fill-rule="evenodd" clip-rule="evenodd" d="M57.7019 85.8076H61.8084C62.5831 85.8119 63.1546 85.9643 63.5314 86.2606C63.9082 86.557 64.1622 86.8829 64.285 87.2385C64.3231 87.3528 64.3527 87.4671 64.3696 87.5815C64.3908 87.6915 64.3993 87.8058 64.3993 87.9117C64.3993 88.2969 64.3358 88.5975 64.2045 88.8219C64.0775 89.0505 63.9336 89.2156 63.7854 89.3299C63.7092 89.3891 63.633 89.4399 63.5653 89.4738C63.4933 89.5119 63.4256 89.55 63.3705 89.5796C63.8828 89.7701 64.2299 90.0453 64.4077 90.4094C64.5813 90.7735 64.6744 91.1545 64.6744 91.5524C64.6744 91.8826 64.6067 92.1917 64.4712 92.4838C64.3358 92.7717 64.1622 93.0257 63.942 93.2374C63.9336 93.2458 63.9251 93.2501 63.9209 93.2543C63.9166 93.2628 63.9124 93.267 63.9124 93.2712C63.6753 93.4829 63.3875 93.6522 63.0445 93.7792C62.7101 93.902 62.1174 93.9655 61.2834 93.9655H57.7019V85.8076ZM59.7128 92.5558H61.4909C61.8422 92.5642 62.1174 92.4711 62.3122 92.2806C62.5111 92.0943 62.6043 91.7853 62.6043 91.3704C62.6043 91.019 62.4984 90.7692 62.2868 90.6168C62.0751 90.4644 61.8465 90.3798 61.5967 90.3755H59.7128V92.5558ZM59.7128 88.9997H61.3554C61.6263 89.0081 61.8592 88.9404 62.0539 88.8007C62.2444 88.661 62.3376 88.4281 62.3376 88.1022C62.3376 87.7635 62.2487 87.5307 62.0624 87.4079C61.8803 87.2766 61.6263 87.2131 61.3088 87.2131H59.7128" fill="#007DC5"/>
<path fill-rule="evenodd" clip-rule="evenodd" d="M9.35594 0H97.0732L97.5304 0.0127015L98.0088 0.0465667C102.602 0.524947 106.184 4.31389 106.425 8.92413L106.433 9.38134V93.6187C106.433 98.2247 103.025 102.191 98.4744 102.89L98.0088 102.953L97.5304 102.987L97.0732 103H9.35594C4.733 102.992 0.817058 99.5794 0.105837 95.0242L0.0465687 94.5543L0.00846731 94.0759L0 93.6187V9.38134L0.00846731 8.92413L0.0465687 8.44575L0.105837 7.97584L0.186273 7.51438L0.296342 7.0614L0.423346 6.61266C0.656186 5.86334 0.956761 5.20291 1.36317 4.53403L1.60448 4.14879L1.86695 3.78471L2.14636 3.4291C3.391 1.90929 5.13518 0.787422 7.04024 0.296341L7.49322 0.190506L7.95467 0.110066L8.42458 0.0465667L8.90296 0.0127015L9.35594 0ZM9.38981 2.57394H97.0435L97.3991 2.58664L97.7463 2.61205C101.074 2.95496 103.69 5.7194 103.855 9.05536L103.868 9.41521V93.5848C103.872 96.9377 101.4 99.8376 98.085 100.346L97.7463 100.392L97.3991 100.418L97.0435 100.426H9.38981C6.03268 100.435 3.15816 97.941 2.64591 94.6347L2.60358 94.2918L2.57394 93.9446L2.56548 93.5848V9.41521L2.57394 9.05536L2.60358 8.70822L2.64591 8.36954L2.70518 8.03086L2.78138 7.70489L2.87452 7.37891C3.03539 6.8582 3.2767 6.33748 3.5561 5.8718L3.73391 5.59663L3.92441 5.32569L4.12762 5.06745C5.02511 3.97098 6.30785 3.14122 7.68372 2.79408L8.0097 2.71365L8.34838 2.65438L8.68705 2.61205L9.02996 2.58664" fill="#007DC5"/>
<path fill-rule="evenodd" clip-rule="evenodd" d="M50.9936 6.94254C41.8874 8.0517 34.7964 15.8582 34.7964 25.2776C34.7964 35.4464 43.0728 43.7397 53.2204 43.7397C63.3637 43.7397 71.6401 35.4464 71.6401 25.2776C71.6401 15.8582 64.5491 8.0517 55.4429 6.94254C56.7087 7.70456 57.5639 9.09737 57.5639 10.6807C57.5639 13.081 55.608 15.0369 53.2204 15.0369C50.8242 15.0369 48.8726 13.081 48.8726 10.6807C48.8726 9.09737 49.7278 7.70456 50.9936 6.94254Z" fill="#007DC5"/>
<path fill-rule="evenodd" clip-rule="evenodd" d="M49.4551 50.276C50.6531 52.3504 53.3202 53.0701 55.3904 51.872C57.4605 50.6697 58.176 47.9984 56.9779 45.9198C55.7799 43.8454 53.117 43.1257 51.0468 44.3238C48.9725 45.5261 48.257 48.1974 49.4551 50.276Z" fill="#007DC5"/>
<path fill-rule="evenodd" clip-rule="evenodd" d="M18.7748 70.6058C24.2825 77.955 34.574 80.2072 42.7107 75.5039C51.4952 70.4153 54.5263 59.0823 49.4546 50.2725C44.3787 41.4626 33.0754 38.4273 24.2867 43.5159C16.1543 48.2235 12.9538 58.2864 16.548 66.7406C16.5776 65.2589 17.3523 63.8238 18.7197 63.0321C20.7899 61.834 23.457 62.5495 24.6551 64.6281C25.8489 66.7025 25.1334 69.3738 23.0633 70.5761C21.6959 71.3678 20.0702 71.3254 18.7748 70.6058Z" fill="#007DC5"/>
<path fill-rule="evenodd" clip-rule="evenodd" d="M87.6545 70.6058C82.1467 77.955 71.8552 80.2072 63.7185 75.5039C54.9341 70.4153 51.9029 59.0823 56.9746 50.2725C62.0505 41.4626 73.3538 38.4273 82.1425 43.5159C90.275 48.2235 93.4755 58.2864 89.877 66.7406C89.8516 65.2589 89.0769 63.8238 87.7095 63.0321C85.6393 61.834 82.9765 62.5495 81.7784 64.6281C80.5803 66.7025 81.2958 69.3738 83.3617 70.5761C84.7334 71.3678 86.359 71.3254 87.6545 70.6058Z" fill="#007DC5"/>
<path fill-rule="evenodd" clip-rule="evenodd" d="M415.84 16.2483C415.84 19.5801 414.121 22.408 410.679 24.7322C407.661 26.7473 404.262 27.7506 400.485 27.7506C396.544 27.7506 393.064 26.7854 390.041 24.8507C386.688 22.6789 385.008 19.851 385.008 16.3711C385.008 12.8023 386.646 9.89813 389.919 7.65017C392.937 5.71548 396.459 4.74602 400.485 4.74602C404.346 4.74602 407.788 5.75358 410.806 7.7687C414.159 10.0167 415.84 12.8404 415.84 16.2483Z" fill="#007DC5"/>
<path fill-rule="evenodd" clip-rule="evenodd" d="M751.852 4.74561H777.973V52.2027L797.061 30.1125H828.512L804.58 53.4642L829.883 96.7683H801.066L787.57 70.0297L777.973 79.4365V96.7683H751.852" fill="#007DC5"/>
<path fill-rule="evenodd" clip-rule="evenodd" d="M672.301 31.5222H695.573V42.2032C699.048 37.8682 702.571 34.7862 706.127 32.9235C709.691 31.0608 714.026 30.1167 719.136 30.1167C726.049 30.1167 731.451 32.1911 735.371 36.2976C739.266 40.404 741.214 46.7457 741.214 55.3354V96.7683H716.122V60.9278C716.122 56.8468 715.368 53.9511 713.861 52.2577C712.329 50.5389 710.216 49.7007 707.469 49.7007C704.455 49.7007 701.982 50.8522 700.115 53.1383C698.231 55.4201 697.292 59.5435 697.292 65.4745V96.7683H672.301" fill="#007DC5"/>
<path fill-rule="evenodd" clip-rule="evenodd" d="M528.517 96.7683H500.381V4.74561H528.517V8.05617C532.695 5.77857 537.961 4.74984 545.641 4.74984C562.888 4.74984 578.209 11.7816 578.26 26.5648C578.311 39.3075 570.995 43.9093 561.118 44.5782C573.607 46.0303 585.016 53.7182 585.016 66.6938C585.016 88.4283 570.589 96.7683 546.013 96.7683C538.317 96.7683 534.084 95.7268 528.517 93.7413V96.7683ZM528.517 22.7844V38.5201C536.687 38.8461 552.736 39.8918 552.736 29.524C552.736 19.2071 535.891 19.7236 528.517 22.7844ZM528.517 56.199V79.1909C531.611 80.1392 534.846 80.66 538.779 80.66C547.406 80.66 557.626 76.7567 557.351 67.7691C556.915 53.5531 539.342 55.6783 528.517 56.199Z" fill="#007DC5"/>
<path fill-rule="evenodd" clip-rule="evenodd" d="M616.307 52.9184L592.617 50.3826C593.51 46.1703 594.801 42.8512 596.486 40.4382C598.171 38.0251 600.584 35.9338 603.763 34.1557C606.033 32.8645 609.174 31.8697 613.145 31.1711C617.12 30.4769 621.421 30.1128 626.061 30.1128C633.487 30.1128 639.477 30.5361 643.969 31.387C648.482 32.2337 652.224 34.0245 655.242 36.6958C659.861 40.7853 662.494 48.2616 662.494 54.3197V96.7643H639.227V89.3642C634.122 93.8305 624.071 96.7855 614.436 96.7643C602.172 96.7389 590.58 91.9509 590.665 80.0125C590.699 75.0043 592.1 70.8979 594.992 67.6847C597.879 64.4461 603.184 62.0584 610.939 60.4921C620.257 58.587 626.29 57.2535 629.054 56.4957C631.802 55.7294 634.731 54.7134 637.809 53.4899C637.809 50.3826 637.187 48.2235 635.942 46.9746C634.672 45.7469 632.466 45.1119 629.283 45.1119C625.231 45.1119 622.192 45.7893 620.155 47.1016C618.572 48.1388 617.285 50.0862 616.307 52.9184ZM637.809 66.1818C634.397 67.3503 630.845 68.3748 627.162 69.2638C622.128 70.5296 618.923 71.7996 617.594 73.0231C616.201 74.3058 615.52 75.7494 615.52 77.3666C615.52 79.2251 616.201 80.728 617.556 81.9134C618.923 83.0818 620.922 83.6745 623.563 83.6745C626.328 83.6745 628.889 83.0394 631.281 81.7736C633.652 80.4909 635.337 78.9288 636.336 77.1126C637.335 75.2753 637.809 72.8834 637.809 69.9538" fill="#007DC5"/>
<path fill-rule="evenodd" clip-rule="evenodd" d="M309.097 31.5226H332.368V42.2036C335.844 37.8686 339.362 34.7909 342.922 32.9281C346.483 31.0654 350.822 30.1213 355.932 30.1213C362.845 30.1213 368.247 32.1957 372.167 36.298C376.057 40.4002 378.009 46.7461 378.009 55.3358V96.756H352.913V60.9282C352.913 56.8387 352.16 53.9515 350.653 52.2539C349.124 50.5351 347.008 49.6969 344.264 49.6969C341.246 49.6969 338.778 50.8526 336.911 53.1344C335.027 55.4163 334.083 59.5439 334.083 65.4707V96.756H309.097" fill="#D71920"/>
<path fill-rule="evenodd" clip-rule="evenodd" d="M422.712 31.5226H445.983V42.2036C449.459 37.8686 452.977 34.7909 456.537 32.9281C460.098 31.0654 464.437 30.1213 469.547 30.1213C476.46 30.1213 481.862 32.1957 485.782 36.298C489.677 40.4002 491.624 46.7461 491.624 55.3358V96.756H466.532V60.9282C466.532 56.8387 465.775 53.9515 464.268 52.2539C462.739 50.5351 460.623 49.6969 457.879 49.6969C454.865 49.6969 452.393 50.8526 450.526 53.1344C448.642 55.4163 447.702 59.5439 447.702 65.4707V96.756H422.712" fill="#D71920"/>
<path d="M386.77 96.7553H413.949V31.522H386.77V96.7553Z" fill="#D71920"/>
<path fill-rule="evenodd" clip-rule="evenodd" d="M225.589 36.3903C225.724 65.652 198.592 75.2831 174.889 65.9145V96.7552H146.758V4.76217H174.889V8.06426C180.126 5.85863 184.558 4.68173 191.59 4.76217C211.102 4.97384 225.483 13.8726 225.589 36.3903ZM174.889 24.6721V48.8833C186.713 53.5147 199.833 51.1228 200.18 34.9848C200.408 24.2107 187.733 17.1747 174.889 24.6721Z" fill="#D71920"/>
<path fill-rule="evenodd" clip-rule="evenodd" d="M254.147 52.918L230.461 50.3779C231.354 46.1699 232.641 42.8508 234.33 40.4378C236.011 38.0289 238.424 35.9376 241.604 34.1595C243.873 32.8683 247.018 31.8735 250.985 31.175C254.96 30.4764 259.261 30.1166 263.901 30.1166C271.327 30.1166 277.317 30.5399 281.809 31.3866C286.326 32.2333 290.068 34.0283 293.082 36.6954C297.701 40.7891 300.339 48.2612 300.339 54.3193V96.7512H277.067V89.3553C271.962 93.8174 261.911 96.7766 252.276 96.7512C240.016 96.7258 228.421 91.942 228.505 80.0079C228.539 74.9997 229.94 70.8932 232.832 67.68C235.719 64.4415 241.024 62.0538 248.779 60.4874C258.097 58.5824 264.13 57.2488 266.898 56.491C269.642 55.729 272.575 54.713 275.653 53.4895C275.653 50.3779 275.031 48.2231 273.782 46.9742C272.512 45.7507 270.306 45.1115 267.127 45.1115C263.071 45.1115 260.036 45.7888 257.995 47.1012C256.412 48.1384 255.125 50.0858 254.147 52.918ZM275.653 66.1772C272.241 67.3456 268.685 68.3701 265.006 69.2591C259.968 70.5207 256.768 71.7907 255.438 73.0142C254.041 74.3012 253.36 75.7405 253.36 77.3577C253.36 79.2205 254.041 80.7191 255.396 81.9045C256.768 83.0729 258.766 83.6656 261.408 83.6656C264.172 83.6656 266.729 83.0348 269.121 81.769C271.492 80.482 273.177 78.9241 274.176 77.1037C275.175 75.2664 275.653 72.8745 275.653 69.9492" fill="#D71920"/>
</svg>
