<svg width="723" height="181" viewBox="0 0 723 181" fill="none" xmlns="http://www.w3.org/2000/svg">
<path fill-rule="evenodd" clip-rule="evenodd" d="M377.897 172.524C377.958 171.408 378.022 169.62 378.08 167.169V120.165L377.928 115.605C377.89 114.635 377.843 113.975 377.796 113.631C377.745 113.266 377.667 112.951 377.559 112.66C377.208 111.501 376.427 110.683 375.254 110.193C374.172 109.736 372.573 109.516 370.497 109.5V107.901H397.339C401.24 107.907 404.766 108.161 407.913 108.668C411.057 109.172 413.589 109.868 415.527 110.754C421.138 113.414 423.91 117.894 423.88 124.266C423.944 133.373 417.954 139.191 405.554 140.689L403.475 141.024C406.264 141.125 410.036 142.055 411.791 142.46C413.532 142.863 415.239 143.502 416.913 144.374C423.495 147.68 426.737 152.967 426.672 160.279C426.706 169.16 422.376 174.934 413.586 177.662C411.666 178.21 409.259 178.643 406.348 178.957C403.427 179.272 400.256 179.434 396.839 179.441H370.497V177.838C373.597 177.801 375.73 177.328 376.673 176.216C377.069 175.837 377.35 175.421 377.535 174.944C377.725 174.461 377.836 173.636 377.897 172.524ZM386.166 110.098V139.928H396.639C408.819 139.857 415.128 134.796 415.195 124.665C415.28 114.831 408.63 110.03 395.74 110.098H386.166ZM417.291 159.482C417.224 152.528 414.708 147.612 409.695 144.864C408.174 144.086 406.24 143.488 403.918 143.065C401.599 142.646 399.039 142.433 396.24 142.423H386.166V177.24H396.24C403.539 177.274 408.874 175.911 412.159 173.055C413.826 171.686 415.09 169.826 415.969 167.494C416.845 165.161 417.281 162.484 417.291 159.482Z" fill="#3A3A3A"/>
<path d="M465.091 177.399C464.547 176.321 464.164 175.04 463.999 171.764L463.952 170.794L463.306 171.52C462.538 172.389 461.785 173.14 461.048 173.779C460.307 174.424 459.449 175.084 458.485 175.753C456.365 177.308 454.324 178.403 452.366 179.042C450.409 179.678 448.201 179.989 445.744 179.969C441.464 179.985 438.178 178.971 435.828 176.973C434.513 175.79 433.482 174.306 432.728 172.504C431.974 170.706 431.589 168.772 431.572 166.696C431.623 159.043 436.322 154.104 445.933 151.916C448.475 151.328 451.163 150.845 453.989 150.466C456.825 150.087 460.037 149.776 463.63 149.533L463.999 142.856C464.006 140.574 463.894 138.725 463.671 137.316C463.448 135.889 463.079 134.645 462.562 133.594C461.135 130.815 458.228 129.483 454.026 129.483C447.285 129.449 443.631 132.657 443.252 139.04C443.212 140.054 443.117 140.767 442.985 141.2C442.857 141.606 442.637 141.906 442.326 142.126C441.657 142.576 440.588 142.836 439.053 142.853C435.751 142.904 434.513 141.92 434.567 140.267C434.588 138.536 435.162 136.863 436.315 135.25C437.468 133.631 439.074 132.224 441.149 131.024C444.882 128.955 449.662 127.901 455.524 127.884C461.937 127.901 466.237 129.354 468.586 132.13C469.536 133.299 470.243 134.743 470.703 136.491C471.159 138.239 471.392 140.453 471.389 143.147L471.379 143.718L471.189 153.221L471.088 162.7L470.99 167.291C470.997 169.452 471.088 171.098 471.237 172.94C471.385 174.735 472.028 176.737 473.465 177.267C474.962 177.822 476.402 178.042 479.144 178.059C481.159 178.018 482.71 177.788 483.762 177.342C484.962 176.831 485.699 175.75 486.017 174.215C486.328 172.717 486.463 170.439 486.429 167.386V140.632C486.497 136.991 486.074 134.429 485.036 133.09C484.022 131.782 482.136 131.217 479.543 131.244V129.824L493.816 128.783V140.152L494.559 138.827C496.672 135.064 499.069 132.404 501.736 130.805C504.404 129.206 507.747 128.415 511.773 128.455C517.825 128.374 522.04 130.402 524.508 134.456C525.411 135.811 526.07 137.447 526.462 139.361C526.854 141.278 527.05 143.729 527.04 146.714V167.386C527.003 170.469 527.131 172.764 527.429 174.255C527.733 175.79 528.463 176.869 529.667 177.365C530.661 177.775 532.98 177.998 534.957 178.052C536.81 177.994 538.243 177.768 539.224 177.338C540.393 176.828 541.1 175.743 541.401 174.208C541.692 172.717 541.817 170.435 541.78 167.386V118.78C541.817 115.994 541.702 113.929 541.421 112.597C541.13 111.207 540.414 110.251 539.241 109.838C538.223 109.48 536.699 109.311 534.697 109.304V107.881L549.541 107.124C549.355 110.42 549.213 113.79 549.119 117.235C549.017 120.832 548.97 123.972 548.97 126.66V159.313L565.325 141.393C567.638 138.83 568.902 136.677 568.919 134.953C569.037 132.552 566.613 131.467 562.634 131.268V129.851H583.888V131.291C582.61 131.44 581.498 131.673 580.555 131.998C579.527 132.346 578.472 132.853 577.397 133.502C576.306 134.162 575.393 134.767 574.652 135.318C573.899 135.882 573.009 136.683 571.985 137.725C570.961 138.762 569.48 140.338 567.533 142.454L562.134 148.265L576.265 170.493C577.877 173.126 579.362 174.989 580.724 176.047C582.025 177.054 583.685 177.704 585.683 178.011V179.465H572.759C572.404 178.741 571.918 177.805 571.295 176.656L569.24 172.906L567.668 170.084L557.209 153.039L548.99 162.234L548.97 167.386C548.933 170.435 549.058 172.717 549.352 174.211C549.656 175.746 550.373 176.831 551.56 177.342C552.597 177.785 554.142 178.018 556.15 178.059V179.465H512.47V178.055C515.428 177.974 517.46 177.491 518.274 176.412C518.602 175.993 518.849 175.516 519.021 174.982C519.197 174.445 519.302 173.752 519.353 172.906C519.41 172.237 519.471 171.274 519.539 170.006C519.61 168.735 519.647 167.859 519.654 167.393V147.315C519.67 142.363 519.14 138.698 518.017 136.369C516.317 132.704 513.241 130.869 508.88 130.852C504.018 130.835 500.141 133.151 497.267 137.725C496.185 139.452 495.347 141.42 494.742 143.614C494.133 145.814 493.826 147.978 493.816 150.108V167.386C493.778 170.469 493.907 172.764 494.204 174.255C494.509 175.79 495.236 176.869 496.439 177.365C497.49 177.798 499.056 178.021 501.097 178.059V179.465L479.614 179.461C477.707 179.526 474.08 179.624 472.281 179.6C470.395 179.573 469.486 179.374 467.765 179.245C466.237 178.799 465.594 178.4 465.091 177.399ZM439.76 166.399C439.797 169.651 440.588 172.295 442.167 174.289C443.749 176.294 445.892 177.322 448.536 177.372C451.207 177.335 453.732 176.639 456.095 175.286C458.451 173.934 460.307 172.132 461.653 169.891C462.474 168.461 463.073 166.622 463.448 164.394C463.82 162.176 464.006 159.418 463.999 156.122V151C459.215 151.413 455.794 151.862 453.306 152.39C450.801 152.92 448.59 153.678 446.663 154.668C442.089 156.94 439.794 160.878 439.76 166.399Z" fill="#3A3A3A"/>
<path fill-rule="evenodd" clip-rule="evenodd" d="M19.4587 149.324V167.123C19.4215 169.98 19.5838 172.099 19.9489 173.482C20.3174 174.868 21.1084 175.781 22.3288 176.227C23.5492 176.677 25.4221 176.927 27.9474 176.978V179.462H0V176.978C2.38332 176.927 4.14461 176.677 5.28725 176.227C6.42989 175.781 7.17024 174.868 7.5083 173.482C7.84636 172.099 7.9951 169.98 7.95792 167.123V120.336C7.9951 117.479 7.84636 115.356 7.52182 113.97C7.1939 112.584 6.48398 111.661 5.39205 111.201C4.29673 110.738 2.61996 110.468 0.351582 110.383V107.895H26.9771C35.9526 107.858 42.5245 109.443 46.7029 112.645C50.8779 115.85 52.9401 120.9 52.8927 127.797C52.9198 137.492 49.1471 143.838 41.5711 146.836C39.5935 147.61 37.0716 148.215 34.0088 148.655C30.9459 149.091 27.5417 149.314 23.7926 149.324H19.4587ZM19.4587 146.549H24.0597C29.5869 146.532 33.6538 145.224 36.2636 142.627C37.6835 141.123 38.7585 139.156 39.4921 136.718C40.2257 134.284 40.5942 131.502 40.5975 128.371C40.5671 116.587 35.4083 110.688 25.1178 110.671H19.4587V146.549Z" fill="#3A3A3A"/>
<path fill-rule="evenodd" clip-rule="evenodd" d="M97.8882 152.329H65.3669C65.4041 155.798 65.6069 158.708 65.9788 161.058C66.3473 163.404 66.9423 165.551 67.7604 167.494C70.4615 173.789 74.6331 176.933 80.2787 176.933C83.4768 176.916 86.3773 175.976 88.977 174.11C91.58 172.244 93.7402 169.563 95.4677 166.061L97.7699 167.589C95.5049 172.095 92.7396 175.405 89.4739 177.518C86.2083 179.631 82.2226 180.675 77.5168 180.655C70.1133 180.56 63.3081 178.194 59.0418 173.563C54.7789 168.928 52.6052 162.579 52.5207 154.523C52.6052 146.406 54.7079 139.987 58.8255 135.257C62.9397 130.531 69.5149 128.114 76.5973 128.009C81.3098 128.023 85.8567 129.094 89.0852 131.227C92.3136 133.364 94.6936 136.488 96.2317 140.598C96.7321 141.964 97.1107 143.526 97.371 145.284C97.6279 147.042 97.8003 149.391 97.8882 152.329ZM65.4582 149.564H85.8026C85.7215 146.623 85.5626 144.253 85.3293 142.458C85.0994 140.663 84.7343 139.057 84.2374 137.644C82.52 132.634 79.8798 130.156 76.3234 130.203C72.3343 130.237 69.356 133.033 67.3919 138.597C66.8916 140.037 66.4893 141.616 66.185 143.33C65.8808 145.044 65.6374 147.123 65.4582 149.564Z" fill="#3A3A3A"/>
<path d="M99.9695 129.374L118.008 128.127C118.103 129.925 118.177 131.44 118.225 132.66C118.272 133.884 118.296 134.966 118.296 135.899V138.779C122.214 131.615 126.947 127.998 132.498 127.934C134.894 127.981 136.842 128.681 138.339 130.033C139.833 131.386 140.608 133.12 140.652 135.229C140.618 136.984 139.969 138.39 138.708 139.448C137.45 140.51 135.797 141.054 133.745 141.081C131.281 141.159 129.78 140.138 129.235 138.011C128.88 136.696 128.512 135.801 128.13 135.324C127.751 134.847 127.19 134.624 126.453 134.651H126.26C124.374 134.813 122.582 136.314 120.889 139.161C120.121 140.584 119.543 142.153 119.158 143.877C118.776 145.598 118.583 147.575 118.583 149.813V167.565C118.546 170.398 118.684 172.487 118.995 173.829C119.306 175.171 120.013 176.05 121.115 176.466C122.214 176.878 123.931 177.111 126.26 177.159V179.464H99.5875V177.159C101.761 177.169 103.37 176.959 104.418 176.527C105.466 176.097 106.146 175.198 106.46 173.829C106.771 172.456 106.91 170.37 106.879 167.565V140.983C106.967 137.028 106.572 134.458 105.689 133.272C104.811 132.085 102.9 131.555 99.9695 131.676V129.374Z" fill="#3A3A3A"/>
<path d="M162.08 128.13L162.178 137.629C166.063 131.233 171.627 128.002 178.872 127.937C186.245 127.89 190.785 131.247 192.495 138.015C194.581 134.529 196.961 131.974 199.632 130.348C202.306 128.725 205.426 127.92 209 127.937C214.645 127.971 218.803 129.824 221.474 133.502C222.519 134.895 223.259 136.598 223.705 138.613C224.148 140.628 224.364 143.241 224.351 146.456V167.565C224.32 170.37 224.459 172.456 224.77 173.825C225.084 175.198 225.764 176.097 226.812 176.527C227.86 176.959 229.469 177.169 231.646 177.159V179.464H205.643V177.159C207.722 177.169 209.263 176.959 210.271 176.527C211.278 176.097 211.934 175.198 212.238 173.825C212.542 172.456 212.678 170.37 212.647 167.565V146.551C212.667 141.51 212.049 137.873 210.788 135.638C209.524 133.404 207.492 132.308 204.683 132.352C201.309 132.288 198.462 134.046 196.143 137.629C194.145 140.621 193.151 143.85 193.168 147.322V167.565C193.138 170.37 193.273 172.456 193.581 173.825C193.885 175.198 194.551 176.097 195.572 176.527C196.593 176.959 198.158 177.169 200.267 177.159V179.464H174.555V177.159C176.634 177.169 178.179 176.959 179.183 176.527C180.19 176.097 180.846 175.198 181.15 173.825C181.454 172.456 181.59 170.37 181.559 167.565V146.456C181.607 136.957 179.017 132.254 173.787 132.352C170.532 132.467 167.804 134.012 165.606 136.98C163.409 139.952 162.266 143.654 162.178 148.089V167.565C162.148 170.401 162.283 172.504 162.587 173.869C162.888 175.239 163.544 176.131 164.551 176.55C165.559 176.969 167.1 177.172 169.18 177.159V179.464H143.176V177.159C145.353 177.172 146.962 176.969 148.01 176.55C149.058 176.131 149.741 175.239 150.052 173.869C150.363 172.504 150.502 170.401 150.471 167.565V140.892C150.569 136.987 150.181 134.458 149.295 133.299C148.413 132.143 146.438 131.602 143.372 131.68V129.377L162.08 128.13Z" fill="#3A3A3A"/>
<path d="M299.863 132.521V164.569C299.86 166.654 299.937 168.382 300.089 169.748C300.245 171.113 300.488 172.266 300.823 173.203C301.229 174.274 301.854 175.13 302.706 175.768C303.555 176.407 304.494 176.739 305.522 176.752C307.571 176.722 309.809 175.731 312.239 173.777L313.581 176.178C309.731 179.406 305.346 181.005 300.438 180.975C295.144 180.893 291.53 179.136 289.596 175.697C289.218 174.937 288.92 174.068 288.71 173.094C288.501 172.121 288.355 170.806 288.274 169.153C288.193 167.496 288.153 165.262 288.156 162.456V132.521H282.686V129.644C284.775 129.563 286.547 129.123 288 128.322C289.454 127.521 290.722 126.266 291.804 124.556C292.652 123.254 293.352 121.804 293.903 120.215C294.451 118.623 294.934 116.649 295.353 114.289L300.15 113.809C300.086 115.08 300.032 116.368 299.991 117.673C299.948 118.978 299.917 120.55 299.897 122.389C299.873 124.225 299.863 126.581 299.863 129.448H311.472V132.521H299.863Z" fill="#3A3A3A"/>
<path fill-rule="evenodd" clip-rule="evenodd" d="M282.641 177.431V179.459C279.831 179.645 278.699 179.642 275.748 179.645C273.405 179.648 270.981 179.608 268.97 178.851C267.726 178.384 267.029 177.985 266.103 177.005C265.454 175.977 265.041 175.923 264.832 173.06C262.357 175.734 259.778 177.701 257.1 178.959C254.42 180.22 251.526 180.842 248.426 180.832C243.821 180.781 240.221 179.51 237.621 177.015C235.018 174.52 233.696 171.092 233.649 166.724C233.632 158.489 238.754 153.371 249.004 151.373C253.625 150.477 258.868 149.872 264.737 149.551V143.314C264.788 138.317 264.257 134.852 263.155 132.929C262.053 131.002 260.085 130.082 257.252 130.17C254.247 130.106 252.104 131.191 250.826 133.432C250.359 134.2 250.021 135.085 249.805 136.083C249.592 137.08 249.42 138.466 249.291 140.244C249.213 141.951 248.716 143.165 247.804 143.888C246.888 144.612 245.431 144.964 243.436 144.947C238.99 144.913 236.753 143.442 236.719 140.532C236.736 138.834 237.26 137.215 238.294 135.674C239.325 134.132 240.786 132.776 242.672 131.607C246.668 129.146 251.911 127.932 258.405 127.963C265.011 127.932 269.744 129.24 272.607 131.898C273.895 133.111 274.842 134.663 275.447 136.549C276.055 138.436 276.353 140.849 276.349 143.794L276.157 160.487C276.076 163.222 276.045 164.95 276.059 165.67C276.025 169.128 276.136 171.657 276.387 173.249C276.637 174.845 276.914 175.544 277.962 176.41C279.794 177.458 281.363 177.427 282.641 177.431ZM264.737 159.145V151.758C257.868 152.225 252.996 153.496 250.119 155.572C247.243 157.647 245.846 160.886 245.931 165.288C245.961 168.739 246.671 171.477 248.054 173.502C249.44 175.527 251.323 176.562 253.703 176.609C255.657 176.589 257.459 176.028 259.112 174.916C260.765 173.81 262.066 172.262 263.01 170.277C263.628 169.06 264.071 167.58 264.342 165.825C264.612 164.071 264.744 161.846 264.737 159.145Z" fill="#3A3A3A"/>
<path fill-rule="evenodd" clip-rule="evenodd" d="M365.254 177.431V179.46C362.445 179.646 361.312 179.649 358.361 179.652C356.018 179.656 353.594 179.615 351.583 178.858C350.339 178.391 349.642 177.992 348.716 177.012C348.067 175.984 347.655 175.93 347.445 173.067C344.97 175.741 342.391 177.708 339.71 178.966C337.033 180.227 334.139 180.849 331.039 180.839C326.435 180.788 322.834 179.517 320.235 177.022C317.632 174.527 316.31 171.099 316.262 166.732C316.245 158.497 321.364 153.378 331.617 151.38C336.238 150.485 341.482 149.879 347.35 149.558V143.321C347.401 138.325 346.87 134.859 345.768 132.936C344.663 131.009 342.695 130.089 339.866 130.177C336.86 130.113 334.717 131.198 333.439 133.44C332.973 134.207 332.631 135.093 332.418 136.09C332.205 137.087 332.033 138.473 331.904 140.251C331.827 141.959 331.33 143.172 330.417 143.899C329.501 144.619 328.044 144.971 326.049 144.954C321.604 144.92 319.366 143.45 319.332 140.539C319.349 138.842 319.873 137.222 320.907 135.681C321.938 134.139 323.399 132.784 325.282 131.614C329.281 129.153 334.524 127.939 341.018 127.97C347.624 127.939 352.357 129.248 355.22 131.905C356.508 133.118 357.455 134.67 358.06 136.556C358.669 138.443 358.966 140.857 358.963 143.801L358.77 160.494C358.689 163.229 358.658 164.957 358.672 165.677C358.638 169.135 358.75 171.664 359 173.26C359.25 174.852 359.527 175.552 360.575 176.417C362.407 177.465 363.976 177.428 365.254 177.431ZM347.35 159.152V151.766C340.481 152.232 335.606 153.503 332.733 155.579C329.856 157.655 328.46 160.893 328.544 165.295C328.575 168.746 329.284 171.485 330.667 173.51C332.053 175.535 333.936 176.569 336.316 176.616C338.27 176.596 340.072 176.035 341.725 174.923C343.378 173.814 344.676 172.269 345.623 170.281C346.241 169.071 346.684 167.587 346.955 165.832C347.225 164.081 347.357 161.853 347.35 159.152Z" fill="#3A3A3A"/>
<path d="M562.823 59.4245L562.634 63.1195L633.535 146.292L636.081 146.708L636.402 146.549L637.646 144.244L607.41 43.0354L602.278 39.577L562.823 59.4245Z" fill="#0097B9"/>
<path fill-rule="evenodd" clip-rule="evenodd" d="M583.792 67.1612L636.225 146.93L633.436 146.473L562.443 63.0842L583.792 67.1612Z" fill="#005874"/>
<path d="M602.353 39.4882L607.468 42.9601L591.583 64.082L584.206 60.8569L602.353 39.4882Z" fill="#2FB8E7"/>
<path d="M584.204 60.8542L583.791 67.1624L562.446 63.0854L562.669 59.4174L584.204 60.8542Z" fill="#007592"/>
<path d="M591.583 64.0844L607.502 42.9287L638.12 144.221L636.561 146.841L591.583 64.0844Z" fill="#007592"/>
<path d="M676.606 37.5722L722.45 58.6502L722.535 64.5967L647.3 178.56L643.865 179.466L643.358 179.233L642.286 176.663L672.61 39.7933L676.606 37.5722Z" fill="#80B13A"/>
<path d="M722.691 64.5827L647.517 178.793L643.673 179.912L691.992 67.1959L722.691 64.5827Z" fill="#6E9123"/>
<path d="M683.335 62.4351L643.241 179.559L642.112 176.686L672.555 39.6769L683.335 62.4351Z" fill="#3F7937"/>
<path d="M722.571 58.6485L722.692 64.5814L691.993 67.198L690.262 59.0677L722.571 58.6485Z" fill="#A5C550"/>
<path d="M690.263 59.0672L683.332 62.4275L672.548 39.666L676.51 37.4314L690.263 59.0672Z" fill="#5D8B27"/>
<path d="M606.576 5.1462L608.402 1.63038L667.096 0.994828L670.889 4.93322L642.769 98.8833L640.987 99.9177L640.93 99.9143L639.003 98.6162L606.576 5.1462Z" fill="#D81936"/>
<path d="M633.544 11.4654L629.315 16.4619L606.378 5.03889L608.23 1.56364L633.544 11.4654Z" fill="#AF2C35"/>
<path d="M606.375 5.03889L629.316 16.4619L640.945 100.108L638.91 98.7219L606.375 5.03889Z" fill="#762624"/>
<path d="M640.35 16.4742L670.992 4.8923L642.913 99.0114L640.986 100.107L640.35 16.4742Z" fill="#B22B37"/>
<path d="M633.549 11.4653L640.351 16.4753L670.996 4.89343L667.159 0.975326L633.549 11.4653Z" fill="#DC505E"/>
</svg>
