<svg width="161" height="180" viewBox="0 0 161 180" fill="none" xmlns="http://www.w3.org/2000/svg">
<path d="M0.823102 59.3996L0.633789 63.0946L71.535 146.267L74.0805 146.683L74.4017 146.524L75.6457 144.219L45.4097 43.0105L40.278 39.5521L0.823102 59.3996Z" fill="#0097B9"/>
<path fill-rule="evenodd" clip-rule="evenodd" d="M21.7918 67.1363L74.2248 146.905L71.4358 146.448L0.443359 63.0593L21.7918 67.1363Z" fill="#005874"/>
<path d="M40.3531 39.4633L45.4679 42.9352L29.5825 64.0571L22.2061 60.832L40.3531 39.4633Z" fill="#2FB8E7"/>
<path d="M22.2038 60.829L21.7913 67.1372L0.446289 63.0602L0.669408 59.3923L22.2038 60.829Z" fill="#007592"/>
<path d="M29.5825 64.0595L45.5017 42.9038L76.1198 144.196L74.5613 146.816L29.5825 64.0595Z" fill="#007592"/>
<path d="M114.606 37.5473L160.45 58.6253L160.535 64.5718L85.2996 178.535L81.8649 179.441L81.3578 179.208L80.2861 176.638L110.61 39.7684L114.606 37.5473Z" fill="#80B13A"/>
<path d="M160.691 64.5578L85.5171 178.768L81.6733 179.887L129.992 67.171L160.691 64.5578Z" fill="#6E9123"/>
<path d="M121.335 62.4102L81.2414 179.534L80.1123 176.661L110.555 39.652L121.335 62.4102Z" fill="#3F7937"/>
<path d="M160.571 58.6233L160.692 64.5563L129.993 67.1729L128.262 59.0425L160.571 58.6233Z" fill="#A5C550"/>
<path d="M128.263 59.042L121.332 62.4023L110.548 39.6408L114.51 37.4062L128.263 59.042Z" fill="#5D8B27"/>
<path d="M44.5762 5.12105L46.4017 1.60523L105.096 0.969681L108.889 4.90807L80.7688 98.8581L78.9872 99.8926L78.9298 99.8892L77.0028 98.591L44.5762 5.12105Z" fill="#D81936"/>
<path d="M71.5444 11.4405L67.3152 16.437L44.3779 5.01399L46.2305 1.53874L71.5444 11.4405Z" fill="#AF2C35"/>
<path d="M44.375 5.01398L67.3157 16.437L78.9449 100.083L76.9098 98.697L44.375 5.01398Z" fill="#762624"/>
<path d="M78.3501 16.4491L108.992 4.86715L80.9126 98.9862L78.9856 100.082L78.3501 16.4491Z" fill="#B22B37"/>
<path d="M71.5493 11.4402L78.3511 16.4502L108.996 4.86829L105.159 0.950179L71.5493 11.4402Z" fill="#DC505E"/>
</svg>
